%TF.GenerationSoftware,Altium Limited,Altium Designer,22.7.1 (60)*%
G04 Layer_Color=65535*
%FSLAX43Y43*%
%MOMM*%
%TF.SameCoordinates,9191ECB2-230E-4BD1-81F0-C314D0E832B5*%
%TF.FilePolarity,Positive*%
%TF.FileFunction,Legend,Top*%
%TF.Part,Single*%
G01*
G75*
%TA.AperFunction,NonConductor*%
%ADD49C,0.200*%
%ADD50C,0.250*%
%ADD51C,0.127*%
%ADD52C,0.254*%
%ADD53C,0.500*%
D49*
X105475Y9775D02*
G03*
X105475Y9775I-100J0D01*
G01*
X30005Y19395D02*
G03*
X30005Y19395I-100J0D01*
G01*
X80520Y12460D02*
G03*
X80520Y12460I-100J0D01*
G01*
X3830Y12841D02*
G03*
X3830Y12841I-100J0D01*
G01*
X96777Y4450D02*
X97299D01*
X96777Y6568D02*
Y7350D01*
Y4450D02*
Y5232D01*
Y7350D02*
X97299D01*
X43716Y22191D02*
Y22941D01*
X41916Y23441D02*
X42466D01*
X40666Y22191D02*
Y22941D01*
X28750Y14850D02*
Y15050D01*
X26650Y14850D02*
Y15050D01*
X67500Y16480D02*
Y17695D01*
Y8305D02*
Y9520D01*
X60550Y8305D02*
X67500D01*
X60550Y16480D02*
Y17695D01*
Y8305D02*
Y9520D01*
Y17695D02*
X67500D01*
X19925Y11940D02*
X21500D01*
X14500D02*
X16075D01*
X14500D02*
Y13315D01*
X15775Y16190D02*
X20225D01*
X21500Y11940D02*
Y13315D01*
X14600Y24185D02*
X20900D01*
X14600Y19840D02*
Y22190D01*
Y17885D02*
X20900D01*
Y19840D02*
Y22190D01*
X82000Y18100D02*
X83000D01*
Y18400D01*
X82000Y18100D02*
Y18400D01*
X119500Y12800D02*
Y17200D01*
X111900Y18950D02*
X115900D01*
X111900Y18150D02*
Y18950D01*
Y18150D02*
X113500D01*
Y16900D02*
Y18150D01*
Y11850D02*
Y13100D01*
X111900Y11850D02*
X113500D01*
X111900Y11050D02*
Y11850D01*
Y11050D02*
X115900D01*
X56163Y24398D02*
Y25397D01*
X56663D01*
X56830Y25231D01*
Y24897D01*
X56663Y24731D01*
X56163D01*
X57163Y25064D02*
Y24398D01*
Y24731D01*
X57329Y24897D01*
X57496Y25064D01*
X57663D01*
X58329Y24398D02*
X58662D01*
X58829Y24564D01*
Y24897D01*
X58662Y25064D01*
X58329D01*
X58163Y24897D01*
Y24564D01*
X58329Y24398D01*
X59162Y24064D02*
X59329D01*
X59495Y24231D01*
Y25064D01*
X60662Y24398D02*
X60329D01*
X60162Y24564D01*
Y24897D01*
X60329Y25064D01*
X60662D01*
X60828Y24897D01*
Y24731D01*
X60162D01*
X61328Y25231D02*
Y25064D01*
X61162D01*
X61495D01*
X61328D01*
Y24564D01*
X61495Y24398D01*
X62994D02*
Y25064D01*
X63494D01*
X63661Y24897D01*
Y24398D01*
X63994Y25064D02*
Y24564D01*
X64161Y24398D01*
X64660D01*
Y25064D01*
X64994Y24398D02*
Y25064D01*
X65160D01*
X65327Y24897D01*
Y24398D01*
Y24897D01*
X65494Y25064D01*
X65660Y24897D01*
Y24398D01*
X66493D02*
X66160D01*
X65993Y24564D01*
Y24897D01*
X66160Y25064D01*
X66493D01*
X66660Y24897D01*
Y24731D01*
X65993D01*
X66993Y25064D02*
Y24398D01*
Y24731D01*
X67160Y24897D01*
X67326Y25064D01*
X67493D01*
X68159Y24398D02*
X68493D01*
X68659Y24564D01*
Y24897D01*
X68493Y25064D01*
X68159D01*
X67993Y24897D01*
Y24564D01*
X68159Y24398D01*
X70659D02*
X69992D01*
X70659Y25064D01*
Y25231D01*
X70492Y25397D01*
X70159D01*
X69992Y25231D01*
X71658Y24398D02*
X70992D01*
X71658Y25064D01*
Y25231D01*
X71492Y25397D01*
X71158D01*
X70992Y25231D01*
X71991D02*
X72158Y25397D01*
X72491D01*
X72658Y25231D01*
Y25064D01*
X72491Y24897D01*
X72325D01*
X72491D01*
X72658Y24731D01*
Y24564D01*
X72491Y24398D01*
X72158D01*
X71991Y24564D01*
X72991Y25231D02*
X73158Y25397D01*
X73491D01*
X73658Y25231D01*
Y24564D01*
X73491Y24398D01*
X73158D01*
X72991Y24564D01*
Y25231D01*
X56163Y27089D02*
X56830D01*
X56496D01*
Y26089D01*
X57163Y26756D02*
Y26256D01*
X57329Y26089D01*
X57829D01*
Y26756D01*
X58163Y27089D02*
Y26089D01*
X58662D01*
X58829Y26256D01*
Y26423D01*
Y26589D01*
X58662Y26756D01*
X58163D01*
X59662Y26089D02*
X59329D01*
X59162Y26256D01*
Y26589D01*
X59329Y26756D01*
X59662D01*
X59829Y26589D01*
Y26423D01*
X59162D01*
X61162Y26089D02*
Y27089D01*
X61661D01*
X61828Y26922D01*
Y26589D01*
X61661Y26423D01*
X61162D01*
X62161Y26089D02*
X62494D01*
X62328D01*
Y26756D01*
X62161D01*
X63161Y26922D02*
Y26756D01*
X62994D01*
X63328D01*
X63161D01*
Y26256D01*
X63328Y26089D01*
X63994D02*
X64327D01*
X64494Y26256D01*
Y26589D01*
X64327Y26756D01*
X63994D01*
X63827Y26589D01*
Y26256D01*
X63994Y26089D01*
X64994Y26922D02*
Y26756D01*
X64827D01*
X65160D01*
X64994D01*
Y26256D01*
X65160Y26089D01*
X67326Y27089D02*
Y26089D01*
X66826D01*
X66660Y26256D01*
Y26589D01*
X66826Y26756D01*
X67326D01*
X68159Y26089D02*
X67826D01*
X67659Y26256D01*
Y26589D01*
X67826Y26756D01*
X68159D01*
X68326Y26589D01*
Y26423D01*
X67659D01*
X68659Y25756D02*
Y26756D01*
X69159D01*
X69326Y26589D01*
Y26256D01*
X69159Y26089D01*
X68659D01*
X69825D02*
X70159D01*
X70325Y26256D01*
Y26589D01*
X70159Y26756D01*
X69825D01*
X69659Y26589D01*
Y26256D01*
X69825Y26089D01*
X70659Y26756D02*
Y26089D01*
Y26423D01*
X70825Y26589D01*
X70992Y26756D01*
X71158D01*
X71825Y26922D02*
Y26756D01*
X71658D01*
X71991D01*
X71825D01*
Y26256D01*
X71991Y26089D01*
X72991D02*
X72658D01*
X72491Y26256D01*
Y26589D01*
X72658Y26756D01*
X72991D01*
X73158Y26589D01*
Y26423D01*
X72491D01*
X56163Y20980D02*
Y21979D01*
X56496Y21646D01*
X56830Y21979D01*
Y20980D01*
X57663D02*
X57329D01*
X57163Y21146D01*
Y21479D01*
X57329Y21646D01*
X57663D01*
X57829Y21479D01*
Y21313D01*
X57163D01*
X58163Y21646D02*
X58496Y20980D01*
X58829Y21646D01*
X59662Y20980D02*
X59329D01*
X59162Y21146D01*
Y21479D01*
X59329Y21646D01*
X59662D01*
X59829Y21479D01*
Y21313D01*
X59162D01*
X60162Y20980D02*
Y21646D01*
X60662D01*
X60828Y21479D01*
Y20980D01*
X62161D02*
Y21979D01*
X62661D01*
X62828Y21813D01*
Y21479D01*
X62661Y21313D01*
X62161D01*
X62494D02*
X62828Y20980D01*
X63161D02*
X63494D01*
X63328D01*
Y21646D01*
X63161D01*
X64660D02*
X64161D01*
X63994Y21479D01*
Y21146D01*
X64161Y20980D01*
X64660D01*
X65660Y21646D02*
X65160D01*
X64994Y21479D01*
Y21146D01*
X65160Y20980D01*
X65660D01*
X65993Y21979D02*
Y20980D01*
Y21479D01*
X66160Y21646D01*
X66493D01*
X66660Y21479D01*
Y20980D01*
X66993D02*
X67326D01*
X67160D01*
Y21646D01*
X66993D01*
X68326Y20980D02*
X67993D01*
X67826Y21146D01*
Y21479D01*
X67993Y21646D01*
X68326D01*
X68493Y21479D01*
Y21313D01*
X67826D01*
X68826Y21646D02*
Y20980D01*
Y21313D01*
X68992Y21479D01*
X69159Y21646D01*
X69326D01*
X69825Y20980D02*
X70159D01*
X69992D01*
Y21646D01*
X69825D01*
X56163Y23296D02*
X56496Y22630D01*
X56830Y23296D01*
X57163Y22630D02*
X57496D01*
X57329D01*
Y23629D01*
X57163Y23463D01*
X57996Y22630D02*
Y22796D01*
X58163D01*
Y22630D01*
X57996D01*
X58829Y23463D02*
X58996Y23629D01*
X59329D01*
X59495Y23463D01*
Y22796D01*
X59329Y22630D01*
X58996D01*
X58829Y22796D01*
Y23463D01*
X59829Y22630D02*
Y22796D01*
X59995D01*
Y22630D01*
X59829D01*
X60662Y23463D02*
X60828Y23629D01*
X61162D01*
X61328Y23463D01*
Y22796D01*
X61162Y22630D01*
X60828D01*
X60662Y22796D01*
Y23463D01*
X7300Y7535D02*
X7966D01*
X7633Y7868D02*
Y7202D01*
X8300Y8035D02*
Y7868D01*
X8633Y7535D01*
X8966Y7868D01*
Y8035D01*
X8633Y7535D02*
Y7035D01*
X10875Y10500D02*
X11541D01*
X11208Y10833D02*
Y10167D01*
X11875Y11000D02*
X12541D01*
Y10833D01*
X11875Y10167D01*
Y10000D01*
X12541D01*
X23058Y12975D02*
X22725D01*
X22892D01*
Y12142D01*
X22725Y11975D01*
X22559D01*
X22392Y12142D01*
X23392Y12808D02*
X23558Y12975D01*
X23891D01*
X24058Y12808D01*
Y12642D01*
X23891Y12475D01*
X23725D01*
X23891D01*
X24058Y12308D01*
Y12142D01*
X23891Y11975D01*
X23558D01*
X23392Y12142D01*
X11008Y15783D02*
X10842Y15950D01*
X10509D01*
X10342Y15783D01*
Y15117D01*
X10509Y14950D01*
X10842D01*
X11008Y15117D01*
X11342Y15783D02*
X11508Y15950D01*
X11841D01*
X12008Y15783D01*
Y15617D01*
X11841Y15450D01*
X12008Y15283D01*
Y15117D01*
X11841Y14950D01*
X11508D01*
X11342Y15117D01*
Y15283D01*
X11508Y15450D01*
X11342Y15617D01*
Y15783D01*
X11508Y15450D02*
X11841D01*
X3617Y11950D02*
Y11117D01*
X3784Y10950D01*
X4117D01*
X4283Y11117D01*
Y11950D01*
X5116Y10950D02*
Y11950D01*
X4617Y11450D01*
X5283D01*
X20067Y25475D02*
Y26475D01*
X20567D01*
X20733Y26308D01*
Y25975D01*
X20567Y25809D01*
X20067D01*
X21733Y25475D02*
X21067D01*
X21733Y26142D01*
Y26308D01*
X21566Y26475D01*
X21233D01*
X21067Y26308D01*
X111967Y19475D02*
Y20475D01*
X112467D01*
X112633Y20308D01*
Y19975D01*
X112467Y19808D01*
X111967D01*
X112967Y20308D02*
X113133Y20475D01*
X113466D01*
X113633Y20308D01*
Y20142D01*
X113466Y19975D01*
X113300D01*
X113466D01*
X113633Y19808D01*
Y19642D01*
X113466Y19475D01*
X113133D01*
X112967Y19642D01*
X27034Y12890D02*
Y12723D01*
X27367Y12390D01*
X27700Y12723D01*
Y12890D01*
X27367Y12390D02*
Y11890D01*
X28034D02*
X28367D01*
X28200D01*
Y12890D01*
X28034Y12723D01*
X30442Y21775D02*
Y20942D01*
X30609Y20775D01*
X30942D01*
X31108Y20942D01*
Y21775D01*
X32108D02*
X31442D01*
Y21275D01*
X31775Y21442D01*
X31941D01*
X32108Y21275D01*
Y20942D01*
X31941Y20775D01*
X31608D01*
X31442Y20942D01*
X44542Y21775D02*
Y20942D01*
X44709Y20775D01*
X45042D01*
X45208Y20942D01*
Y21775D01*
X45542Y21608D02*
X45708Y21775D01*
X46041D01*
X46208Y21608D01*
Y21442D01*
X46041Y21275D01*
X45875D01*
X46041D01*
X46208Y21108D01*
Y20942D01*
X46041Y20775D01*
X45708D01*
X45542Y20942D01*
X79551Y27125D02*
X80217D01*
X79884D01*
Y26125D01*
X80550D02*
Y27125D01*
X81050D01*
X81217Y26958D01*
Y26625D01*
X81050Y26458D01*
X80550D01*
X81550Y26125D02*
X81883D01*
X81717D01*
Y27125D01*
X81550Y26958D01*
X82383D02*
X82550Y27125D01*
X82883D01*
X83049Y26958D01*
Y26292D01*
X82883Y26125D01*
X82550D01*
X82383Y26292D01*
Y26958D01*
X31192Y3800D02*
X31859D01*
X31525D01*
Y2800D01*
X32192D02*
Y3800D01*
X32692D01*
X32858Y3633D01*
Y3300D01*
X32692Y3133D01*
X32192D01*
X33191Y2967D02*
X33358Y2800D01*
X33691D01*
X33858Y2967D01*
Y3633D01*
X33691Y3800D01*
X33358D01*
X33191Y3633D01*
Y3467D01*
X33358Y3300D01*
X33858D01*
X43727Y3800D02*
X44394D01*
X44060D01*
Y2800D01*
X44727D02*
Y3800D01*
X45227D01*
X45393Y3633D01*
Y3300D01*
X45227Y3133D01*
X44727D01*
X45726Y3633D02*
X45893Y3800D01*
X46226D01*
X46393Y3633D01*
Y3467D01*
X46226Y3300D01*
X46393Y3133D01*
Y2967D01*
X46226Y2800D01*
X45893D01*
X45726Y2967D01*
Y3133D01*
X45893Y3300D01*
X45726Y3467D01*
Y3633D01*
X45893Y3300D02*
X46226D01*
X13142Y3850D02*
X13809D01*
X13475D01*
Y2850D01*
X14142D02*
Y3850D01*
X14642D01*
X14808Y3683D01*
Y3350D01*
X14642Y3183D01*
X14142D01*
X15141Y3850D02*
X15808D01*
Y3683D01*
X15141Y3017D01*
Y2850D01*
X5792Y3850D02*
X6459D01*
X6125D01*
Y2850D01*
X6792D02*
Y3850D01*
X7292D01*
X7458Y3683D01*
Y3350D01*
X7292Y3183D01*
X6792D01*
X8458Y3850D02*
X8125Y3683D01*
X7791Y3350D01*
Y3017D01*
X7958Y2850D01*
X8291D01*
X8458Y3017D01*
Y3183D01*
X8291Y3350D01*
X7791D01*
X100942Y27125D02*
X101609D01*
X101275D01*
Y26125D01*
X101942D02*
Y27125D01*
X102442D01*
X102608Y26958D01*
Y26625D01*
X102442Y26458D01*
X101942D01*
X103608Y27125D02*
X102941D01*
Y26625D01*
X103275Y26792D01*
X103441D01*
X103608Y26625D01*
Y26292D01*
X103441Y26125D01*
X103108D01*
X102941Y26292D01*
X111367Y27125D02*
X112034D01*
X111700D01*
Y26125D01*
X112367D02*
Y27125D01*
X112867D01*
X113033Y26958D01*
Y26625D01*
X112867Y26458D01*
X112367D01*
X113866Y26125D02*
Y27125D01*
X113366Y26625D01*
X114033D01*
X90652Y27125D02*
X91319D01*
X90985D01*
Y26125D01*
X91652D02*
Y27125D01*
X92152D01*
X92318Y26958D01*
Y26625D01*
X92152Y26458D01*
X91652D01*
X92651Y26958D02*
X92818Y27125D01*
X93151D01*
X93318Y26958D01*
Y26792D01*
X93151Y26625D01*
X92985D01*
X93151D01*
X93318Y26458D01*
Y26292D01*
X93151Y26125D01*
X92818D01*
X92651Y26292D01*
X5667Y27100D02*
X6334D01*
X6000D01*
Y26100D01*
X6667D02*
Y27100D01*
X7167D01*
X7333Y26933D01*
Y26600D01*
X7167Y26433D01*
X6667D01*
X8333Y26100D02*
X7666D01*
X8333Y26767D01*
Y26933D01*
X8166Y27100D01*
X7833D01*
X7666Y26933D01*
X82584Y3825D02*
X83250D01*
X82917D01*
Y2825D01*
X83583D02*
Y3825D01*
X84083D01*
X84250Y3658D01*
Y3325D01*
X84083Y3158D01*
X83583D01*
X84583Y2825D02*
X84916D01*
X84750D01*
Y3825D01*
X84583Y3658D01*
X12809Y25733D02*
X12642Y25900D01*
X12309D01*
X12142Y25733D01*
Y25567D01*
X12309Y25400D01*
X12642D01*
X12809Y25233D01*
Y25067D01*
X12642Y24900D01*
X12309D01*
X12142Y25067D01*
X13142Y25900D02*
Y24900D01*
X13475Y25233D01*
X13808Y24900D01*
Y25900D01*
X14808Y24900D02*
X14141D01*
X14808Y25567D01*
Y25733D01*
X14641Y25900D01*
X14308D01*
X14141Y25733D01*
X63500Y19128D02*
X63334Y19295D01*
X63000D01*
X62834Y19128D01*
Y18962D01*
X63000Y18795D01*
X63334D01*
X63500Y18628D01*
Y18462D01*
X63334Y18295D01*
X63000D01*
X62834Y18462D01*
X63833Y19295D02*
Y18295D01*
X64167Y18628D01*
X64500Y18295D01*
Y19295D01*
X64833Y18295D02*
X65166D01*
X65000D01*
Y19295D01*
X64833Y19128D01*
X104300Y7300D02*
Y8300D01*
X104800D01*
X104967Y8133D01*
Y7800D01*
X104800Y7633D01*
X104300D01*
X104634D02*
X104967Y7300D01*
X105300D02*
X105633D01*
X105467D01*
Y8300D01*
X105300Y8133D01*
X106800Y8300D02*
X106133D01*
Y7800D01*
X106466Y7967D01*
X106633D01*
X106800Y7800D01*
Y7467D01*
X106633Y7300D01*
X106300D01*
X106133Y7467D01*
X28100Y7700D02*
Y8700D01*
X28600D01*
X28767Y8533D01*
Y8200D01*
X28600Y8033D01*
X28100D01*
X28434D02*
X28767Y7700D01*
X29100D02*
X29433D01*
X29267D01*
Y8700D01*
X29100Y8533D01*
X30600Y7700D02*
X29933D01*
X30600Y8367D01*
Y8533D01*
X30433Y8700D01*
X30100D01*
X29933Y8533D01*
X39517Y7480D02*
Y8480D01*
X40017D01*
X40183Y8313D01*
Y7980D01*
X40017Y7813D01*
X39517D01*
X39850D02*
X40183Y7480D01*
X40517D02*
X40850D01*
X40683D01*
Y8480D01*
X40517Y8313D01*
X41350Y7480D02*
X41683D01*
X41516D01*
Y8480D01*
X41350Y8313D01*
X73170Y12850D02*
Y13850D01*
X73670D01*
X73837Y13683D01*
Y13350D01*
X73670Y13184D01*
X73170D01*
X73504D02*
X73837Y12850D01*
X74170D02*
X74503D01*
X74337D01*
Y13850D01*
X74170Y13683D01*
X75003D02*
X75170Y13850D01*
X75503D01*
X75670Y13683D01*
Y13017D01*
X75503Y12850D01*
X75170D01*
X75003Y13017D01*
Y13683D01*
X77117Y12700D02*
Y13700D01*
X77617D01*
X77783Y13533D01*
Y13200D01*
X77617Y13033D01*
X77117D01*
X77450D02*
X77783Y12700D01*
X78117Y12867D02*
X78283Y12700D01*
X78616D01*
X78783Y12867D01*
Y13533D01*
X78616Y13700D01*
X78283D01*
X78117Y13533D01*
Y13367D01*
X78283Y13200D01*
X78783D01*
X99482Y2925D02*
Y3925D01*
X99982D01*
X100148Y3758D01*
Y3425D01*
X99982Y3258D01*
X99482D01*
X99815D02*
X100148Y2925D01*
X101148Y3925D02*
X100482D01*
Y3425D01*
X100815Y3592D01*
X100981D01*
X101148Y3425D01*
Y3092D01*
X100981Y2925D01*
X100648D01*
X100482Y3092D01*
X89817Y2950D02*
Y3950D01*
X90317D01*
X90483Y3783D01*
Y3450D01*
X90317Y3283D01*
X89817D01*
X90150D02*
X90483Y2950D01*
X91316D02*
Y3950D01*
X90817Y3450D01*
X91483D01*
X79512Y20325D02*
Y21325D01*
X80012D01*
X80178Y21158D01*
Y20825D01*
X80012Y20658D01*
X79512D01*
X79845D02*
X80178Y20325D01*
X80512Y21158D02*
X80678Y21325D01*
X81011D01*
X81178Y21158D01*
Y20992D01*
X81011Y20825D01*
X80845D01*
X81011D01*
X81178Y20658D01*
Y20492D01*
X81011Y20325D01*
X80678D01*
X80512Y20492D01*
X108117Y7325D02*
Y8325D01*
X108617D01*
X108783Y8158D01*
Y7825D01*
X108617Y7658D01*
X108117D01*
X108450D02*
X108783Y7325D01*
X109783D02*
X109117D01*
X109783Y7992D01*
Y8158D01*
X109616Y8325D01*
X109283D01*
X109117Y8158D01*
X111884Y7300D02*
Y8300D01*
X112383D01*
X112550Y8133D01*
Y7800D01*
X112383Y7633D01*
X111884D01*
X112217D02*
X112550Y7300D01*
X112883D02*
X113216D01*
X113050D01*
Y8300D01*
X112883Y8133D01*
X96065Y8417D02*
Y9083D01*
X95898Y9250D01*
X95565D01*
X95399Y9083D01*
Y8417D01*
X95565Y8250D01*
X95898D01*
X95732Y8583D02*
X96065Y8250D01*
X95898D02*
X96065Y8417D01*
X96398Y8250D02*
X96731D01*
X96565D01*
Y9250D01*
X96398Y9083D01*
X69184Y2650D02*
Y3650D01*
X69683D01*
X69850Y3483D01*
Y3150D01*
X69683Y2983D01*
X69184D01*
X70183Y2650D02*
X70516D01*
X70350D01*
Y3650D01*
X70183Y3483D01*
X81962Y21305D02*
Y20305D01*
X82629D01*
X83628Y21305D02*
X82962D01*
Y20305D01*
X83628D01*
X82962Y20805D02*
X83295D01*
X83962Y21305D02*
Y20305D01*
X84461D01*
X84628Y20472D01*
Y21138D01*
X84461Y21305D01*
X83962D01*
X84961Y20305D02*
X85295D01*
X85128D01*
Y21305D01*
X84961Y21138D01*
X106417Y20200D02*
Y19200D01*
X106917D01*
X107083Y19367D01*
Y20033D01*
X106917Y20200D01*
X106417D01*
X107916Y19200D02*
Y20200D01*
X107417Y19700D01*
X108083D01*
X82317Y11000D02*
Y10000D01*
X82817D01*
X82983Y10167D01*
Y10833D01*
X82817Y11000D01*
X82317D01*
X83983Y10000D02*
X83317D01*
X83983Y10667D01*
Y10833D01*
X83816Y11000D01*
X83483D01*
X83317Y10833D01*
X111134Y10225D02*
Y9225D01*
X111633D01*
X111800Y9392D01*
Y10058D01*
X111633Y10225D01*
X111134D01*
X112133Y9225D02*
X112466D01*
X112300D01*
Y10225D01*
X112133Y10058D01*
X78837Y15108D02*
X78670Y15275D01*
X78337D01*
X78171Y15108D01*
Y14442D01*
X78337Y14275D01*
X78670D01*
X78837Y14442D01*
X79170Y14275D02*
X79503D01*
X79337D01*
Y15275D01*
X79170Y15108D01*
X80003D02*
X80170Y15275D01*
X80503D01*
X80670Y15108D01*
Y14942D01*
X80503Y14775D01*
X80336D01*
X80503D01*
X80670Y14608D01*
Y14442D01*
X80503Y14275D01*
X80170D01*
X80003Y14442D01*
X2850Y20833D02*
X2684Y21000D01*
X2350D01*
X2184Y20833D01*
Y20167D01*
X2350Y20000D01*
X2684D01*
X2850Y20167D01*
X3184Y20000D02*
X3517D01*
X3350D01*
Y21000D01*
X3184Y20833D01*
X4017D02*
X4183Y21000D01*
X4516D01*
X4683Y20833D01*
Y20167D01*
X4516Y20000D01*
X4183D01*
X4017Y20167D01*
Y20833D01*
X3683Y18608D02*
X3517Y18775D01*
X3184D01*
X3017Y18608D01*
Y17942D01*
X3184Y17775D01*
X3517D01*
X3683Y17942D01*
X4017D02*
X4183Y17775D01*
X4516D01*
X4683Y17942D01*
Y18608D01*
X4516Y18775D01*
X4183D01*
X4017Y18608D01*
Y18442D01*
X4183Y18275D01*
X4683D01*
X36368Y22524D02*
X36202Y22691D01*
X35869D01*
X35702Y22524D01*
Y21858D01*
X35869Y21691D01*
X36202D01*
X36368Y21858D01*
X37368Y22691D02*
X37035Y22524D01*
X36702Y22191D01*
Y21858D01*
X36868Y21691D01*
X37201D01*
X37368Y21858D01*
Y22024D01*
X37201Y22191D01*
X36702D01*
X43183Y26183D02*
X43017Y26350D01*
X42684D01*
X42517Y26183D01*
Y25517D01*
X42684Y25350D01*
X43017D01*
X43183Y25517D01*
X44183Y26350D02*
X43517D01*
Y25850D01*
X43850Y26017D01*
X44016D01*
X44183Y25850D01*
Y25517D01*
X44016Y25350D01*
X43683D01*
X43517Y25517D01*
X86883Y16258D02*
X86717Y16425D01*
X86384D01*
X86217Y16258D01*
Y15592D01*
X86384Y15425D01*
X86717D01*
X86883Y15592D01*
X87217Y16258D02*
X87383Y16425D01*
X87716D01*
X87883Y16258D01*
Y16092D01*
X87716Y15925D01*
X87550D01*
X87716D01*
X87883Y15758D01*
Y15592D01*
X87716Y15425D01*
X87383D01*
X87217Y15592D01*
X91533Y14183D02*
X91367Y14350D01*
X91034D01*
X90867Y14183D01*
Y13517D01*
X91034Y13350D01*
X91367D01*
X91533Y13517D01*
X92533Y13350D02*
X91867D01*
X92533Y14017D01*
Y14183D01*
X92366Y14350D01*
X92033D01*
X91867Y14183D01*
X87500Y20083D02*
X87333Y20250D01*
X87000D01*
X86834Y20083D01*
Y19417D01*
X87000Y19250D01*
X87333D01*
X87500Y19417D01*
X87833Y19250D02*
X88166D01*
X88000D01*
Y20250D01*
X87833Y20083D01*
D50*
X41366Y20116D02*
G03*
X41366Y20116I-125J0D01*
G01*
X27100Y16850D02*
G03*
X27100Y16850I-125J0D01*
G01*
X58045Y15495D02*
G03*
X58045Y15495I-125J0D01*
G01*
X16875Y10340D02*
G03*
X16875Y10340I-125J0D01*
G01*
X24250Y18935D02*
G03*
X24250Y18935I-125J0D01*
G01*
X110075Y14000D02*
G03*
X110075Y14000I-125J0D01*
G01*
D51*
X107920Y5015D02*
X109920D01*
X107920Y6795D02*
X109920D01*
X111430D02*
X113430D01*
X111430Y5015D02*
X113430D01*
X109525Y9000D02*
Y9095D01*
Y10455D02*
Y10550D01*
X106825Y9000D02*
Y9095D01*
Y10455D02*
Y10550D01*
Y9000D02*
X109525D01*
X106825Y10550D02*
X109525D01*
X104420Y5015D02*
X106420D01*
X104420Y6795D02*
X106420D01*
X92365Y4315D02*
X94365D01*
X92365Y2535D02*
X94365D01*
X102550Y2535D02*
X104550D01*
X102550Y4315D02*
X104550D01*
X39756Y21201D02*
Y23201D01*
X37976Y21201D02*
Y23201D01*
X81235Y17350D02*
Y19350D01*
X79455Y17350D02*
Y19350D01*
X71555Y2092D02*
Y3342D01*
Y6042D02*
Y7142D01*
X80495Y2092D02*
Y3342D01*
Y6042D02*
Y7142D01*
X71555Y2092D02*
X80495D01*
X89260Y20590D02*
X91260D01*
X89260Y18810D02*
X91260D01*
X86160Y12395D02*
Y14395D01*
X87940Y12395D02*
Y14395D01*
X81475Y15665D02*
X83475D01*
X81475Y13885D02*
X83475D01*
X37800Y9750D02*
Y10210D01*
X32200Y9750D02*
Y10210D01*
X37800Y19790D02*
Y20250D01*
X32200Y19790D02*
Y20250D01*
Y9750D02*
X37800D01*
X32200Y20250D02*
X37800D01*
X36535Y7085D02*
X38535D01*
X36535Y8865D02*
X38535D01*
X31665Y8865D02*
X33665D01*
X31665Y7085D02*
X33665D01*
X7985Y14435D02*
Y16435D01*
X9765Y14435D02*
Y16435D01*
X5685Y19240D02*
X7685D01*
X5685Y17460D02*
X7685D01*
X5697Y19660D02*
X7697D01*
X5697Y21440D02*
X7697D01*
X39306Y25026D02*
X41306D01*
X39306Y26806D02*
X41306D01*
X81870Y13235D02*
X84570D01*
X81870Y11685D02*
X84570D01*
X81870Y13140D02*
Y13235D01*
Y11685D02*
Y11780D01*
X84570Y13140D02*
Y13235D01*
Y11685D02*
Y11780D01*
X90885Y15615D02*
Y17615D01*
X92665Y15615D02*
Y17615D01*
X73205Y12135D02*
X75205D01*
X73205Y10355D02*
X75205D01*
X76835D02*
X78835D01*
X76835Y12135D02*
X78835D01*
X105125Y12300D02*
Y17700D01*
X109325Y12300D02*
Y17700D01*
X106025Y18700D02*
X108425D01*
X3750Y13500D02*
Y14055D01*
Y15945D02*
Y16500D01*
X6250Y13500D02*
Y14055D01*
Y15945D02*
Y16500D01*
X3750Y13500D02*
X3805D01*
X3750Y16500D02*
X3805D01*
X6195Y13500D02*
X6250D01*
X6195Y16500D02*
X6250D01*
D52*
X2891Y23977D02*
X9167D01*
X2904Y24393D02*
X9167D01*
Y23977D02*
Y24185D01*
Y24393D01*
X2720Y24137D02*
X3024Y23833D01*
X2728Y24217D02*
X3031Y24520D01*
X2651Y24217D02*
X2728D01*
X2326Y24198D02*
X3001Y23522D01*
X2405Y24225D02*
X3080Y24900D01*
X2375Y24225D02*
X2405D01*
X3080Y23155D02*
Y25215D01*
X2050Y24185D02*
X3080Y23155D01*
X2050Y24185D02*
X3080Y25215D01*
X2050Y24185D02*
X9167D01*
X74420Y20750D02*
Y27125D01*
X55445Y20750D02*
Y27125D01*
X22430Y24644D02*
Y27184D01*
X37670D01*
Y24644D02*
Y27184D01*
X22430Y24644D02*
X37670D01*
X24970D02*
Y27184D01*
X9080Y10536D02*
X10355D01*
X10001Y10889D02*
X10355Y10536D01*
X10001Y10182D02*
X10355Y10536D01*
X9302Y11540D02*
X9748D01*
X9080Y11318D02*
X9970D01*
X9525Y9400D02*
Y11762D01*
X9080Y11318D02*
X9525Y11762D01*
X9970Y11318D01*
X8600Y10075D02*
X8954Y9721D01*
X8246D02*
X8600Y10075D01*
Y8800D02*
Y10075D01*
X7385Y9177D02*
Y9623D01*
X7608Y8955D02*
Y9845D01*
X7162Y9400D02*
X9525D01*
X7162D02*
X7608Y8955D01*
X7162Y9400D02*
X7608Y9845D01*
D53*
X50458Y2875D02*
X49125D01*
X50458Y4208D01*
Y4541D01*
X50125Y4874D01*
X49458D01*
X49125Y4541D01*
X51124D02*
X51458Y4874D01*
X52124D01*
X52457Y4541D01*
Y3208D01*
X52124Y2875D01*
X51458D01*
X51124Y3208D01*
Y4541D01*
X54457Y2875D02*
X53124D01*
X54457Y4208D01*
Y4541D01*
X54123Y4874D01*
X53457D01*
X53124Y4541D01*
X55123D02*
X55456Y4874D01*
X56123D01*
X56456Y4541D01*
Y4208D01*
X56123Y3875D01*
X55790D01*
X56123D01*
X56456Y3541D01*
Y3208D01*
X56123Y2875D01*
X55456D01*
X55123Y3208D01*
%TF.MD5,24e96a12ebaba1df34e23fde07949340*%
M02*
