%TF.GenerationSoftware,Altium Limited,Altium Designer,22.7.1 (60)*%
G04 Layer_Color=65535*
%FSLAX43Y43*%
%MOMM*%
%TF.SameCoordinates,440D4EDA-C43D-4E66-B479-6B8574177269*%
%TF.FilePolarity,Positive*%
%TF.FileFunction,Legend,Top*%
%TF.Part,Single*%
G01*
G75*
%TA.AperFunction,NonConductor*%
%ADD49C,0.254*%
%ADD50C,0.250*%
%ADD51C,0.200*%
%ADD52C,0.500*%
%ADD53C,0.127*%
%ADD54C,0.500*%
G36*
X19314Y13186D02*
X19308Y13192D01*
X19314Y13198D01*
X19308Y13204D01*
X19314Y13211D01*
X19308Y13217D01*
X19314Y13223D01*
X19308Y13229D01*
X19314Y13235D01*
X19308Y13242D01*
X19314Y13248D01*
X19308Y13254D01*
X19314Y13260D01*
X19308Y13266D01*
X19314Y13273D01*
X19308Y13279D01*
X19314Y13285D01*
X19308Y13291D01*
X19321Y13303D01*
X19314Y13310D01*
X19321Y13316D01*
X19314Y13322D01*
X19321Y13328D01*
X19314Y13334D01*
X19321Y13341D01*
X19314Y13347D01*
X19321Y13353D01*
X19314Y13359D01*
X19321Y13365D01*
X19314Y13371D01*
X19321Y13378D01*
X19314Y13384D01*
X19321Y13390D01*
X19314Y13396D01*
X19327Y13409D01*
X19321Y13415D01*
X19327Y13421D01*
X19321Y13427D01*
X19327Y13433D01*
X19321Y13439D01*
X19327Y13446D01*
X19321Y13452D01*
X19327Y13458D01*
X19321Y13464D01*
X19327Y13470D01*
X19321Y13477D01*
X19327Y13483D01*
X19321Y13489D01*
X19327Y13495D01*
X19321Y13501D01*
X19333Y13514D01*
X19327Y13520D01*
X19333Y13526D01*
X19327Y13532D01*
X19333Y13538D01*
X19327Y13545D01*
X19333Y13551D01*
X19327Y13557D01*
X19333Y13563D01*
X19327Y13569D01*
X19333Y13576D01*
X19327Y13582D01*
X19333Y13588D01*
X19327Y13594D01*
X19333Y13600D01*
X19327Y13606D01*
X19339Y13619D01*
X19333Y13625D01*
X19339Y13631D01*
X19333Y13637D01*
X19339Y13644D01*
X19333Y13650D01*
X19339Y13656D01*
X19333Y13662D01*
X19339Y13668D01*
X19333Y13675D01*
X19339Y13681D01*
X19333Y13687D01*
X19339Y13693D01*
X19333Y13699D01*
X19339Y13705D01*
X19333Y13712D01*
X19339Y13718D01*
X19333Y13724D01*
X19345Y13736D01*
X19339Y13743D01*
X19345Y13749D01*
X19339Y13755D01*
X19345Y13761D01*
X19339Y13767D01*
X19345Y13773D01*
X19339Y13780D01*
X19345Y13786D01*
X19339Y13792D01*
X19345Y13798D01*
X19339Y13804D01*
X19345Y13811D01*
X19339Y13817D01*
X19351Y13829D01*
X19345Y13835D01*
X19351Y13841D01*
X19345Y13848D01*
X19351Y13854D01*
X19345Y13860D01*
X19351Y13866D01*
X19345Y13872D01*
X19351Y13879D01*
X19345Y13885D01*
X19351Y13891D01*
X19345Y13897D01*
X19351Y13903D01*
X19345Y13909D01*
X19358Y13922D01*
X19351Y13928D01*
X19358Y13934D01*
X19351Y13940D01*
X19358Y13947D01*
X19351Y13953D01*
X19358Y13959D01*
X19351Y13965D01*
X19358Y13971D01*
X19351Y13978D01*
X19358Y13984D01*
X19351Y13990D01*
X19358Y13996D01*
X19351Y14002D01*
X19358Y14008D01*
X19351Y14015D01*
X19364Y14027D01*
X19358Y14033D01*
X19364Y14039D01*
X19358Y14046D01*
X19364Y14052D01*
X19358Y14058D01*
X19364Y14064D01*
X19358Y14070D01*
X19364Y14076D01*
X19358Y14083D01*
X19364Y14089D01*
X19358Y14095D01*
X19364Y14101D01*
X19358Y14107D01*
X19370Y14120D01*
X19364Y14126D01*
X19370Y14132D01*
X19364Y14138D01*
X19370Y14144D01*
X19364Y14151D01*
X19370Y14157D01*
X19364Y14163D01*
X19370Y14169D01*
X19364Y14175D01*
X19370Y14182D01*
X19364Y14188D01*
X19376Y14200D01*
X19370Y14206D01*
X19376Y14213D01*
X19370Y14219D01*
X19376Y14225D01*
X19370Y14231D01*
X19376Y14237D01*
X19370Y14243D01*
X19376Y14250D01*
X19370Y14256D01*
X19376Y14262D01*
X19370Y14268D01*
X19382Y14281D01*
X19376Y14287D01*
X19382Y14293D01*
X19376Y14299D01*
X19382Y14305D01*
X19376Y14311D01*
X19382Y14318D01*
X19376Y14324D01*
X19382Y14330D01*
X19376Y14336D01*
X19382Y14342D01*
X19376Y14349D01*
X19389Y14361D01*
X19382Y14367D01*
X19389Y14373D01*
X19382Y14380D01*
X19389Y14386D01*
X19382Y14392D01*
X19389Y14398D01*
X19382Y14404D01*
X19389Y14410D01*
X19382Y14417D01*
X19395Y14429D01*
X19389Y14435D01*
X19395Y14441D01*
X19389Y14448D01*
X19395Y14454D01*
X19389Y14460D01*
X19395Y14466D01*
X19389Y14472D01*
X19395Y14478D01*
X19389Y14485D01*
X19395Y14491D01*
X19389Y14497D01*
X19401Y14509D01*
X19395Y14516D01*
X19401Y14522D01*
X19395Y14528D01*
X19401Y14534D01*
X19395Y14540D01*
X19401Y14546D01*
X19395Y14553D01*
X19401Y14559D01*
X19395Y14565D01*
X19407Y14577D01*
X19401Y14584D01*
X19407Y14590D01*
X19401Y14596D01*
X19407Y14602D01*
X19401Y14608D01*
X19407Y14615D01*
X19401Y14621D01*
X19413Y14633D01*
X19407Y14639D01*
X19413Y14645D01*
X19407Y14652D01*
X19413Y14658D01*
X19407Y14664D01*
X19419Y14676D01*
X19413Y14683D01*
X19419Y14689D01*
X19413Y14695D01*
X19419Y14701D01*
X19413Y14707D01*
X19426Y14720D01*
X19419Y14726D01*
X19426Y14732D01*
X19419Y14738D01*
X19426Y14744D01*
X19419Y14751D01*
X19432Y14763D01*
X19426Y14769D01*
X19432Y14775D01*
X19426Y14781D01*
X19438Y14794D01*
X19432Y14800D01*
X19444Y14812D01*
X19438Y14819D01*
X19450Y14831D01*
X19444Y14837D01*
X19469Y14862D01*
X19463Y14868D01*
X19518Y14924D01*
X19525Y14918D01*
X19556Y14948D01*
X19562Y14942D01*
X19580Y14961D01*
X19586Y14955D01*
X19605Y14973D01*
X19611Y14967D01*
X19624Y14979D01*
X19630Y14973D01*
X19642Y14986D01*
X19648Y14979D01*
X19654Y14986D01*
X19661Y14979D01*
X19673Y14992D01*
X19679Y14986D01*
X19685Y14992D01*
X19692Y14986D01*
X19704Y14998D01*
X19710Y14992D01*
X19716Y14998D01*
X19723Y14992D01*
X19729Y14998D01*
X19735Y14992D01*
X19747Y15004D01*
X19753Y14998D01*
X19760Y15004D01*
X19766Y14998D01*
X19772Y15004D01*
X19778Y14998D01*
X19784Y15004D01*
X19791Y14998D01*
X19797Y15004D01*
X19803Y14998D01*
X19809Y15004D01*
X19815Y14998D01*
X19821Y15004D01*
X19828Y14998D01*
X19834Y15004D01*
X19840Y14998D01*
X19846Y15004D01*
X19852Y14998D01*
X19859Y15004D01*
X19865Y14998D01*
X19871Y15004D01*
X19883Y14992D01*
X19889Y14998D01*
X19896Y14992D01*
X19902Y14998D01*
X19908Y14992D01*
X19914Y14998D01*
X19920Y14992D01*
X19927Y14998D01*
X19939Y14986D01*
X19945Y14992D01*
X19951Y14986D01*
X19958Y14992D01*
X19964Y14986D01*
X19970Y14992D01*
X19976Y14986D01*
X19982Y14992D01*
X19995Y14979D01*
X20001Y14986D01*
X20007Y14979D01*
X20013Y14986D01*
X20026Y14973D01*
X20032Y14979D01*
X20038Y14973D01*
X20044Y14979D01*
X20050Y14973D01*
X20056Y14979D01*
X20069Y14967D01*
X20075Y14973D01*
X20087Y14961D01*
X20094Y14967D01*
X20100Y14961D01*
X20106Y14967D01*
X20118Y14955D01*
X20124Y14961D01*
X20131Y14955D01*
X20137Y14961D01*
X20149Y14948D01*
X20155Y14955D01*
X20162Y14948D01*
X20168Y14955D01*
X20180Y14942D01*
X20186Y14948D01*
X20199Y14936D01*
X20205Y14942D01*
X20211Y14936D01*
X20217Y14942D01*
X20230Y14930D01*
X20236Y14936D01*
X20248Y14924D01*
X20254Y14930D01*
X20267Y14918D01*
X20273Y14924D01*
X20279Y14918D01*
X20285Y14924D01*
X20298Y14911D01*
X20304Y14918D01*
X20316Y14905D01*
X20322Y14911D01*
X20335Y14899D01*
X20341Y14905D01*
X20353Y14893D01*
X20359Y14899D01*
X20372Y14887D01*
X20378Y14893D01*
X20384Y14887D01*
X20390Y14893D01*
X20403Y14880D01*
X20409Y14887D01*
X20421Y14874D01*
X20428Y14880D01*
X20440Y14868D01*
X20446Y14874D01*
X20458Y14862D01*
X20465Y14868D01*
X20477Y14856D01*
X20483Y14862D01*
X20496Y14849D01*
X20502Y14856D01*
X20514Y14843D01*
X20520Y14849D01*
X20533Y14837D01*
X20539Y14843D01*
X20551Y14831D01*
X20557Y14837D01*
X20570Y14825D01*
X20576Y14831D01*
X20588Y14819D01*
X20594Y14825D01*
X20601Y14819D01*
X20607Y14825D01*
X20619Y14812D01*
X20625Y14819D01*
X20638Y14806D01*
X20644Y14812D01*
X20656Y14800D01*
X20663Y14806D01*
X20675Y14794D01*
X20681Y14800D01*
X20693Y14788D01*
X20700Y14794D01*
X20712Y14781D01*
X20706Y14775D01*
X20718Y14763D01*
X20712Y14757D01*
X20718Y14751D01*
X20712Y14744D01*
X20718Y14738D01*
X20712Y14732D01*
X20724Y14720D01*
X20718Y14713D01*
X20724Y14707D01*
X20718Y14701D01*
X20731Y14689D01*
X20724Y14683D01*
X20731Y14676D01*
X20724Y14670D01*
X20731Y14664D01*
X20724Y14658D01*
X20737Y14645D01*
X20731Y14639D01*
X20737Y14633D01*
X20731Y14627D01*
X20743Y14615D01*
X20737Y14608D01*
X20743Y14602D01*
X20737Y14596D01*
X20743Y14590D01*
X20737Y14584D01*
X20749Y14571D01*
X20743Y14565D01*
X20749Y14559D01*
X20743Y14553D01*
X20755Y14540D01*
X20749Y14534D01*
X20755Y14528D01*
X20749Y14522D01*
X20755Y14516D01*
X20749Y14509D01*
X20761Y14497D01*
X20755Y14491D01*
X20761Y14485D01*
X20755Y14478D01*
X20768Y14466D01*
X20761Y14460D01*
X20768Y14454D01*
X20761Y14448D01*
X20768Y14441D01*
X20761Y14435D01*
X20774Y14423D01*
X20768Y14417D01*
X20774Y14410D01*
X20768Y14404D01*
X20780Y14392D01*
X20774Y14386D01*
X20780Y14380D01*
X20774Y14373D01*
X20780Y14367D01*
X20774Y14361D01*
X20786Y14349D01*
X20780Y14342D01*
X20786Y14336D01*
X20780Y14330D01*
X20792Y14318D01*
X20786Y14311D01*
X20792Y14305D01*
X20786Y14299D01*
X20792Y14293D01*
X20786Y14287D01*
X20799Y14274D01*
X20792Y14268D01*
X20799Y14262D01*
X20792Y14256D01*
X20805Y14243D01*
X20799Y14237D01*
X20805Y14231D01*
X20799Y14225D01*
X20805Y14219D01*
X20799Y14213D01*
X20811Y14200D01*
X20805Y14194D01*
X20811Y14188D01*
X20805Y14182D01*
X20811Y14175D01*
X20805Y14169D01*
X20817Y14157D01*
X20811Y14151D01*
X20817Y14144D01*
X20811Y14138D01*
X20823Y14126D01*
X20817Y14120D01*
X20823Y14114D01*
X20817Y14107D01*
X20823Y14101D01*
X20817Y14095D01*
X20829Y14083D01*
X20823Y14076D01*
X20829Y14070D01*
X20823Y14064D01*
X20836Y14052D01*
X20829Y14046D01*
X20836Y14039D01*
X20829Y14033D01*
X20836Y14027D01*
X20829Y14021D01*
X20842Y14008D01*
X20836Y14002D01*
X20842Y13996D01*
X20836Y13990D01*
X20848Y13978D01*
X20842Y13971D01*
X20848Y13965D01*
X20842Y13959D01*
X20848Y13953D01*
X20842Y13947D01*
X20854Y13934D01*
X20848Y13928D01*
X20854Y13922D01*
X20848Y13916D01*
X20860Y13903D01*
X20854Y13897D01*
X20860Y13891D01*
X20854Y13885D01*
X20860Y13879D01*
X20854Y13872D01*
X20867Y13860D01*
X20860Y13854D01*
X20867Y13848D01*
X20860Y13841D01*
X20873Y13829D01*
X20867Y13823D01*
X20873Y13817D01*
X20867Y13811D01*
X20873Y13804D01*
X20867Y13798D01*
X20879Y13786D01*
X20873Y13780D01*
X20879Y13773D01*
X20873Y13767D01*
X20885Y13755D01*
X20879Y13749D01*
X20885Y13743D01*
X20879Y13736D01*
X20885Y13730D01*
X20879Y13724D01*
X20891Y13712D01*
X20885Y13705D01*
X20891Y13699D01*
X20885Y13693D01*
X20898Y13681D01*
X20891Y13675D01*
X20898Y13668D01*
X20891Y13662D01*
X20898Y13656D01*
X20891Y13650D01*
X20904Y13637D01*
X20898Y13631D01*
X20904Y13625D01*
X20898Y13619D01*
X20910Y13606D01*
X20904Y13600D01*
X20910Y13594D01*
X20904Y13588D01*
X20910Y13582D01*
X20904Y13576D01*
X20916Y13563D01*
X20910Y13557D01*
X20916Y13551D01*
X20910Y13545D01*
X20922Y13532D01*
X20916Y13526D01*
X20922Y13520D01*
X20916Y13514D01*
X20922Y13508D01*
X20916Y13501D01*
X20928Y13489D01*
X20922Y13483D01*
X20928Y13477D01*
X20922Y13470D01*
X20935Y13458D01*
X20928Y13452D01*
X20935Y13446D01*
X20928Y13439D01*
X20935Y13433D01*
X20928Y13427D01*
X20941Y13415D01*
X20935Y13409D01*
X20941Y13402D01*
X20935Y13396D01*
X20947Y13384D01*
X20941Y13378D01*
X20947Y13371D01*
X20941Y13365D01*
X20947Y13359D01*
X20941Y13353D01*
X20953Y13341D01*
X20947Y13334D01*
X20953Y13328D01*
X20947Y13322D01*
X20959Y13310D01*
X20953Y13303D01*
X20959Y13297D01*
X20953Y13291D01*
X20959Y13285D01*
X20953Y13279D01*
X20966Y13266D01*
X20959Y13260D01*
X20966Y13254D01*
X20959Y13248D01*
X20966Y13242D01*
X20959Y13235D01*
X20972Y13223D01*
X20966Y13217D01*
X20972Y13211D01*
X20966Y13204D01*
X20978Y13192D01*
X20972Y13186D01*
X20978Y13180D01*
X20972Y13174D01*
X20978Y13167D01*
X20972Y13161D01*
X20984Y13149D01*
X20978Y13143D01*
X20984Y13136D01*
X20978Y13130D01*
X20990Y13118D01*
X20984Y13112D01*
X20990Y13106D01*
X20984Y13099D01*
X20990Y13093D01*
X20984Y13087D01*
X20996Y13075D01*
X20990Y13068D01*
X20996Y13062D01*
X20990Y13056D01*
X21003Y13044D01*
X20996Y13038D01*
X21003Y13031D01*
X20996Y13025D01*
X21003Y13019D01*
X20996Y13013D01*
X21009Y13000D01*
X21003Y12994D01*
X21009Y12988D01*
X21003Y12982D01*
X21015Y12969D01*
X21009Y12963D01*
X21015Y12957D01*
X21009Y12951D01*
X21015Y12945D01*
X21009Y12939D01*
X21021Y12926D01*
X21015Y12920D01*
X21021Y12914D01*
X21015Y12908D01*
X21027Y12895D01*
X21021Y12889D01*
X21027Y12883D01*
X21021Y12877D01*
X21027Y12871D01*
X21021Y12864D01*
X21034Y12852D01*
X21027Y12846D01*
X21034Y12840D01*
X21027Y12833D01*
X21040Y12821D01*
X21034Y12815D01*
X21040Y12809D01*
X21034Y12803D01*
X21040Y12796D01*
X21034Y12790D01*
X21046Y12778D01*
X21040Y12772D01*
X21046Y12765D01*
X21040Y12759D01*
X21052Y12747D01*
X21046Y12741D01*
X21052Y12734D01*
X21046Y12728D01*
X21052Y12722D01*
X21046Y12716D01*
X21058Y12704D01*
X21052Y12697D01*
X21058Y12691D01*
X21052Y12685D01*
X21064Y12673D01*
X21058Y12666D01*
X21064Y12660D01*
X21058Y12654D01*
X21064Y12648D01*
X21058Y12642D01*
X21071Y12629D01*
X21064Y12623D01*
X21071Y12617D01*
X21064Y12611D01*
X21077Y12598D01*
X21071Y12592D01*
X21077Y12586D01*
X21071Y12580D01*
X21077Y12574D01*
X21071Y12568D01*
X21083Y12555D01*
X21077Y12549D01*
X21083Y12543D01*
X21077Y12537D01*
X21089Y12524D01*
X21083Y12518D01*
X21089Y12512D01*
X21083Y12506D01*
X21089Y12499D01*
X21083Y12493D01*
X21095Y12481D01*
X21089Y12475D01*
X21095Y12469D01*
X21089Y12462D01*
X21102Y12450D01*
X21095Y12444D01*
X21102Y12438D01*
X21095Y12431D01*
X21102Y12425D01*
X21095Y12419D01*
X21108Y12407D01*
X21102Y12401D01*
X21108Y12394D01*
X21102Y12388D01*
X21114Y12376D01*
X21108Y12370D01*
X21114Y12363D01*
X21108Y12357D01*
X21114Y12351D01*
X21108Y12345D01*
X21120Y12333D01*
X21114Y12326D01*
X21120Y12320D01*
X21114Y12314D01*
X21120Y12308D01*
X21114Y12302D01*
X21126Y12289D01*
X21120Y12283D01*
X21126Y12277D01*
X21120Y12271D01*
X21133Y12258D01*
X21126Y12252D01*
X21133Y12246D01*
X21126Y12240D01*
X21133Y12234D01*
X21126Y12227D01*
X21139Y12215D01*
X21133Y12209D01*
X21139Y12203D01*
X21133Y12196D01*
X21145Y12184D01*
X21139Y12178D01*
X21145Y12172D01*
X21139Y12166D01*
X21145Y12159D01*
X21139Y12153D01*
X21151Y12141D01*
X21145Y12135D01*
X21151Y12128D01*
X21145Y12122D01*
X21157Y12110D01*
X21151Y12104D01*
X21157Y12098D01*
X21151Y12091D01*
X21157Y12085D01*
X21151Y12079D01*
X21163Y12067D01*
X21157Y12060D01*
X21163Y12054D01*
X21157Y12048D01*
X21170Y12036D01*
X21163Y12029D01*
X21170Y12023D01*
X21163Y12017D01*
X21170Y12011D01*
X21163Y12005D01*
X21176Y11992D01*
X21170Y11986D01*
X21176Y11980D01*
X21170Y11974D01*
X21182Y11961D01*
X21176Y11955D01*
X21182Y11949D01*
X21176Y11943D01*
X21182Y11937D01*
X21176Y11931D01*
X21188Y11918D01*
X21182Y11912D01*
X21188Y11906D01*
X21182Y11900D01*
X21194Y11887D01*
X21188Y11881D01*
X21194Y11875D01*
X21188Y11869D01*
X21194Y11863D01*
X21188Y11856D01*
X21201Y11844D01*
X21194Y11838D01*
X21201Y11832D01*
X21194Y11825D01*
X21207Y11813D01*
X21201Y11807D01*
X21207Y11801D01*
X21201Y11794D01*
X21207Y11788D01*
X21201Y11782D01*
X21213Y11770D01*
X21207Y11764D01*
X21213Y11757D01*
X21207Y11751D01*
X21219Y11739D01*
X21213Y11733D01*
X21219Y11726D01*
X21213Y11720D01*
X21219Y11714D01*
X21213Y11708D01*
X21225Y11696D01*
X21219Y11689D01*
X21225Y11683D01*
X21219Y11677D01*
X21231Y11665D01*
X21225Y11658D01*
X21231Y11652D01*
X21225Y11646D01*
X21231Y11640D01*
X21225Y11634D01*
X21238Y11621D01*
X21231Y11615D01*
X21238Y11609D01*
X21231Y11603D01*
X21244Y11590D01*
X21238Y11584D01*
X21244Y11578D01*
X21238Y11572D01*
X21244Y11566D01*
X21238Y11559D01*
X21250Y11547D01*
X21244Y11541D01*
X21250Y11535D01*
X21244Y11529D01*
X21256Y11516D01*
X21250Y11510D01*
X21256Y11504D01*
X21250Y11498D01*
X21256Y11491D01*
X21250Y11485D01*
X21262Y11473D01*
X21256Y11467D01*
X21262Y11461D01*
X21256Y11454D01*
X21262Y11448D01*
X21256Y11442D01*
X21269Y11430D01*
X21262Y11423D01*
X21269Y11417D01*
X21262Y11411D01*
X21275Y11399D01*
X21269Y11393D01*
X21275Y11386D01*
X21269Y11380D01*
X21275Y11374D01*
X21269Y11368D01*
X21281Y11355D01*
X21275Y11349D01*
X21281Y11343D01*
X21275Y11337D01*
X21287Y11324D01*
X21281Y11318D01*
X21287Y11312D01*
X21281Y11306D01*
X21287Y11300D01*
X21281Y11294D01*
X21293Y11281D01*
X21287Y11275D01*
X21293Y11269D01*
X21287Y11263D01*
X21299Y11250D01*
X21293Y11244D01*
X21299Y11238D01*
X21293Y11232D01*
X21299Y11226D01*
X21293Y11219D01*
X21306Y11207D01*
X21299Y11201D01*
X21306Y11195D01*
X21299Y11188D01*
X21312Y11176D01*
X21306Y11170D01*
X21312Y11164D01*
X21306Y11158D01*
X21312Y11151D01*
X21306Y11145D01*
X21318Y11133D01*
X21312Y11127D01*
X21318Y11120D01*
X21312Y11114D01*
X21324Y11102D01*
X21318Y11096D01*
X21324Y11089D01*
X21318Y11083D01*
X21324Y11077D01*
X21318Y11071D01*
X21330Y11059D01*
X21324Y11052D01*
X21330Y11046D01*
X21324Y11040D01*
X21337Y11028D01*
X21330Y11021D01*
X21337Y11015D01*
X21330Y11009D01*
X21337Y11003D01*
X21330Y10997D01*
X21343Y10984D01*
X21337Y10978D01*
X21343Y10972D01*
X21337Y10966D01*
X21349Y10953D01*
X21343Y10947D01*
X21349Y10941D01*
X21343Y10935D01*
X21349Y10929D01*
X21343Y10923D01*
X21355Y10910D01*
X21349Y10904D01*
X21355Y10898D01*
X21349Y10892D01*
X21361Y10879D01*
X21355Y10873D01*
X21361Y10867D01*
X21355Y10861D01*
X21361Y10854D01*
X21355Y10848D01*
X21368Y10836D01*
X21361Y10830D01*
X21368Y10824D01*
X21361Y10817D01*
X21374Y10805D01*
X21368Y10799D01*
X21374Y10793D01*
X21368Y10786D01*
X21374Y10780D01*
X21368Y10774D01*
X21380Y10762D01*
X21374Y10756D01*
X21380Y10749D01*
X21374Y10743D01*
X21386Y10731D01*
X21380Y10725D01*
X21386Y10718D01*
X21380Y10712D01*
X21386Y10706D01*
X21380Y10700D01*
X21392Y10688D01*
X21386Y10681D01*
X21392Y10675D01*
X21386Y10669D01*
X21398Y10657D01*
X21392Y10650D01*
X21398Y10644D01*
X21392Y10638D01*
X21398Y10632D01*
X21392Y10626D01*
X21405Y10613D01*
X21398Y10607D01*
X21405Y10601D01*
X21398Y10595D01*
X21411Y10582D01*
X21405Y10576D01*
X21411Y10570D01*
X21405Y10564D01*
X21411Y10558D01*
X21405Y10551D01*
X21417Y10539D01*
X21411Y10533D01*
X21417Y10527D01*
X21411Y10521D01*
X21417Y10514D01*
X21411Y10508D01*
X21423Y10496D01*
X21417Y10490D01*
X21423Y10483D01*
X21417Y10477D01*
X21429Y10465D01*
X21423Y10459D01*
X21429Y10453D01*
X21423Y10446D01*
X21429Y10440D01*
X21423Y10434D01*
X21436Y10422D01*
X21429Y10415D01*
X21436Y10409D01*
X21429Y10403D01*
X21442Y10391D01*
X21436Y10384D01*
X21442Y10378D01*
X21436Y10372D01*
X21442Y10366D01*
X21436Y10360D01*
X21448Y10347D01*
X21442Y10341D01*
X21448Y10335D01*
X21442Y10329D01*
X21454Y10316D01*
X21448Y10310D01*
X21454Y10304D01*
X21448Y10298D01*
X21454Y10292D01*
X21448Y10286D01*
X21460Y10273D01*
X21454Y10267D01*
X21460Y10261D01*
X21454Y10255D01*
X21466Y10242D01*
X21460Y10236D01*
X21466Y10230D01*
X21460Y10224D01*
X21466Y10218D01*
X21460Y10211D01*
X21473Y10199D01*
X21466Y10193D01*
X21473Y10187D01*
X21466Y10180D01*
X21479Y10168D01*
X21473Y10162D01*
X21479Y10156D01*
X21473Y10149D01*
X21479Y10143D01*
X21473Y10137D01*
X21485Y10125D01*
X21479Y10119D01*
X21485Y10112D01*
X21479Y10106D01*
X21491Y10094D01*
X21485Y10088D01*
X21497Y10075D01*
X21504Y10081D01*
X21510Y10075D01*
X21516Y10081D01*
X21522Y10075D01*
X21528Y10081D01*
X21541Y10069D01*
X21547Y10075D01*
X21553Y10069D01*
X21559Y10075D01*
X21565Y10069D01*
X21572Y10075D01*
X21584Y10063D01*
X21590Y10069D01*
X21596Y10063D01*
X21603Y10069D01*
X21609Y10063D01*
X21615Y10069D01*
X21627Y10057D01*
X21633Y10063D01*
X21640Y10057D01*
X21646Y10063D01*
X21652Y10057D01*
X21658Y10063D01*
X21664Y10057D01*
X21671Y10063D01*
X21683Y10051D01*
X21689Y10057D01*
X21695Y10051D01*
X21701Y10057D01*
X21708Y10051D01*
X21714Y10057D01*
X21726Y10044D01*
X21732Y10051D01*
X21739Y10044D01*
X21745Y10051D01*
X21751Y10044D01*
X21757Y10051D01*
X21769Y10038D01*
X21776Y10044D01*
X21782Y10038D01*
X21788Y10044D01*
X21794Y10038D01*
X21800Y10044D01*
X21813Y10032D01*
X21819Y10038D01*
X21825Y10032D01*
X21831Y10038D01*
X21838Y10032D01*
X21844Y10038D01*
X21856Y10026D01*
X21862Y10032D01*
X21868Y10026D01*
X21875Y10032D01*
X21881Y10026D01*
X21887Y10032D01*
X21899Y10020D01*
X21906Y10026D01*
X21912Y10020D01*
X21918Y10026D01*
X21924Y10020D01*
X21930Y10026D01*
X21936Y10020D01*
X21943Y10026D01*
X21955Y10013D01*
X21961Y10020D01*
X21967Y10013D01*
X21974Y10020D01*
X21980Y10013D01*
X21986Y10020D01*
X21998Y10007D01*
X22004Y10013D01*
X22011Y10007D01*
X22017Y10013D01*
X22023Y10007D01*
X22029Y10013D01*
X22042Y10001D01*
X22048Y10007D01*
X22054Y10001D01*
X22060Y10007D01*
X22066Y10001D01*
X22073Y10007D01*
X22085Y9995D01*
X22091Y10001D01*
X22097Y9995D01*
X22103Y10001D01*
X22110Y9995D01*
X22116Y10001D01*
X22128Y9989D01*
X22134Y9995D01*
X22141Y9989D01*
X22147Y9995D01*
X22153Y9989D01*
X22159Y9995D01*
X22171Y9983D01*
X22178Y9989D01*
X22184Y9983D01*
X22190Y9989D01*
X22196Y9983D01*
X22202Y9989D01*
X22215Y9976D01*
X22221Y9983D01*
X22227Y9976D01*
X22233Y9983D01*
X22240Y9976D01*
X22246Y9983D01*
X22252Y9976D01*
X22258Y9983D01*
X22270Y9970D01*
X22277Y9976D01*
X22283Y9970D01*
X22289Y9976D01*
X22295Y9970D01*
X22301Y9976D01*
X22314Y9964D01*
X22320Y9970D01*
X22326Y9964D01*
X22332Y9970D01*
X22338Y9964D01*
X22345Y9970D01*
X22357Y9958D01*
X22363Y9964D01*
X22369Y9958D01*
X22376Y9964D01*
X22382Y9958D01*
X22388Y9964D01*
X22400Y9952D01*
X22406Y9958D01*
X22413Y9952D01*
X22419Y9958D01*
X22425Y9952D01*
X22431Y9958D01*
X22444Y9945D01*
X22450Y9952D01*
X22456Y9945D01*
X22462Y9952D01*
X22468Y9945D01*
X22475Y9952D01*
X22487Y9939D01*
X22493Y9945D01*
X22499Y9939D01*
X22505Y9945D01*
X22512Y9939D01*
X22518Y9945D01*
X22524Y9939D01*
X22530Y9945D01*
X22543Y9933D01*
X22549Y9939D01*
X22555Y9933D01*
X22561Y9939D01*
X22567Y9933D01*
X22573Y9939D01*
X22586Y9927D01*
X22592Y9933D01*
X22598Y9927D01*
X22604Y9933D01*
X22611Y9927D01*
X22617Y9933D01*
X22629Y9921D01*
X22635Y9927D01*
X22641Y9921D01*
X22648Y9927D01*
X22654Y9921D01*
X22660Y9927D01*
X22672Y9914D01*
X22679Y9921D01*
X22685Y9914D01*
X22691Y9921D01*
X22697Y9914D01*
X22703Y9921D01*
X22716Y9908D01*
X22722Y9914D01*
X22728Y9908D01*
X22734Y9914D01*
X22740Y9908D01*
X22747Y9914D01*
X22759Y9902D01*
X22765Y9908D01*
X22771Y9902D01*
X22778Y9908D01*
X22784Y9902D01*
X22790Y9908D01*
X22796Y9902D01*
X22802Y9908D01*
X22815Y9896D01*
X22821Y9902D01*
X22827Y9896D01*
X22833Y9902D01*
X22839Y9896D01*
X22846Y9902D01*
X22858Y9890D01*
X22864Y9896D01*
X22870Y9890D01*
X22876Y9896D01*
X22883Y9890D01*
X22889Y9896D01*
X22901Y9884D01*
X22907Y9890D01*
X22914Y9884D01*
X22920Y9890D01*
X22926Y9884D01*
X22932Y9890D01*
X22944Y9877D01*
X22951Y9884D01*
X22957Y9877D01*
X22963Y9884D01*
X22969Y9877D01*
X22975Y9884D01*
X22988Y9871D01*
X22994Y9877D01*
X23000Y9871D01*
X23006Y9877D01*
X23013Y9871D01*
X23019Y9877D01*
X23031Y9865D01*
X23037Y9871D01*
X23043Y9865D01*
X23050Y9871D01*
X23056Y9865D01*
X23062Y9871D01*
X23068Y9865D01*
X23074Y9871D01*
X23087Y9859D01*
X23093Y9865D01*
X23099Y9859D01*
X23105Y9865D01*
X23111Y9859D01*
X23118Y9865D01*
X23130Y9853D01*
X23136Y9859D01*
X23142Y9853D01*
X23149Y9859D01*
X23155Y9853D01*
X23161Y9859D01*
X23173Y9846D01*
X23180Y9853D01*
X23186Y9846D01*
X23192Y9853D01*
X23198Y9846D01*
X23204Y9853D01*
X23217Y9840D01*
X23223Y9846D01*
X23229Y9840D01*
X23235Y9846D01*
X23241Y9840D01*
X23248Y9846D01*
X23260Y9834D01*
X23266Y9840D01*
X23272Y9834D01*
X23278Y9840D01*
X23285Y9834D01*
X23291Y9840D01*
X23303Y9828D01*
X23309Y9834D01*
X23316Y9828D01*
X23322Y9834D01*
X23328Y9828D01*
X23334Y9834D01*
X23346Y9822D01*
X23353Y9828D01*
X23359Y9822D01*
X23365Y9828D01*
X23371Y9822D01*
X23377Y9828D01*
X23384Y9822D01*
X23390Y9828D01*
X23402Y9816D01*
X23408Y9822D01*
X23414Y9816D01*
X23421Y9822D01*
X23427Y9816D01*
X23433Y9822D01*
X23445Y9809D01*
X23452Y9816D01*
X23458Y9809D01*
X23464Y9816D01*
X23470Y9809D01*
X23476Y9816D01*
X23489Y9803D01*
X23495Y9809D01*
X23501Y9803D01*
X23507Y9809D01*
X23513Y9803D01*
X23520Y9809D01*
X23532Y9797D01*
X23538Y9803D01*
X23544Y9797D01*
X23551Y9803D01*
X23557Y9797D01*
X23563Y9803D01*
X23575Y9791D01*
X23581Y9797D01*
X23588Y9791D01*
X23594Y9797D01*
X23600Y9791D01*
X23606Y9797D01*
X23619Y9785D01*
X23625Y9791D01*
X23631Y9785D01*
X23637Y9791D01*
X23643Y9785D01*
X23649Y9791D01*
X23656Y9785D01*
X23662Y9791D01*
X23674Y9778D01*
X23680Y9785D01*
X23687Y9778D01*
X23693Y9785D01*
X23699Y9778D01*
X23705Y9785D01*
X23718Y9772D01*
X23724Y9778D01*
X23730Y9772D01*
X23736Y9778D01*
X23742Y9772D01*
X23748Y9778D01*
X23761Y9766D01*
X23767Y9772D01*
X23773Y9766D01*
X23779Y9772D01*
X23786Y9766D01*
X23792Y9772D01*
X23804Y9760D01*
X23810Y9766D01*
X23816Y9760D01*
X23823Y9766D01*
X23829Y9760D01*
X23835Y9766D01*
X23847Y9754D01*
X23854Y9760D01*
X23860Y9754D01*
X23866Y9760D01*
X23872Y9754D01*
X23878Y9760D01*
X23891Y9748D01*
X23897Y9754D01*
X23903Y9748D01*
X23909Y9754D01*
X23915Y9748D01*
X23922Y9754D01*
X23928Y9748D01*
X23934Y9754D01*
X23946Y9741D01*
X23953Y9748D01*
X23959Y9741D01*
X23965Y9748D01*
X23971Y9741D01*
X23977Y9748D01*
X23990Y9735D01*
X23996Y9741D01*
X24002Y9735D01*
X24008Y9741D01*
X24014Y9735D01*
X24021Y9741D01*
X24033Y9729D01*
X24039Y9735D01*
X24045Y9729D01*
X24051Y9735D01*
X24058Y9729D01*
X24064Y9735D01*
X24076Y9723D01*
X24082Y9729D01*
X24089Y9723D01*
X24095Y9729D01*
X24101Y9723D01*
X24107Y9729D01*
X24119Y9717D01*
X24126Y9723D01*
X24132Y9717D01*
X24138Y9723D01*
X24144Y9717D01*
X24150Y9723D01*
X24163Y9710D01*
X24169Y9717D01*
X24175Y9710D01*
X24181Y9717D01*
X24188Y9710D01*
X24194Y9717D01*
X24200Y9710D01*
X24206Y9717D01*
X24218Y9704D01*
X24225Y9710D01*
X24231Y9704D01*
X24237Y9710D01*
X24243Y9704D01*
X24249Y9710D01*
X24262Y9698D01*
X24268Y9704D01*
X24274Y9698D01*
X24280Y9704D01*
X24286Y9698D01*
X24293Y9704D01*
X24305Y9692D01*
X24311Y9698D01*
X24317Y9692D01*
X24324Y9698D01*
X24330Y9692D01*
X24336Y9698D01*
X24348Y9686D01*
X24355Y9692D01*
X24361Y9686D01*
X24367Y9692D01*
X24373Y9686D01*
X24385Y9698D01*
X24379Y9704D01*
X24392Y9717D01*
X24385Y9723D01*
X24398Y9735D01*
X24392Y9741D01*
X24404Y9754D01*
X24398Y9760D01*
X24404Y9766D01*
X24398Y9772D01*
X24410Y9785D01*
X24404Y9791D01*
X24416Y9803D01*
X24410Y9809D01*
X24416Y9816D01*
X24410Y9822D01*
X24423Y9834D01*
X24416Y9840D01*
X24423Y9846D01*
X24416Y9853D01*
X24423Y9859D01*
X24416Y9865D01*
X24429Y9877D01*
X24423Y9884D01*
X24429Y9890D01*
X24423Y9896D01*
X24429Y9902D01*
X24423Y9908D01*
X24435Y9921D01*
X24429Y9927D01*
X24435Y9933D01*
X24429Y9939D01*
X24435Y9945D01*
X24429Y9952D01*
X24435Y9958D01*
X24429Y9964D01*
X24441Y9976D01*
X24435Y9983D01*
X24441Y9989D01*
X24435Y9995D01*
X24441Y10001D01*
X24435Y10007D01*
X24441Y10013D01*
X24435Y10020D01*
X24447Y10032D01*
X24441Y10038D01*
X24447Y10044D01*
X24441Y10051D01*
X24447Y10057D01*
X24441Y10063D01*
X24453Y10075D01*
X24447Y10081D01*
X24453Y10088D01*
X24447Y10094D01*
X24453Y10100D01*
X24447Y10106D01*
X24453Y10112D01*
X24447Y10119D01*
X24453Y10125D01*
X24447Y10131D01*
X24460Y10143D01*
X24453Y10149D01*
X24460Y10156D01*
X24453Y10162D01*
X24460Y10168D01*
X24453Y10174D01*
X24460Y10180D01*
X24453Y10187D01*
X24466Y10199D01*
X24460Y10205D01*
X24466Y10211D01*
X24460Y10218D01*
X24466Y10224D01*
X24460Y10230D01*
X24466Y10236D01*
X24460Y10242D01*
X24472Y10255D01*
X24466Y10261D01*
X24472Y10267D01*
X24466Y10273D01*
X24472Y10279D01*
X24466Y10286D01*
X24472Y10292D01*
X24466Y10298D01*
X24472Y10304D01*
X24466Y10310D01*
X24478Y10323D01*
X24472Y10329D01*
X24478Y10335D01*
X24472Y10341D01*
X24478Y10347D01*
X24472Y10354D01*
X24478Y10360D01*
X24472Y10366D01*
X24484Y10378D01*
X24478Y10384D01*
X24484Y10391D01*
X24478Y10397D01*
X24484Y10403D01*
X24478Y10409D01*
X24484Y10415D01*
X24478Y10422D01*
X24484Y10428D01*
X24478Y10434D01*
X24491Y10446D01*
X24484Y10453D01*
X24491Y10459D01*
X24484Y10465D01*
X24491Y10471D01*
X24484Y10477D01*
X24491Y10483D01*
X24484Y10490D01*
X24491Y10496D01*
X24484Y10502D01*
X24497Y10514D01*
X24491Y10521D01*
X24497Y10527D01*
X24491Y10533D01*
X24497Y10539D01*
X24491Y10545D01*
X24497Y10551D01*
X24491Y10558D01*
X24497Y10564D01*
X24491Y10570D01*
X24503Y10582D01*
X24497Y10589D01*
X24503Y10595D01*
X24497Y10601D01*
X24503Y10607D01*
X24497Y10613D01*
X24503Y10619D01*
X24497Y10626D01*
X24503Y10632D01*
X24497Y10638D01*
X24509Y10650D01*
X24503Y10657D01*
X24509Y10663D01*
X24503Y10669D01*
X24509Y10675D01*
X24503Y10681D01*
X24509Y10688D01*
X24503Y10694D01*
X24509Y10700D01*
X24503Y10706D01*
X24515Y10718D01*
X24509Y10725D01*
X24515Y10731D01*
X24509Y10737D01*
X24515Y10743D01*
X24509Y10749D01*
X24515Y10756D01*
X24509Y10762D01*
X24515Y10768D01*
X24509Y10774D01*
X24521Y10786D01*
X24515Y10793D01*
X24521Y10799D01*
X24515Y10805D01*
X24521Y10811D01*
X24515Y10817D01*
X24521Y10824D01*
X24515Y10830D01*
X24528Y10842D01*
X24521Y10848D01*
X24528Y10854D01*
X24521Y10861D01*
X24528Y10867D01*
X24521Y10873D01*
X24528Y10879D01*
X24521Y10885D01*
X24528Y10892D01*
X24521Y10898D01*
X24534Y10910D01*
X24528Y10916D01*
X24534Y10923D01*
X24528Y10929D01*
X24534Y10935D01*
X24528Y10941D01*
X24534Y10947D01*
X24528Y10953D01*
X24540Y10966D01*
X24534Y10972D01*
X24540Y10978D01*
X24534Y10984D01*
X24540Y10991D01*
X24534Y10997D01*
X24540Y11003D01*
X24534Y11009D01*
X24546Y11021D01*
X24540Y11028D01*
X24546Y11034D01*
X24540Y11040D01*
X24546Y11046D01*
X24540Y11052D01*
X24546Y11059D01*
X24540Y11065D01*
X24552Y11077D01*
X24546Y11083D01*
X24552Y11089D01*
X24546Y11096D01*
X24552Y11102D01*
X24546Y11108D01*
X24559Y11120D01*
X24552Y11127D01*
X24559Y11133D01*
X24552Y11139D01*
X24559Y11145D01*
X24552Y11151D01*
X24559Y11158D01*
X24552Y11164D01*
X24565Y11176D01*
X24559Y11182D01*
X24565Y11188D01*
X24559Y11195D01*
X24565Y11201D01*
X24559Y11207D01*
X24571Y11219D01*
X24565Y11226D01*
X24571Y11232D01*
X24565Y11238D01*
X24571Y11244D01*
X24565Y11250D01*
X24577Y11263D01*
X24571Y11269D01*
X24577Y11275D01*
X24571Y11281D01*
X24577Y11287D01*
X24571Y11294D01*
X24583Y11306D01*
X24577Y11312D01*
X24583Y11318D01*
X24577Y11324D01*
X24583Y11331D01*
X24577Y11337D01*
X24590Y11349D01*
X24583Y11355D01*
X24590Y11362D01*
X24583Y11368D01*
X24596Y11380D01*
X24590Y11386D01*
X24596Y11393D01*
X24590Y11399D01*
X24602Y11411D01*
X24596Y11417D01*
X24602Y11423D01*
X24596Y11430D01*
X24614Y11448D01*
X24608Y11454D01*
X24627Y11473D01*
X24633Y11467D01*
X24651Y11485D01*
X24658Y11479D01*
X24670Y11491D01*
X24676Y11485D01*
X24688Y11498D01*
X24695Y11491D01*
X24701Y11498D01*
X24707Y11491D01*
X24719Y11504D01*
X24726Y11498D01*
X24732Y11504D01*
X24738Y11498D01*
X24744Y11504D01*
X24750Y11498D01*
X24756Y11504D01*
X24763Y11498D01*
X24775Y11510D01*
X24781Y11504D01*
X24787Y11510D01*
X24794Y11504D01*
X24800Y11510D01*
X24806Y11504D01*
X24812Y11510D01*
X24818Y11504D01*
X24825Y11510D01*
X24831Y11504D01*
X24837Y11510D01*
X24843Y11504D01*
X24849Y11510D01*
X24855Y11504D01*
X24862Y11510D01*
X24868Y11504D01*
X24874Y11510D01*
X24880Y11504D01*
X24886Y11510D01*
X24893Y11504D01*
X24899Y11510D01*
X24905Y11504D01*
X24911Y11510D01*
X24917Y11504D01*
X24923Y11510D01*
X24930Y11504D01*
X24936Y11510D01*
X24942Y11504D01*
X24948Y11510D01*
X24954Y11504D01*
X24961Y11510D01*
X24973Y11498D01*
X24979Y11504D01*
X24985Y11498D01*
X24991Y11504D01*
X24998Y11498D01*
X25004Y11504D01*
X25010Y11498D01*
X25016Y11504D01*
X25022Y11498D01*
X25029Y11504D01*
X25041Y11491D01*
X25047Y11498D01*
X25053Y11491D01*
X25060Y11498D01*
X25066Y11491D01*
X25072Y11498D01*
X25078Y11491D01*
X25084Y11498D01*
X25097Y11485D01*
X25103Y11491D01*
X25109Y11485D01*
X25115Y11491D01*
X25121Y11485D01*
X25128Y11491D01*
X25140Y11479D01*
X25146Y11485D01*
X25152Y11479D01*
X25158Y11485D01*
X25165Y11479D01*
X25171Y11485D01*
X25183Y11473D01*
X25189Y11479D01*
X25196Y11473D01*
X25202Y11479D01*
X25214Y11467D01*
X25220Y11473D01*
X25226Y11467D01*
X25233Y11473D01*
X25245Y11461D01*
X25251Y11467D01*
X25264Y11454D01*
X25270Y11461D01*
X25276Y11454D01*
X25282Y11461D01*
X25295Y11448D01*
X25301Y11454D01*
X25313Y11442D01*
X25319Y11448D01*
X25332Y11436D01*
X25338Y11442D01*
X25350Y11430D01*
X25356Y11436D01*
X25369Y11423D01*
X25375Y11430D01*
X25387Y11417D01*
X25393Y11423D01*
X25418Y11399D01*
X25424Y11405D01*
X25461Y11368D01*
X25455Y11362D01*
X25461Y11355D01*
X25455Y11349D01*
X25461Y11343D01*
X25455Y11337D01*
X25461Y11331D01*
X25455Y11324D01*
X25461Y11318D01*
X25455Y11312D01*
X25468Y11300D01*
X25461Y11294D01*
X25468Y11287D01*
X25461Y11281D01*
X25468Y11275D01*
X25461Y11269D01*
X25468Y11263D01*
X25461Y11256D01*
X25468Y11250D01*
X25461Y11244D01*
X25468Y11238D01*
X25461Y11232D01*
X25474Y11219D01*
X25468Y11213D01*
X25474Y11207D01*
X25468Y11201D01*
X25474Y11195D01*
X25468Y11188D01*
X25474Y11182D01*
X25468Y11176D01*
X25474Y11170D01*
X25468Y11164D01*
X25474Y11158D01*
X25468Y11151D01*
X25480Y11139D01*
X25474Y11133D01*
X25480Y11127D01*
X25474Y11120D01*
X25480Y11114D01*
X25474Y11108D01*
X25480Y11102D01*
X25474Y11096D01*
X25486Y11083D01*
X25480Y11077D01*
X25486Y11071D01*
X25480Y11065D01*
X25486Y11059D01*
X25480Y11052D01*
X25486Y11046D01*
X25480Y11040D01*
X25492Y11028D01*
X25486Y11021D01*
X25492Y11015D01*
X25486Y11009D01*
X25492Y11003D01*
X25486Y10997D01*
X25492Y10991D01*
X25486Y10984D01*
X25499Y10972D01*
X25492Y10966D01*
X25499Y10960D01*
X25492Y10953D01*
X25499Y10947D01*
X25492Y10941D01*
X25499Y10935D01*
X25492Y10929D01*
X25505Y10916D01*
X25499Y10910D01*
X25505Y10904D01*
X25499Y10898D01*
X25505Y10892D01*
X25499Y10885D01*
X25511Y10873D01*
X25505Y10867D01*
X25511Y10861D01*
X25505Y10854D01*
X25511Y10848D01*
X25505Y10842D01*
X25511Y10836D01*
X25505Y10830D01*
X25517Y10817D01*
X25511Y10811D01*
X25517Y10805D01*
X25511Y10799D01*
X25517Y10793D01*
X25511Y10786D01*
X25523Y10774D01*
X25517Y10768D01*
X25523Y10762D01*
X25517Y10756D01*
X25523Y10749D01*
X25517Y10743D01*
X25530Y10731D01*
X25523Y10725D01*
X25530Y10718D01*
X25523Y10712D01*
X25530Y10706D01*
X25523Y10700D01*
X25536Y10688D01*
X25530Y10681D01*
X25536Y10675D01*
X25530Y10669D01*
X25536Y10663D01*
X25530Y10657D01*
X25542Y10644D01*
X25536Y10638D01*
X25542Y10632D01*
X25536Y10626D01*
X25542Y10619D01*
X25536Y10613D01*
X25548Y10601D01*
X25542Y10595D01*
X25548Y10589D01*
X25542Y10582D01*
X25554Y10570D01*
X25548Y10564D01*
X25554Y10558D01*
X25548Y10551D01*
X25554Y10545D01*
X25548Y10539D01*
X25560Y10527D01*
X25554Y10521D01*
X25560Y10514D01*
X25554Y10508D01*
X25567Y10496D01*
X25560Y10490D01*
X25567Y10483D01*
X25560Y10477D01*
X25573Y10465D01*
X25567Y10459D01*
X25573Y10453D01*
X25567Y10446D01*
X25579Y10434D01*
X25573Y10428D01*
X25579Y10422D01*
X25573Y10415D01*
X25585Y10403D01*
X25579Y10397D01*
X25591Y10384D01*
X25585Y10378D01*
X25598Y10366D01*
X25591Y10360D01*
X25604Y10347D01*
X25598Y10341D01*
X25610Y10329D01*
X25604Y10323D01*
X25610Y10316D01*
X25604Y10310D01*
X25616Y10298D01*
X25610Y10292D01*
X25616Y10286D01*
X25610Y10279D01*
X25622Y10267D01*
X25616Y10261D01*
X25622Y10255D01*
X25616Y10248D01*
X25622Y10242D01*
X25616Y10236D01*
X25628Y10224D01*
X25622Y10218D01*
X25628Y10211D01*
X25622Y10205D01*
X25628Y10199D01*
X25622Y10193D01*
X25635Y10180D01*
X25628Y10174D01*
X25635Y10168D01*
X25628Y10162D01*
X25635Y10156D01*
X25628Y10149D01*
X25641Y10137D01*
X25635Y10131D01*
X25641Y10125D01*
X25635Y10119D01*
X25641Y10112D01*
X25635Y10106D01*
X25647Y10094D01*
X25641Y10088D01*
X25647Y10081D01*
X25641Y10075D01*
X25647Y10069D01*
X25641Y10063D01*
X25653Y10051D01*
X25647Y10044D01*
X25653Y10038D01*
X25647Y10032D01*
X25653Y10026D01*
X25647Y10020D01*
X25659Y10007D01*
X25653Y10001D01*
X25659Y9995D01*
X25653Y9989D01*
X25659Y9983D01*
X25653Y9976D01*
X25659Y9970D01*
X25653Y9964D01*
X25666Y9952D01*
X25659Y9945D01*
X25666Y9939D01*
X25659Y9933D01*
X25666Y9927D01*
X25659Y9921D01*
X25666Y9914D01*
X25659Y9908D01*
X25672Y9896D01*
X25666Y9890D01*
X25672Y9884D01*
X25666Y9877D01*
X25672Y9871D01*
X25666Y9865D01*
X25678Y9853D01*
X25672Y9846D01*
X25678Y9840D01*
X25672Y9834D01*
X25678Y9828D01*
X25672Y9822D01*
X25678Y9816D01*
X25672Y9809D01*
X25678Y9803D01*
X25672Y9797D01*
X25684Y9785D01*
X25678Y9778D01*
X25684Y9772D01*
X25678Y9766D01*
X25684Y9760D01*
X25678Y9754D01*
X25684Y9748D01*
X25678Y9741D01*
X25690Y9729D01*
X25684Y9723D01*
X25690Y9717D01*
X25684Y9710D01*
X25690Y9704D01*
X25684Y9698D01*
X25690Y9692D01*
X25684Y9686D01*
X25690Y9679D01*
X25684Y9673D01*
X25690Y9667D01*
X25684Y9661D01*
X25696Y9649D01*
X25690Y9642D01*
X25696Y9636D01*
X25690Y9630D01*
X25696Y9624D01*
X25690Y9618D01*
X25696Y9611D01*
X25690Y9605D01*
X25696Y9599D01*
X25690Y9593D01*
X25696Y9587D01*
X25690Y9581D01*
X25703Y9568D01*
X25696Y9562D01*
X25703Y9556D01*
X25696Y9550D01*
X25703Y9543D01*
X25696Y9537D01*
X25703Y9531D01*
X25696Y9525D01*
X25703Y9519D01*
X25696Y9512D01*
X25703Y9506D01*
X25696Y9500D01*
X25703Y9494D01*
X25696Y9488D01*
X25703Y9482D01*
X25696Y9475D01*
X25703Y9469D01*
X25696Y9463D01*
X25703Y9457D01*
X25696Y9451D01*
X25703Y9444D01*
X25696Y9438D01*
X25703Y9432D01*
X25696Y9426D01*
X25703Y9420D01*
X25696Y9414D01*
X25703Y9407D01*
X25696Y9401D01*
X25703Y9395D01*
X25696Y9389D01*
X25703Y9383D01*
X25696Y9376D01*
X25703Y9370D01*
X25690Y9358D01*
X25696Y9352D01*
X25690Y9346D01*
X25696Y9339D01*
X25690Y9333D01*
X25696Y9327D01*
X25690Y9321D01*
X25696Y9315D01*
X25690Y9308D01*
X25696Y9302D01*
X25690Y9296D01*
X25696Y9290D01*
X25690Y9284D01*
X25696Y9278D01*
X25684Y9265D01*
X25690Y9259D01*
X25684Y9253D01*
X25690Y9247D01*
X25684Y9240D01*
X25690Y9234D01*
X25684Y9228D01*
X25690Y9222D01*
X25684Y9216D01*
X25690Y9209D01*
X25678Y9197D01*
X25684Y9191D01*
X25678Y9185D01*
X25684Y9179D01*
X25678Y9172D01*
X25684Y9166D01*
X25678Y9160D01*
X25684Y9154D01*
X25678Y9148D01*
X25684Y9141D01*
X25672Y9129D01*
X25678Y9123D01*
X25672Y9117D01*
X25678Y9111D01*
X25672Y9104D01*
X25678Y9098D01*
X25672Y9092D01*
X25678Y9086D01*
X25666Y9073D01*
X25672Y9067D01*
X25666Y9061D01*
X25672Y9055D01*
X25666Y9049D01*
X25672Y9042D01*
X25666Y9036D01*
X25672Y9030D01*
X25659Y9018D01*
X25666Y9012D01*
X25659Y9005D01*
X25666Y8999D01*
X25659Y8993D01*
X25666Y8987D01*
X25653Y8974D01*
X25659Y8968D01*
X25653Y8962D01*
X25659Y8956D01*
X25653Y8950D01*
X25659Y8944D01*
X25653Y8937D01*
X25659Y8931D01*
X25647Y8919D01*
X25653Y8913D01*
X25647Y8906D01*
X25653Y8900D01*
X25647Y8894D01*
X25653Y8888D01*
X25647Y8882D01*
X25653Y8876D01*
X25641Y8863D01*
X25647Y8857D01*
X25641Y8851D01*
X25647Y8845D01*
X25641Y8838D01*
X25647Y8832D01*
X25635Y8820D01*
X25641Y8814D01*
X25635Y8807D01*
X25641Y8801D01*
X25635Y8795D01*
X25641Y8789D01*
X25628Y8777D01*
X25635Y8770D01*
X25628Y8764D01*
X25635Y8758D01*
X25628Y8752D01*
X25635Y8746D01*
X25622Y8733D01*
X25628Y8727D01*
X25622Y8721D01*
X25628Y8715D01*
X25616Y8702D01*
X25622Y8696D01*
X25616Y8690D01*
X25622Y8684D01*
X25616Y8678D01*
X25622Y8671D01*
X25610Y8659D01*
X25616Y8653D01*
X25610Y8647D01*
X25616Y8641D01*
X25604Y8628D01*
X25610Y8622D01*
X25604Y8616D01*
X25610Y8610D01*
X25598Y8597D01*
X25604Y8591D01*
X25598Y8585D01*
X25604Y8579D01*
X25591Y8566D01*
X25598Y8560D01*
X25579Y8542D01*
X25585Y8535D01*
X25579Y8529D01*
X25585Y8523D01*
X25573Y8511D01*
X25579Y8504D01*
X25567Y8492D01*
X25573Y8486D01*
X25567Y8480D01*
X25573Y8474D01*
X25560Y8461D01*
X25567Y8455D01*
X25560Y8449D01*
X25567Y8443D01*
X25554Y8430D01*
X25560Y8424D01*
X25554Y8418D01*
X25560Y8412D01*
X25554Y8406D01*
X25560Y8399D01*
X25548Y8387D01*
X25554Y8381D01*
X25548Y8375D01*
X25554Y8368D01*
X25542Y8356D01*
X25548Y8350D01*
X25542Y8344D01*
X25548Y8337D01*
X25542Y8331D01*
X25548Y8325D01*
X25536Y8313D01*
X25542Y8307D01*
X25536Y8300D01*
X25542Y8294D01*
X25530Y8282D01*
X25536Y8276D01*
X25530Y8269D01*
X25536Y8263D01*
X25530Y8257D01*
X25536Y8251D01*
X25523Y8239D01*
X25530Y8232D01*
X25523Y8226D01*
X25530Y8220D01*
X25523Y8214D01*
X25530Y8208D01*
X25523Y8201D01*
X25530Y8195D01*
X25517Y8183D01*
X25523Y8177D01*
X25517Y8171D01*
X25523Y8164D01*
X25517Y8158D01*
X25523Y8152D01*
X25511Y8140D01*
X25517Y8133D01*
X25511Y8127D01*
X25517Y8121D01*
X25511Y8115D01*
X25517Y8109D01*
X25505Y8096D01*
X25511Y8090D01*
X25505Y8084D01*
X25511Y8078D01*
X25505Y8072D01*
X25511Y8065D01*
X25499Y8053D01*
X25505Y8047D01*
X25499Y8041D01*
X25505Y8034D01*
X25499Y8028D01*
X25505Y8022D01*
X25499Y8016D01*
X25505Y8010D01*
X25492Y7997D01*
X25499Y7991D01*
X25492Y7985D01*
X25499Y7979D01*
X25492Y7973D01*
X25499Y7966D01*
X25486Y7954D01*
X25492Y7948D01*
X25486Y7942D01*
X25492Y7936D01*
X25486Y7929D01*
X25492Y7923D01*
X25486Y7917D01*
X25492Y7911D01*
X25480Y7898D01*
X25486Y7892D01*
X25480Y7886D01*
X25486Y7880D01*
X25480Y7874D01*
X25486Y7867D01*
X25480Y7861D01*
X25486Y7855D01*
X25474Y7843D01*
X25480Y7837D01*
X25474Y7830D01*
X25480Y7824D01*
X25474Y7818D01*
X25480Y7812D01*
X25474Y7806D01*
X25480Y7799D01*
X25474Y7793D01*
X25480Y7787D01*
X25468Y7775D01*
X25474Y7769D01*
X25468Y7762D01*
X25474Y7756D01*
X25468Y7750D01*
X25474Y7744D01*
X25468Y7738D01*
X25474Y7731D01*
X25468Y7725D01*
X25474Y7719D01*
X25461Y7707D01*
X25468Y7701D01*
X25461Y7694D01*
X25468Y7688D01*
X25461Y7682D01*
X25468Y7676D01*
X25461Y7670D01*
X25468Y7663D01*
X25461Y7657D01*
X25468Y7651D01*
X25461Y7645D01*
X25468Y7639D01*
X25461Y7632D01*
X25468Y7626D01*
X25455Y7614D01*
X25461Y7608D01*
X25455Y7602D01*
X25461Y7595D01*
X25455Y7589D01*
X25461Y7583D01*
X25455Y7577D01*
X25461Y7571D01*
X25412Y7521D01*
X25406Y7527D01*
X25387Y7509D01*
X25381Y7515D01*
X25369Y7503D01*
X25363Y7509D01*
X25350Y7496D01*
X25344Y7503D01*
X25332Y7490D01*
X25325Y7496D01*
X25313Y7484D01*
X25307Y7490D01*
X25295Y7478D01*
X25288Y7484D01*
X25276Y7472D01*
X25270Y7478D01*
X25264Y7472D01*
X25257Y7478D01*
X25245Y7466D01*
X25239Y7472D01*
X25233Y7466D01*
X25226Y7472D01*
X25214Y7459D01*
X25208Y7466D01*
X25202Y7459D01*
X25196Y7466D01*
X25183Y7453D01*
X25177Y7459D01*
X25171Y7453D01*
X25165Y7459D01*
X25152Y7447D01*
X25146Y7453D01*
X25140Y7447D01*
X25134Y7453D01*
X25128Y7447D01*
X25121Y7453D01*
X25109Y7441D01*
X25103Y7447D01*
X25097Y7441D01*
X25090Y7447D01*
X25084Y7441D01*
X25078Y7447D01*
X25066Y7435D01*
X25060Y7441D01*
X25053Y7435D01*
X25047Y7441D01*
X25041Y7435D01*
X25035Y7441D01*
X25029Y7435D01*
X25022Y7441D01*
X25016Y7435D01*
X25010Y7441D01*
X24998Y7428D01*
X24991Y7435D01*
X24985Y7428D01*
X24979Y7435D01*
X24973Y7428D01*
X24967Y7435D01*
X24961Y7428D01*
X24954Y7435D01*
X24948Y7428D01*
X24942Y7435D01*
X24936Y7428D01*
X24930Y7435D01*
X24923Y7428D01*
X24917Y7435D01*
X24911Y7428D01*
X24905Y7435D01*
X24893Y7422D01*
X24886Y7428D01*
X24880Y7422D01*
X24874Y7428D01*
X24868Y7422D01*
X24862Y7428D01*
X24855Y7422D01*
X24849Y7428D01*
X24843Y7422D01*
X24837Y7428D01*
X24831Y7422D01*
X24818Y7435D01*
X24812Y7428D01*
X24806Y7435D01*
X24800Y7428D01*
X24794Y7435D01*
X24787Y7428D01*
X24781Y7435D01*
X24775Y7428D01*
X24769Y7435D01*
X24763Y7428D01*
X24756Y7435D01*
X24750Y7428D01*
X24738Y7441D01*
X24732Y7435D01*
X24726Y7441D01*
X24719Y7435D01*
X24713Y7441D01*
X24707Y7435D01*
X24695Y7447D01*
X24688Y7441D01*
X24682Y7447D01*
X24676Y7441D01*
X24664Y7453D01*
X24658Y7447D01*
X24639Y7466D01*
X24633Y7459D01*
X24602Y7490D01*
X24608Y7496D01*
X24596Y7509D01*
X24602Y7515D01*
X24596Y7521D01*
X24602Y7527D01*
X24590Y7540D01*
X24596Y7546D01*
X24590Y7552D01*
X24596Y7558D01*
X24583Y7571D01*
X24590Y7577D01*
X24583Y7583D01*
X24590Y7589D01*
X24577Y7602D01*
X24583Y7608D01*
X24577Y7614D01*
X24583Y7620D01*
X24577Y7626D01*
X24583Y7632D01*
X24571Y7645D01*
X24577Y7651D01*
X24571Y7657D01*
X24577Y7663D01*
X24565Y7676D01*
X24571Y7682D01*
X24565Y7688D01*
X24571Y7694D01*
X24565Y7701D01*
X24571Y7707D01*
X24559Y7719D01*
X24565Y7725D01*
X24559Y7731D01*
X24565Y7738D01*
X24559Y7744D01*
X24565Y7750D01*
X24559Y7756D01*
X24565Y7762D01*
X24552Y7775D01*
X24559Y7781D01*
X24552Y7787D01*
X24559Y7793D01*
X24552Y7799D01*
X24559Y7806D01*
X24546Y7818D01*
X24552Y7824D01*
X24546Y7830D01*
X24552Y7837D01*
X24546Y7843D01*
X24552Y7849D01*
X24546Y7855D01*
X24552Y7861D01*
X24540Y7874D01*
X24546Y7880D01*
X24540Y7886D01*
X24546Y7892D01*
X24540Y7898D01*
X24546Y7905D01*
X24540Y7911D01*
X24546Y7917D01*
X24534Y7929D01*
X24540Y7936D01*
X24534Y7942D01*
X24540Y7948D01*
X24534Y7954D01*
X24540Y7960D01*
X24528Y7973D01*
X24534Y7979D01*
X24528Y7985D01*
X24534Y7991D01*
X24528Y7997D01*
X24534Y8004D01*
X24528Y8010D01*
X24534Y8016D01*
X24528Y8022D01*
X24534Y8028D01*
X24521Y8041D01*
X24528Y8047D01*
X24521Y8053D01*
X24528Y8059D01*
X24521Y8065D01*
X24528Y8072D01*
X24521Y8078D01*
X24528Y8084D01*
X24515Y8096D01*
X24521Y8102D01*
X24515Y8109D01*
X24521Y8115D01*
X24515Y8121D01*
X24521Y8127D01*
X24515Y8133D01*
X24521Y8140D01*
X24515Y8146D01*
X24521Y8152D01*
X24509Y8164D01*
X24515Y8171D01*
X24509Y8177D01*
X24515Y8183D01*
X24509Y8189D01*
X24515Y8195D01*
X24509Y8201D01*
X24515Y8208D01*
X24509Y8214D01*
X24515Y8220D01*
X24503Y8232D01*
X24509Y8239D01*
X24503Y8245D01*
X24509Y8251D01*
X24503Y8257D01*
X24509Y8263D01*
X24503Y8269D01*
X24509Y8276D01*
X24503Y8282D01*
X24509Y8288D01*
X24497Y8300D01*
X24503Y8307D01*
X24497Y8313D01*
X24503Y8319D01*
X24497Y8325D01*
X24503Y8331D01*
X24497Y8337D01*
X24503Y8344D01*
X24497Y8350D01*
X24503Y8356D01*
X24491Y8368D01*
X24497Y8375D01*
X24491Y8381D01*
X24497Y8387D01*
X24491Y8393D01*
X24497Y8399D01*
X24491Y8406D01*
X24497Y8412D01*
X24484Y8424D01*
X24491Y8430D01*
X24484Y8436D01*
X24491Y8443D01*
X24484Y8449D01*
X24491Y8455D01*
X24484Y8461D01*
X24491Y8467D01*
X24484Y8474D01*
X24491Y8480D01*
X24478Y8492D01*
X24484Y8498D01*
X24478Y8504D01*
X24484Y8511D01*
X24478Y8517D01*
X24484Y8523D01*
X24478Y8529D01*
X24484Y8535D01*
X24478Y8542D01*
X24484Y8548D01*
X24472Y8560D01*
X24478Y8566D01*
X24472Y8573D01*
X24478Y8579D01*
X24472Y8585D01*
X24478Y8591D01*
X24472Y8597D01*
X24478Y8603D01*
X24472Y8610D01*
X24478Y8616D01*
X24466Y8628D01*
X24472Y8634D01*
X24466Y8641D01*
X24472Y8647D01*
X24466Y8653D01*
X24472Y8659D01*
X24466Y8665D01*
X24472Y8671D01*
X24460Y8684D01*
X24466Y8690D01*
X24460Y8696D01*
X24466Y8702D01*
X24460Y8709D01*
X24466Y8715D01*
X24460Y8721D01*
X24466Y8727D01*
X24460Y8733D01*
X24466Y8739D01*
X24453Y8752D01*
X24460Y8758D01*
X24453Y8764D01*
X24460Y8770D01*
X24453Y8777D01*
X24460Y8783D01*
X24453Y8789D01*
X24460Y8795D01*
X24447Y8807D01*
X24453Y8814D01*
X24447Y8820D01*
X24453Y8826D01*
X24447Y8832D01*
X24453Y8838D01*
X24447Y8845D01*
X24453Y8851D01*
X24441Y8863D01*
X24447Y8869D01*
X24441Y8876D01*
X24447Y8882D01*
X24441Y8888D01*
X24447Y8894D01*
X24441Y8900D01*
X24447Y8906D01*
X24435Y8919D01*
X24441Y8925D01*
X24435Y8931D01*
X24441Y8937D01*
X24435Y8944D01*
X24441Y8950D01*
X24435Y8956D01*
X24441Y8962D01*
X24429Y8974D01*
X24435Y8981D01*
X24429Y8987D01*
X24435Y8993D01*
X24429Y8999D01*
X24435Y9005D01*
X24423Y9018D01*
X24429Y9024D01*
X24423Y9030D01*
X24429Y9036D01*
X24423Y9042D01*
X24429Y9049D01*
X24423Y9055D01*
X24429Y9061D01*
X24416Y9073D01*
X24423Y9080D01*
X24416Y9086D01*
X24423Y9092D01*
X24416Y9098D01*
X24423Y9104D01*
X24410Y9117D01*
X24416Y9123D01*
X24410Y9129D01*
X24416Y9135D01*
X24404Y9148D01*
X24410Y9154D01*
X24398Y9166D01*
X24404Y9172D01*
X24392Y9185D01*
X24398Y9191D01*
X24392Y9197D01*
X24398Y9203D01*
X24385Y9216D01*
X24392Y9222D01*
X24379Y9234D01*
X24385Y9240D01*
X24373Y9253D01*
X24361Y9240D01*
X24355Y9247D01*
X24348Y9240D01*
X24342Y9247D01*
X24336Y9240D01*
X24330Y9247D01*
X24317Y9234D01*
X24311Y9240D01*
X24305Y9234D01*
X24299Y9240D01*
X24293Y9234D01*
X24286Y9240D01*
X24274Y9228D01*
X24268Y9234D01*
X24262Y9228D01*
X24256Y9234D01*
X24249Y9228D01*
X24243Y9234D01*
X24237Y9228D01*
X24231Y9234D01*
X24218Y9222D01*
X24212Y9228D01*
X24206Y9222D01*
X24200Y9228D01*
X24194Y9222D01*
X24188Y9228D01*
X24175Y9216D01*
X24169Y9222D01*
X24163Y9216D01*
X24157Y9222D01*
X24150Y9216D01*
X24144Y9222D01*
X24132Y9209D01*
X24126Y9216D01*
X24119Y9209D01*
X24113Y9216D01*
X24107Y9209D01*
X24101Y9216D01*
X24089Y9203D01*
X24082Y9209D01*
X24076Y9203D01*
X24070Y9209D01*
X24064Y9203D01*
X24058Y9209D01*
X24045Y9197D01*
X24039Y9203D01*
X24033Y9197D01*
X24027Y9203D01*
X24021Y9197D01*
X24014Y9203D01*
X24002Y9191D01*
X23996Y9197D01*
X23990Y9191D01*
X23983Y9197D01*
X23977Y9191D01*
X23971Y9197D01*
X23959Y9185D01*
X23953Y9191D01*
X23946Y9185D01*
X23940Y9191D01*
X23934Y9185D01*
X23928Y9191D01*
X23922Y9185D01*
X23915Y9191D01*
X23903Y9179D01*
X23897Y9185D01*
X23891Y9179D01*
X23885Y9185D01*
X23878Y9179D01*
X23872Y9185D01*
X23860Y9172D01*
X23854Y9179D01*
X23847Y9172D01*
X23841Y9179D01*
X23835Y9172D01*
X23829Y9179D01*
X23816Y9166D01*
X23810Y9172D01*
X23804Y9166D01*
X23798Y9172D01*
X23792Y9166D01*
X23786Y9172D01*
X23773Y9160D01*
X23767Y9166D01*
X23761Y9160D01*
X23755Y9166D01*
X23748Y9160D01*
X23742Y9166D01*
X23730Y9154D01*
X23724Y9160D01*
X23718Y9154D01*
X23711Y9160D01*
X23705Y9154D01*
X23699Y9160D01*
X23687Y9148D01*
X23680Y9154D01*
X23674Y9148D01*
X23668Y9154D01*
X23662Y9148D01*
X23656Y9154D01*
X23649Y9148D01*
X23643Y9154D01*
X23631Y9141D01*
X23625Y9148D01*
X23619Y9141D01*
X23612Y9148D01*
X23606Y9141D01*
X23600Y9148D01*
X23588Y9135D01*
X23581Y9141D01*
X23575Y9135D01*
X23569Y9141D01*
X23563Y9135D01*
X23557Y9141D01*
X23544Y9129D01*
X23538Y9135D01*
X23532Y9129D01*
X23526Y9135D01*
X23520Y9129D01*
X23513Y9135D01*
X23501Y9123D01*
X23495Y9129D01*
X23489Y9123D01*
X23483Y9129D01*
X23476Y9123D01*
X23470Y9129D01*
X23458Y9117D01*
X23452Y9123D01*
X23445Y9117D01*
X23439Y9123D01*
X23433Y9117D01*
X23427Y9123D01*
X23414Y9111D01*
X23408Y9117D01*
X23402Y9111D01*
X23396Y9117D01*
X23390Y9111D01*
X23384Y9117D01*
X23377Y9111D01*
X23371Y9117D01*
X23359Y9104D01*
X23353Y9111D01*
X23346Y9104D01*
X23340Y9111D01*
X23334Y9104D01*
X23328Y9111D01*
X23316Y9098D01*
X23309Y9104D01*
X23303Y9098D01*
X23297Y9104D01*
X23291Y9098D01*
X23285Y9104D01*
X23272Y9092D01*
X23266Y9098D01*
X23260Y9092D01*
X23254Y9098D01*
X23248Y9092D01*
X23241Y9098D01*
X23229Y9086D01*
X23223Y9092D01*
X23217Y9086D01*
X23210Y9092D01*
X23204Y9086D01*
X23198Y9092D01*
X23186Y9080D01*
X23180Y9086D01*
X23173Y9080D01*
X23167Y9086D01*
X23161Y9080D01*
X23155Y9086D01*
X23142Y9073D01*
X23136Y9080D01*
X23130Y9073D01*
X23124Y9080D01*
X23118Y9073D01*
X23111Y9080D01*
X23099Y9067D01*
X23093Y9073D01*
X23087Y9067D01*
X23081Y9073D01*
X23074Y9067D01*
X23068Y9073D01*
X23062Y9067D01*
X23056Y9073D01*
X23043Y9061D01*
X23037Y9067D01*
X23031Y9061D01*
X23025Y9067D01*
X23019Y9061D01*
X23013Y9067D01*
X23000Y9055D01*
X22994Y9061D01*
X22988Y9055D01*
X22982Y9061D01*
X22975Y9055D01*
X22969Y9061D01*
X22957Y9049D01*
X22951Y9055D01*
X22944Y9049D01*
X22938Y9055D01*
X22932Y9049D01*
X22926Y9055D01*
X22914Y9042D01*
X22907Y9049D01*
X22901Y9042D01*
X22895Y9049D01*
X22889Y9042D01*
X22883Y9049D01*
X22870Y9036D01*
X22864Y9042D01*
X22858Y9036D01*
X22852Y9042D01*
X22846Y9036D01*
X22839Y9042D01*
X22827Y9030D01*
X22821Y9036D01*
X22815Y9030D01*
X22808Y9036D01*
X22802Y9030D01*
X22796Y9036D01*
X22790Y9030D01*
X22784Y9036D01*
X22771Y9024D01*
X22765Y9030D01*
X22759Y9024D01*
X22753Y9030D01*
X22747Y9024D01*
X22740Y9030D01*
X22728Y9018D01*
X22722Y9024D01*
X22716Y9018D01*
X22709Y9024D01*
X22703Y9018D01*
X22697Y9024D01*
X22685Y9012D01*
X22679Y9018D01*
X22672Y9012D01*
X22666Y9018D01*
X22660Y9012D01*
X22654Y9018D01*
X22641Y9005D01*
X22635Y9012D01*
X22629Y9005D01*
X22623Y9012D01*
X22617Y9005D01*
X22611Y9012D01*
X22598Y8999D01*
X22592Y9005D01*
X22586Y8999D01*
X22580Y9005D01*
X22573Y8999D01*
X22567Y9005D01*
X22555Y8993D01*
X22549Y8999D01*
X22543Y8993D01*
X22536Y8999D01*
X22530Y8993D01*
X22524Y8999D01*
X22518Y8993D01*
X22512Y8999D01*
X22499Y8987D01*
X22493Y8993D01*
X22487Y8987D01*
X22481Y8993D01*
X22475Y8987D01*
X22468Y8993D01*
X22456Y8981D01*
X22450Y8987D01*
X22444Y8981D01*
X22437Y8987D01*
X22431Y8981D01*
X22425Y8987D01*
X22413Y8974D01*
X22406Y8981D01*
X22400Y8974D01*
X22394Y8981D01*
X22388Y8974D01*
X22382Y8981D01*
X22369Y8968D01*
X22363Y8974D01*
X22357Y8968D01*
X22351Y8974D01*
X22345Y8968D01*
X22338Y8974D01*
X22326Y8962D01*
X22320Y8968D01*
X22314Y8962D01*
X22308Y8968D01*
X22301Y8962D01*
X22295Y8968D01*
X22283Y8956D01*
X22277Y8962D01*
X22270Y8956D01*
X22264Y8962D01*
X22258Y8956D01*
X22252Y8962D01*
X22240Y8950D01*
X22233Y8956D01*
X22227Y8950D01*
X22221Y8956D01*
X22215Y8950D01*
X22209Y8956D01*
X22202Y8950D01*
X22196Y8956D01*
X22184Y8944D01*
X22178Y8950D01*
X22171Y8944D01*
X22165Y8950D01*
X22159Y8944D01*
X22153Y8950D01*
X22141Y8937D01*
X22134Y8944D01*
X22128Y8937D01*
X22122Y8944D01*
X22116Y8937D01*
X22110Y8944D01*
X22097Y8931D01*
X22091Y8937D01*
X22085Y8931D01*
X22079Y8937D01*
X22073Y8931D01*
X22066Y8937D01*
X22054Y8925D01*
X22048Y8931D01*
X22042Y8925D01*
X22035Y8931D01*
X22029Y8925D01*
X22023Y8931D01*
X22011Y8919D01*
X22004Y8925D01*
X21998Y8919D01*
X21992Y8925D01*
X21986Y8919D01*
X21980Y8925D01*
X21967Y8913D01*
X21961Y8919D01*
X21955Y8913D01*
X21949Y8919D01*
X21943Y8913D01*
X21936Y8919D01*
X21930Y8913D01*
X21924Y8919D01*
X21912Y8906D01*
X21906Y8913D01*
X21899Y8906D01*
X21893Y8913D01*
X21887Y8906D01*
X21881Y8913D01*
X21868Y8900D01*
X21862Y8906D01*
X21856Y8900D01*
X21850Y8906D01*
X21844Y8900D01*
X21838Y8906D01*
X21825Y8894D01*
X21819Y8900D01*
X21813Y8894D01*
X21807Y8900D01*
X21800Y8894D01*
X21794Y8900D01*
X21782Y8888D01*
X21776Y8894D01*
X21769Y8888D01*
X21763Y8894D01*
X21757Y8888D01*
X21751Y8894D01*
X21739Y8882D01*
X21732Y8888D01*
X21726Y8882D01*
X21720Y8888D01*
X21714Y8882D01*
X21708Y8888D01*
X21695Y8876D01*
X21689Y8882D01*
X21683Y8876D01*
X21677Y8882D01*
X21671Y8876D01*
X21664Y8882D01*
X21658Y8876D01*
X21652Y8882D01*
X21640Y8869D01*
X21633Y8876D01*
X21627Y8869D01*
X21621Y8876D01*
X21615Y8869D01*
X21609Y8876D01*
X21596Y8863D01*
X21590Y8869D01*
X21584Y8863D01*
X21578Y8869D01*
X21572Y8863D01*
X21565Y8869D01*
X21553Y8857D01*
X21547Y8863D01*
X21541Y8857D01*
X21534Y8863D01*
X21528Y8857D01*
X21522Y8863D01*
X21510Y8851D01*
X21504Y8857D01*
X21497Y8851D01*
X21491Y8857D01*
X21485Y8851D01*
X21491Y8845D01*
X21479Y8832D01*
X21485Y8826D01*
X21479Y8820D01*
X21485Y8814D01*
X21479Y8807D01*
X21485Y8801D01*
X21473Y8789D01*
X21479Y8783D01*
X21473Y8777D01*
X21479Y8770D01*
X21466Y8758D01*
X21473Y8752D01*
X21466Y8746D01*
X21473Y8739D01*
X21466Y8733D01*
X21473Y8727D01*
X21460Y8715D01*
X21466Y8709D01*
X21460Y8702D01*
X21466Y8696D01*
X21454Y8684D01*
X21460Y8678D01*
X21454Y8671D01*
X21460Y8665D01*
X21454Y8659D01*
X21460Y8653D01*
X21448Y8641D01*
X21454Y8634D01*
X21448Y8628D01*
X21454Y8622D01*
X21442Y8610D01*
X21448Y8603D01*
X21442Y8597D01*
X21448Y8591D01*
X21442Y8585D01*
X21448Y8579D01*
X21436Y8566D01*
X21442Y8560D01*
X21436Y8554D01*
X21442Y8548D01*
X21429Y8535D01*
X21436Y8529D01*
X21429Y8523D01*
X21436Y8517D01*
X21429Y8511D01*
X21436Y8504D01*
X21423Y8492D01*
X21429Y8486D01*
X21423Y8480D01*
X21429Y8474D01*
X21417Y8461D01*
X21423Y8455D01*
X21417Y8449D01*
X21423Y8443D01*
X21417Y8436D01*
X21423Y8430D01*
X21411Y8418D01*
X21417Y8412D01*
X21411Y8406D01*
X21417Y8399D01*
X21405Y8387D01*
X21411Y8381D01*
X21405Y8375D01*
X21411Y8368D01*
X21405Y8362D01*
X21411Y8356D01*
X21398Y8344D01*
X21405Y8337D01*
X21398Y8331D01*
X21405Y8325D01*
X21398Y8319D01*
X21405Y8313D01*
X21392Y8300D01*
X21398Y8294D01*
X21392Y8288D01*
X21398Y8282D01*
X21386Y8269D01*
X21392Y8263D01*
X21386Y8257D01*
X21392Y8251D01*
X21386Y8245D01*
X21392Y8239D01*
X21380Y8226D01*
X21386Y8220D01*
X21380Y8214D01*
X21386Y8208D01*
X21374Y8195D01*
X21380Y8189D01*
X21374Y8183D01*
X21380Y8177D01*
X21368Y8164D01*
X21374Y8158D01*
X21368Y8152D01*
X21374Y8146D01*
X21368Y8140D01*
X21374Y8133D01*
X21361Y8121D01*
X21368Y8115D01*
X21361Y8109D01*
X21368Y8102D01*
X21361Y8096D01*
X21368Y8090D01*
X21355Y8078D01*
X21361Y8072D01*
X21355Y8065D01*
X21361Y8059D01*
X21349Y8047D01*
X21355Y8041D01*
X21349Y8034D01*
X21355Y8028D01*
X21349Y8022D01*
X21355Y8016D01*
X21343Y8004D01*
X21349Y7997D01*
X21343Y7991D01*
X21349Y7985D01*
X21337Y7973D01*
X21343Y7966D01*
X21337Y7960D01*
X21343Y7954D01*
X21337Y7948D01*
X21343Y7942D01*
X21330Y7929D01*
X21337Y7923D01*
X21330Y7917D01*
X21337Y7911D01*
X21324Y7898D01*
X21330Y7892D01*
X21324Y7886D01*
X21330Y7880D01*
X21324Y7874D01*
X21330Y7867D01*
X21318Y7855D01*
X21324Y7849D01*
X21318Y7843D01*
X21324Y7837D01*
X21312Y7824D01*
X21318Y7818D01*
X21312Y7812D01*
X21318Y7806D01*
X21312Y7799D01*
X21318Y7793D01*
X21306Y7781D01*
X21312Y7775D01*
X21306Y7769D01*
X21312Y7762D01*
X21299Y7750D01*
X21306Y7744D01*
X21299Y7738D01*
X21306Y7731D01*
X21299Y7725D01*
X21306Y7719D01*
X21293Y7707D01*
X21299Y7701D01*
X21293Y7694D01*
X21299Y7688D01*
X21287Y7676D01*
X21293Y7670D01*
X21287Y7663D01*
X21293Y7657D01*
X21287Y7651D01*
X21293Y7645D01*
X21281Y7633D01*
X21287Y7626D01*
X21281Y7620D01*
X21287Y7614D01*
X21275Y7602D01*
X21281Y7595D01*
X21275Y7589D01*
X21281Y7583D01*
X21275Y7577D01*
X21281Y7571D01*
X21269Y7558D01*
X21275Y7552D01*
X21269Y7546D01*
X21275Y7540D01*
X21262Y7527D01*
X21269Y7521D01*
X21262Y7515D01*
X21269Y7509D01*
X21262Y7503D01*
X21269Y7496D01*
X21256Y7484D01*
X21262Y7478D01*
X21256Y7472D01*
X21262Y7466D01*
X21250Y7453D01*
X21256Y7447D01*
X21250Y7441D01*
X21256Y7435D01*
X21250Y7428D01*
X21256Y7422D01*
X21244Y7410D01*
X21250Y7404D01*
X21244Y7397D01*
X21250Y7391D01*
X21244Y7385D01*
X21250Y7379D01*
X21238Y7367D01*
X21244Y7360D01*
X21238Y7354D01*
X21244Y7348D01*
X21231Y7336D01*
X21238Y7329D01*
X21231Y7323D01*
X21238Y7317D01*
X21231Y7311D01*
X21238Y7305D01*
X21225Y7292D01*
X21231Y7286D01*
X21225Y7280D01*
X21231Y7274D01*
X21219Y7261D01*
X21225Y7255D01*
X21219Y7249D01*
X21225Y7243D01*
X21219Y7237D01*
X21225Y7231D01*
X21213Y7218D01*
X21219Y7212D01*
X21213Y7206D01*
X21219Y7200D01*
X21207Y7187D01*
X21213Y7181D01*
X21207Y7175D01*
X21213Y7169D01*
X21201Y7156D01*
X21207Y7150D01*
X21201Y7144D01*
X21207Y7138D01*
X21201Y7132D01*
X21207Y7125D01*
X21194Y7113D01*
X21201Y7107D01*
X21194Y7101D01*
X21201Y7094D01*
X21188Y7082D01*
X21194Y7076D01*
X21188Y7070D01*
X21194Y7064D01*
X21188Y7057D01*
X21194Y7051D01*
X21182Y7039D01*
X21188Y7033D01*
X21182Y7026D01*
X21188Y7020D01*
X21182Y7014D01*
X21188Y7008D01*
X21176Y6996D01*
X21182Y6989D01*
X21176Y6983D01*
X21182Y6977D01*
X21170Y6965D01*
X21176Y6958D01*
X21170Y6952D01*
X21176Y6946D01*
X21170Y6940D01*
X21176Y6934D01*
X21163Y6921D01*
X21170Y6915D01*
X21163Y6909D01*
X21170Y6903D01*
X21157Y6890D01*
X21163Y6884D01*
X21157Y6878D01*
X21163Y6872D01*
X21157Y6866D01*
X21163Y6859D01*
X21151Y6847D01*
X21157Y6841D01*
X21151Y6835D01*
X21157Y6829D01*
X21145Y6816D01*
X21151Y6810D01*
X21145Y6804D01*
X21151Y6798D01*
X21145Y6791D01*
X21151Y6785D01*
X21139Y6773D01*
X21145Y6767D01*
X21139Y6761D01*
X21145Y6754D01*
X21133Y6742D01*
X21139Y6736D01*
X21133Y6730D01*
X21139Y6723D01*
X21133Y6717D01*
X21139Y6711D01*
X21126Y6699D01*
X21133Y6692D01*
X21126Y6686D01*
X21133Y6680D01*
X21120Y6668D01*
X21126Y6662D01*
X21120Y6655D01*
X21126Y6649D01*
X21120Y6643D01*
X21126Y6637D01*
X21114Y6624D01*
X21120Y6618D01*
X21114Y6612D01*
X21120Y6606D01*
X21108Y6594D01*
X21114Y6587D01*
X21108Y6581D01*
X21114Y6575D01*
X21108Y6569D01*
X21114Y6563D01*
X21102Y6550D01*
X21108Y6544D01*
X21102Y6538D01*
X21108Y6532D01*
X21102Y6526D01*
X21108Y6519D01*
X21095Y6507D01*
X21102Y6501D01*
X21095Y6495D01*
X21102Y6488D01*
X21089Y6476D01*
X21095Y6470D01*
X21089Y6464D01*
X21095Y6457D01*
X21089Y6451D01*
X21095Y6445D01*
X21083Y6433D01*
X21089Y6427D01*
X21083Y6420D01*
X21089Y6414D01*
X21077Y6402D01*
X21083Y6396D01*
X21077Y6389D01*
X21083Y6383D01*
X21071Y6371D01*
X21077Y6365D01*
X21071Y6359D01*
X21077Y6352D01*
X21071Y6346D01*
X21077Y6340D01*
X21064Y6328D01*
X21071Y6321D01*
X21064Y6315D01*
X21071Y6309D01*
X21064Y6303D01*
X21071Y6297D01*
X21058Y6284D01*
X21064Y6278D01*
X21058Y6272D01*
X21064Y6266D01*
X21052Y6253D01*
X21058Y6247D01*
X21052Y6241D01*
X21058Y6235D01*
X21052Y6229D01*
X21058Y6222D01*
X21046Y6210D01*
X21052Y6204D01*
X21046Y6198D01*
X21052Y6192D01*
X21040Y6179D01*
X21046Y6173D01*
X21040Y6167D01*
X21046Y6161D01*
X21040Y6154D01*
X21046Y6148D01*
X21034Y6136D01*
X21040Y6130D01*
X21034Y6124D01*
X21040Y6117D01*
X21027Y6105D01*
X21034Y6099D01*
X21027Y6093D01*
X21034Y6086D01*
X21027Y6080D01*
X21034Y6074D01*
X21021Y6062D01*
X21027Y6056D01*
X21021Y6049D01*
X21027Y6043D01*
X21015Y6031D01*
X21021Y6025D01*
X21015Y6018D01*
X21021Y6012D01*
X21015Y6006D01*
X21021Y6000D01*
X21009Y5987D01*
X21015Y5981D01*
X21009Y5975D01*
X21015Y5969D01*
X21003Y5957D01*
X21009Y5950D01*
X21003Y5944D01*
X21009Y5938D01*
X21003Y5932D01*
X21009Y5926D01*
X20996Y5913D01*
X21003Y5907D01*
X20996Y5901D01*
X21003Y5895D01*
X20990Y5882D01*
X20996Y5876D01*
X20990Y5870D01*
X20996Y5864D01*
X20990Y5858D01*
X20996Y5851D01*
X20984Y5839D01*
X20990Y5833D01*
X20984Y5827D01*
X20990Y5821D01*
X20978Y5808D01*
X20984Y5802D01*
X20978Y5796D01*
X20984Y5790D01*
X20978Y5783D01*
X20984Y5777D01*
X20972Y5765D01*
X20978Y5759D01*
X20972Y5752D01*
X20978Y5746D01*
X20966Y5734D01*
X20972Y5728D01*
X20966Y5722D01*
X20972Y5715D01*
X20966Y5709D01*
X20972Y5703D01*
X20959Y5691D01*
X20966Y5684D01*
X20959Y5678D01*
X20966Y5672D01*
X20953Y5660D01*
X20959Y5654D01*
X20953Y5647D01*
X20959Y5641D01*
X20953Y5635D01*
X20959Y5629D01*
X20947Y5616D01*
X20953Y5610D01*
X20947Y5604D01*
X20953Y5598D01*
X20941Y5586D01*
X20947Y5579D01*
X20941Y5573D01*
X20947Y5567D01*
X20941Y5561D01*
X20947Y5555D01*
X20935Y5542D01*
X20941Y5536D01*
X20935Y5530D01*
X20941Y5524D01*
X20928Y5511D01*
X20935Y5505D01*
X20928Y5499D01*
X20935Y5493D01*
X20928Y5487D01*
X20935Y5480D01*
X20922Y5468D01*
X20928Y5462D01*
X20922Y5456D01*
X20928Y5449D01*
X20916Y5437D01*
X20922Y5431D01*
X20916Y5425D01*
X20922Y5419D01*
X20916Y5412D01*
X20922Y5406D01*
X20910Y5394D01*
X20916Y5388D01*
X20910Y5381D01*
X20916Y5375D01*
X20910Y5369D01*
X20916Y5363D01*
X20904Y5351D01*
X20910Y5344D01*
X20904Y5338D01*
X20910Y5332D01*
X20898Y5320D01*
X20904Y5313D01*
X20898Y5307D01*
X20904Y5301D01*
X20898Y5295D01*
X20904Y5289D01*
X20891Y5276D01*
X20898Y5270D01*
X20891Y5264D01*
X20898Y5258D01*
X20885Y5245D01*
X20891Y5239D01*
X20885Y5233D01*
X20891Y5227D01*
X20885Y5221D01*
X20891Y5214D01*
X20879Y5202D01*
X20885Y5196D01*
X20879Y5190D01*
X20885Y5184D01*
X20873Y5171D01*
X20879Y5165D01*
X20873Y5159D01*
X20879Y5153D01*
X20873Y5146D01*
X20879Y5140D01*
X20867Y5128D01*
X20873Y5122D01*
X20867Y5116D01*
X20873Y5109D01*
X20860Y5097D01*
X20867Y5091D01*
X20860Y5085D01*
X20867Y5078D01*
X20860Y5072D01*
X20867Y5066D01*
X20854Y5054D01*
X20860Y5047D01*
X20854Y5041D01*
X20860Y5035D01*
X20848Y5023D01*
X20854Y5017D01*
X20848Y5010D01*
X20854Y5004D01*
X20848Y4998D01*
X20854Y4992D01*
X20842Y4979D01*
X20848Y4973D01*
X20842Y4967D01*
X20848Y4961D01*
X20836Y4949D01*
X20842Y4942D01*
X20836Y4936D01*
X20842Y4930D01*
X20836Y4924D01*
X20842Y4918D01*
X20829Y4905D01*
X20836Y4899D01*
X20829Y4893D01*
X20836Y4887D01*
X20823Y4874D01*
X20829Y4868D01*
X20823Y4862D01*
X20829Y4856D01*
X20823Y4850D01*
X20829Y4843D01*
X20817Y4831D01*
X20823Y4825D01*
X20817Y4819D01*
X20823Y4812D01*
X20811Y4800D01*
X20817Y4794D01*
X20811Y4788D01*
X20817Y4782D01*
X20811Y4775D01*
X20817Y4769D01*
X20805Y4757D01*
X20811Y4751D01*
X20805Y4744D01*
X20811Y4738D01*
X20799Y4726D01*
X20805Y4720D01*
X20799Y4714D01*
X20805Y4707D01*
X20799Y4701D01*
X20805Y4695D01*
X20792Y4683D01*
X20799Y4676D01*
X20792Y4670D01*
X20799Y4664D01*
X20792Y4658D01*
X20799Y4652D01*
X20786Y4639D01*
X20792Y4633D01*
X20786Y4627D01*
X20792Y4621D01*
X20780Y4608D01*
X20786Y4602D01*
X20780Y4596D01*
X20786Y4590D01*
X20780Y4584D01*
X20786Y4577D01*
X20774Y4565D01*
X20780Y4559D01*
X20774Y4553D01*
X20780Y4547D01*
X20768Y4534D01*
X20774Y4528D01*
X20768Y4522D01*
X20774Y4516D01*
X20768Y4509D01*
X20774Y4503D01*
X20761Y4491D01*
X20768Y4485D01*
X20761Y4479D01*
X20768Y4472D01*
X20755Y4460D01*
X20761Y4454D01*
X20755Y4448D01*
X20761Y4441D01*
X20755Y4435D01*
X20761Y4429D01*
X20749Y4417D01*
X20755Y4411D01*
X20749Y4404D01*
X20755Y4398D01*
X20743Y4386D01*
X20749Y4380D01*
X20743Y4373D01*
X20749Y4367D01*
X20737Y4355D01*
X20743Y4349D01*
X20737Y4342D01*
X20743Y4336D01*
X20737Y4330D01*
X20743Y4324D01*
X20731Y4312D01*
X20737Y4305D01*
X20731Y4299D01*
X20737Y4293D01*
X20731Y4287D01*
X20737Y4281D01*
X20724Y4268D01*
X20731Y4262D01*
X20724Y4256D01*
X20731Y4250D01*
X20718Y4237D01*
X20724Y4231D01*
X20718Y4225D01*
X20724Y4219D01*
X20718Y4213D01*
X20724Y4206D01*
X20712Y4194D01*
X20718Y4188D01*
X20712Y4182D01*
X20718Y4176D01*
X20706Y4163D01*
X20712Y4157D01*
X20693Y4138D01*
X20687Y4145D01*
X20675Y4132D01*
X20669Y4138D01*
X20656Y4126D01*
X20650Y4132D01*
X20644Y4126D01*
X20638Y4132D01*
X20625Y4120D01*
X20619Y4126D01*
X20607Y4114D01*
X20601Y4120D01*
X20588Y4107D01*
X20582Y4114D01*
X20570Y4101D01*
X20564Y4107D01*
X20551Y4095D01*
X20545Y4101D01*
X20533Y4089D01*
X20526Y4095D01*
X20514Y4083D01*
X20508Y4089D01*
X20496Y4077D01*
X20489Y4083D01*
X20477Y4070D01*
X20471Y4077D01*
X20458Y4064D01*
X20452Y4070D01*
X20440Y4058D01*
X20434Y4064D01*
X20421Y4052D01*
X20415Y4058D01*
X20409Y4052D01*
X20403Y4058D01*
X20390Y4046D01*
X20384Y4052D01*
X20372Y4039D01*
X20366Y4046D01*
X20353Y4033D01*
X20347Y4039D01*
X20335Y4027D01*
X20329Y4033D01*
X20316Y4021D01*
X20310Y4027D01*
X20298Y4015D01*
X20291Y4021D01*
X20285Y4015D01*
X20279Y4021D01*
X20267Y4009D01*
X20261Y4015D01*
X20248Y4002D01*
X20242Y4009D01*
X20230Y3996D01*
X20223Y4002D01*
X20217Y3996D01*
X20211Y4002D01*
X20199Y3990D01*
X20193Y3996D01*
X20180Y3984D01*
X20174Y3990D01*
X20168Y3984D01*
X20162Y3990D01*
X20149Y3978D01*
X20143Y3984D01*
X20131Y3971D01*
X20124Y3978D01*
X20118Y3971D01*
X20112Y3978D01*
X20100Y3965D01*
X20094Y3971D01*
X20087Y3965D01*
X20081Y3971D01*
X20069Y3959D01*
X20063Y3965D01*
X20056Y3959D01*
X20050Y3965D01*
X20038Y3953D01*
X20032Y3959D01*
X20026Y3953D01*
X20019Y3959D01*
X20013Y3953D01*
X20007Y3959D01*
X19995Y3947D01*
X19988Y3953D01*
X19982Y3947D01*
X19976Y3953D01*
X19964Y3941D01*
X19958Y3947D01*
X19951Y3941D01*
X19945Y3947D01*
X19939Y3941D01*
X19933Y3947D01*
X19927Y3941D01*
X19920Y3947D01*
X19908Y3934D01*
X19902Y3941D01*
X19896Y3934D01*
X19889Y3941D01*
X19883Y3934D01*
X19877Y3941D01*
X19871Y3934D01*
X19865Y3941D01*
X19859Y3934D01*
X19852Y3941D01*
X19846Y3934D01*
X19840Y3941D01*
X19834Y3934D01*
X19828Y3941D01*
X19821Y3934D01*
X19815Y3941D01*
X19809Y3934D01*
X19803Y3941D01*
X19797Y3934D01*
X19791Y3941D01*
X19784Y3934D01*
X19778Y3941D01*
X19772Y3934D01*
X19766Y3941D01*
X19760Y3934D01*
X19753Y3941D01*
X19747Y3934D01*
X19741Y3941D01*
X19735Y3934D01*
X19729Y3941D01*
X19723Y3934D01*
X19710Y3947D01*
X19704Y3941D01*
X19698Y3947D01*
X19692Y3941D01*
X19685Y3947D01*
X19679Y3941D01*
X19667Y3953D01*
X19661Y3947D01*
X19654Y3953D01*
X19648Y3947D01*
X19636Y3959D01*
X19630Y3953D01*
X19617Y3965D01*
X19611Y3959D01*
X19593Y3978D01*
X19586Y3971D01*
X19568Y3990D01*
X19562Y3984D01*
X19537Y4009D01*
X19531Y4002D01*
X19457Y4077D01*
X19463Y4083D01*
X19438Y4107D01*
X19444Y4114D01*
X19432Y4126D01*
X19438Y4132D01*
X19432Y4138D01*
X19438Y4145D01*
X19426Y4157D01*
X19432Y4163D01*
X19426Y4169D01*
X19432Y4176D01*
X19419Y4188D01*
X19426Y4194D01*
X19419Y4200D01*
X19426Y4206D01*
X19413Y4219D01*
X19419Y4225D01*
X19413Y4231D01*
X19419Y4237D01*
X19413Y4244D01*
X19419Y4250D01*
X19407Y4262D01*
X19413Y4268D01*
X19407Y4274D01*
X19413Y4281D01*
X19407Y4287D01*
X19413Y4293D01*
X19407Y4299D01*
X19413Y4305D01*
X19401Y4318D01*
X19407Y4324D01*
X19401Y4330D01*
X19407Y4336D01*
X19401Y4342D01*
X19407Y4349D01*
X19401Y4355D01*
X19407Y4361D01*
X19395Y4373D01*
X19401Y4380D01*
X19395Y4386D01*
X19401Y4392D01*
X19395Y4398D01*
X19401Y4404D01*
X19395Y4411D01*
X19401Y4417D01*
X19395Y4423D01*
X19401Y4429D01*
X19389Y4441D01*
X19395Y4448D01*
X19389Y4454D01*
X19395Y4460D01*
X19389Y4466D01*
X19395Y4472D01*
X19389Y4479D01*
X19395Y4485D01*
X19389Y4491D01*
X19395Y4497D01*
X19382Y4509D01*
X19389Y4516D01*
X19382Y4522D01*
X19389Y4528D01*
X19382Y4534D01*
X19389Y4540D01*
X19382Y4547D01*
X19389Y4553D01*
X19382Y4559D01*
X19389Y4565D01*
X19376Y4577D01*
X19382Y4584D01*
X19376Y4590D01*
X19382Y4596D01*
X19376Y4602D01*
X19382Y4608D01*
X19376Y4615D01*
X19382Y4621D01*
X19376Y4627D01*
X19382Y4633D01*
X19376Y4639D01*
X19382Y4646D01*
X19370Y4658D01*
X19376Y4664D01*
X19370Y4670D01*
X19376Y4676D01*
X19370Y4683D01*
X19376Y4689D01*
X19370Y4695D01*
X19376Y4701D01*
X19370Y4707D01*
X19376Y4714D01*
X19370Y4720D01*
X19376Y4726D01*
X19370Y4732D01*
X19376Y4738D01*
X19364Y4751D01*
X19370Y4757D01*
X19364Y4763D01*
X19370Y4769D01*
X19364Y4775D01*
X19370Y4782D01*
X19364Y4788D01*
X19370Y4794D01*
X19364Y4800D01*
X19370Y4806D01*
X19364Y4812D01*
X19370Y4819D01*
X19358Y4831D01*
X19364Y4837D01*
X19358Y4843D01*
X19364Y4850D01*
X19358Y4856D01*
X19364Y4862D01*
X19358Y4868D01*
X19364Y4874D01*
X19358Y4881D01*
X19364Y4887D01*
X19358Y4893D01*
X19364Y4899D01*
X19358Y4905D01*
X19364Y4911D01*
X19351Y4924D01*
X19358Y4930D01*
X19351Y4936D01*
X19358Y4942D01*
X19351Y4949D01*
X19358Y4955D01*
X19351Y4961D01*
X19358Y4967D01*
X19351Y4973D01*
X19358Y4979D01*
X19351Y4986D01*
X19358Y4992D01*
X19351Y4998D01*
X19358Y5004D01*
X19345Y5017D01*
X19351Y5023D01*
X19345Y5029D01*
X19351Y5035D01*
X19345Y5041D01*
X19351Y5047D01*
X19345Y5054D01*
X19351Y5060D01*
X19345Y5066D01*
X19351Y5072D01*
X19345Y5078D01*
X19351Y5085D01*
X19345Y5091D01*
X19351Y5097D01*
X19345Y5103D01*
X19351Y5109D01*
X19339Y5122D01*
X19345Y5128D01*
X19339Y5134D01*
X19345Y5140D01*
X19339Y5146D01*
X19345Y5153D01*
X19339Y5159D01*
X19345Y5165D01*
X19339Y5171D01*
X19345Y5177D01*
X19339Y5184D01*
X19345Y5190D01*
X19339Y5196D01*
X19345Y5202D01*
X19333Y5214D01*
X19339Y5221D01*
X19333Y5227D01*
X19339Y5233D01*
X19333Y5239D01*
X19339Y5245D01*
X19333Y5252D01*
X19339Y5258D01*
X19333Y5264D01*
X19339Y5270D01*
X19333Y5276D01*
X19339Y5282D01*
X19333Y5289D01*
X19339Y5295D01*
X19333Y5301D01*
X19339Y5307D01*
X19327Y5320D01*
X19333Y5326D01*
X19327Y5332D01*
X19333Y5338D01*
X19327Y5344D01*
X19333Y5351D01*
X19327Y5357D01*
X19333Y5363D01*
X19327Y5369D01*
X19333Y5375D01*
X19327Y5381D01*
X19333Y5388D01*
X19327Y5394D01*
X19333Y5400D01*
X19327Y5406D01*
X19333Y5412D01*
X19321Y5425D01*
X19327Y5431D01*
X19321Y5437D01*
X19327Y5443D01*
X19321Y5449D01*
X19327Y5456D01*
X19321Y5462D01*
X19327Y5468D01*
X19321Y5474D01*
X19327Y5480D01*
X19321Y5487D01*
X19327Y5493D01*
X19321Y5499D01*
X19327Y5505D01*
X19321Y5511D01*
X19327Y5517D01*
X19314Y5530D01*
X19321Y5536D01*
X19314Y5542D01*
X19321Y5548D01*
X19314Y5555D01*
X19321Y5561D01*
X19314Y5567D01*
X19321Y5573D01*
X19314Y5579D01*
X19321Y5586D01*
X19314Y5592D01*
X19321Y5598D01*
X19314Y5604D01*
X19321Y5610D01*
X19314Y5616D01*
X19321Y5623D01*
X19314Y5629D01*
X19321Y5635D01*
X19308Y5647D01*
X19314Y5654D01*
X19308Y5660D01*
X19314Y5666D01*
X19308Y5672D01*
X19314Y5678D01*
X19308Y5684D01*
X19314Y5691D01*
X19308Y5697D01*
X19314Y5703D01*
X19308Y5709D01*
X19314Y5715D01*
X19308Y5722D01*
X19314Y5728D01*
X19308Y5734D01*
X19314Y5740D01*
X19302Y5752D01*
X19308Y5759D01*
X19302Y5765D01*
X19308Y5771D01*
X19302Y5777D01*
X19308Y5783D01*
X19302Y5790D01*
X19308Y5796D01*
X19302Y5802D01*
X19308Y5808D01*
X19302Y5814D01*
X19308Y5821D01*
X19302Y5827D01*
X19308Y5833D01*
X19302Y5839D01*
X19308Y5845D01*
X19302Y5851D01*
X19308Y5858D01*
X19296Y5870D01*
X19302Y5876D01*
X19296Y5882D01*
X19302Y5889D01*
X19296Y5895D01*
X19302Y5901D01*
X19296Y5907D01*
X19302Y5913D01*
X19296Y5919D01*
X19302Y5926D01*
X19296Y5932D01*
X19302Y5938D01*
X19296Y5944D01*
X19302Y5950D01*
X19296Y5957D01*
X19302Y5963D01*
X19296Y5969D01*
X19302Y5975D01*
X19290Y5987D01*
X19296Y5994D01*
X19290Y6000D01*
X19296Y6006D01*
X19290Y6012D01*
X19296Y6018D01*
X19290Y6025D01*
X19296Y6031D01*
X19290Y6037D01*
X19296Y6043D01*
X19290Y6049D01*
X19296Y6056D01*
X19290Y6062D01*
X19296Y6068D01*
X19290Y6074D01*
X19296Y6080D01*
X19283Y6093D01*
X19290Y6099D01*
X19283Y6105D01*
X19290Y6111D01*
X19283Y6117D01*
X19290Y6124D01*
X19283Y6130D01*
X19290Y6136D01*
X19283Y6142D01*
X19290Y6148D01*
X19283Y6154D01*
X19290Y6161D01*
X19283Y6167D01*
X19290Y6173D01*
X19283Y6179D01*
X19290Y6185D01*
X19283Y6192D01*
X19290Y6198D01*
X19277Y6210D01*
X19283Y6216D01*
X19277Y6222D01*
X19283Y6229D01*
X19277Y6235D01*
X19283Y6241D01*
X19277Y6247D01*
X19283Y6253D01*
X19277Y6260D01*
X19283Y6266D01*
X19277Y6272D01*
X19283Y6278D01*
X19277Y6284D01*
X19283Y6291D01*
X19277Y6297D01*
X19283Y6303D01*
X19277Y6309D01*
X19283Y6315D01*
X19271Y6328D01*
X19277Y6334D01*
X19271Y6340D01*
X19277Y6346D01*
X19271Y6352D01*
X19277Y6359D01*
X19271Y6365D01*
X19277Y6371D01*
X19271Y6377D01*
X19277Y6383D01*
X19271Y6389D01*
X19277Y6396D01*
X19271Y6402D01*
X19277Y6408D01*
X19271Y6414D01*
X19277Y6420D01*
X19265Y6433D01*
X19271Y6439D01*
X19265Y6445D01*
X19271Y6451D01*
X19265Y6457D01*
X19271Y6464D01*
X19265Y6470D01*
X19271Y6476D01*
X19265Y6482D01*
X19271Y6488D01*
X19265Y6495D01*
X19271Y6501D01*
X19265Y6507D01*
X19271Y6513D01*
X19265Y6519D01*
X19271Y6526D01*
X19265Y6532D01*
X19271Y6538D01*
X19259Y6550D01*
X19265Y6556D01*
X19259Y6563D01*
X19265Y6569D01*
X19259Y6575D01*
X19265Y6581D01*
X19259Y6587D01*
X19265Y6594D01*
X19259Y6600D01*
X19265Y6606D01*
X19259Y6612D01*
X19265Y6618D01*
X19259Y6624D01*
X19265Y6631D01*
X19259Y6637D01*
X19265Y6643D01*
X19259Y6649D01*
X19265Y6655D01*
X19253Y6668D01*
X19259Y6674D01*
X19253Y6680D01*
X19259Y6686D01*
X19253Y6692D01*
X19259Y6699D01*
X19253Y6705D01*
X19259Y6711D01*
X19253Y6717D01*
X19259Y6723D01*
X19253Y6730D01*
X19259Y6736D01*
X19253Y6742D01*
X19259Y6748D01*
X19253Y6754D01*
X19259Y6761D01*
X19253Y6767D01*
X19259Y6773D01*
X19246Y6785D01*
X19253Y6791D01*
X19246Y6798D01*
X19253Y6804D01*
X19246Y6810D01*
X19253Y6816D01*
X19246Y6822D01*
X19253Y6829D01*
X19246Y6835D01*
X19253Y6841D01*
X19246Y6847D01*
X19253Y6853D01*
X19246Y6859D01*
X19253Y6866D01*
X19246Y6872D01*
X19253Y6878D01*
X19240Y6890D01*
X19246Y6897D01*
X19240Y6903D01*
X19246Y6909D01*
X19240Y6915D01*
X19246Y6921D01*
X19240Y6927D01*
X19246Y6934D01*
X19240Y6940D01*
X19246Y6946D01*
X19240Y6952D01*
X19246Y6958D01*
X19240Y6965D01*
X19246Y6971D01*
X19240Y6977D01*
X19246Y6983D01*
X19240Y6989D01*
X19246Y6996D01*
X19234Y7008D01*
X19240Y7014D01*
X19234Y7020D01*
X19240Y7026D01*
X19234Y7033D01*
X19240Y7039D01*
X19234Y7045D01*
X19240Y7051D01*
X19234Y7057D01*
X19240Y7064D01*
X19234Y7070D01*
X19240Y7076D01*
X19234Y7082D01*
X19240Y7088D01*
X19234Y7094D01*
X19240Y7101D01*
X19228Y7113D01*
X19234Y7119D01*
X19228Y7125D01*
X19234Y7132D01*
X19228Y7138D01*
X19234Y7144D01*
X19228Y7150D01*
X19234Y7156D01*
X19228Y7162D01*
X19234Y7169D01*
X19228Y7175D01*
X19234Y7181D01*
X19228Y7187D01*
X19234Y7193D01*
X19228Y7200D01*
X19234Y7206D01*
X19222Y7218D01*
X19228Y7224D01*
X19222Y7231D01*
X19228Y7237D01*
X19222Y7243D01*
X19228Y7249D01*
X19222Y7255D01*
X19228Y7261D01*
X19222Y7268D01*
X19228Y7274D01*
X19222Y7280D01*
X19228Y7286D01*
X19222Y7292D01*
X19228Y7299D01*
X19222Y7305D01*
X19228Y7311D01*
X19215Y7323D01*
X19222Y7329D01*
X19215Y7336D01*
X19222Y7342D01*
X19215Y7348D01*
X19222Y7354D01*
X19215Y7360D01*
X19222Y7367D01*
X19215Y7373D01*
X19222Y7379D01*
X19215Y7385D01*
X19222Y7391D01*
X19215Y7398D01*
X19222Y7404D01*
X19215Y7410D01*
X19222Y7416D01*
X19209Y7428D01*
X19215Y7435D01*
X19209Y7441D01*
X19215Y7447D01*
X19209Y7453D01*
X19215Y7459D01*
X19209Y7466D01*
X19215Y7472D01*
X19209Y7478D01*
X19215Y7484D01*
X19209Y7490D01*
X19215Y7496D01*
X19209Y7503D01*
X19215Y7509D01*
X19203Y7521D01*
X19209Y7527D01*
X19203Y7534D01*
X19209Y7540D01*
X19203Y7546D01*
X19209Y7552D01*
X19203Y7558D01*
X19209Y7564D01*
X19203Y7571D01*
X19209Y7577D01*
X19203Y7583D01*
X19209Y7589D01*
X19203Y7595D01*
X19209Y7602D01*
X19197Y7614D01*
X19203Y7620D01*
X19197Y7626D01*
X19203Y7633D01*
X19197Y7639D01*
X19203Y7645D01*
X19197Y7651D01*
X19203Y7657D01*
X19197Y7663D01*
X19203Y7670D01*
X19197Y7676D01*
X19203Y7682D01*
X19197Y7688D01*
X19203Y7694D01*
X19191Y7707D01*
X19197Y7713D01*
X19191Y7719D01*
X19197Y7725D01*
X19191Y7731D01*
X19197Y7738D01*
X19191Y7744D01*
X19197Y7750D01*
X19191Y7756D01*
X19197Y7762D01*
X19191Y7769D01*
X19197Y7775D01*
X19184Y7787D01*
X19191Y7793D01*
X19184Y7799D01*
X19191Y7806D01*
X19184Y7812D01*
X19191Y7818D01*
X19184Y7824D01*
X19191Y7830D01*
X19184Y7837D01*
X19191Y7843D01*
X19184Y7849D01*
X19191Y7855D01*
X19178Y7867D01*
X19184Y7874D01*
X19178Y7880D01*
X19184Y7886D01*
X19178Y7892D01*
X19184Y7898D01*
X19178Y7905D01*
X19184Y7911D01*
X19178Y7917D01*
X19184Y7923D01*
X19172Y7936D01*
X19178Y7942D01*
X19172Y7948D01*
X19178Y7954D01*
X19172Y7960D01*
X19178Y7966D01*
X19172Y7973D01*
X19178Y7979D01*
X19172Y7985D01*
X19178Y7991D01*
X19166Y8004D01*
X19172Y8010D01*
X19166Y8016D01*
X19172Y8022D01*
X19166Y8028D01*
X19172Y8034D01*
X19160Y8047D01*
X19166Y8053D01*
X19160Y8059D01*
X19166Y8065D01*
X19160Y8072D01*
X19166Y8078D01*
X19160Y8084D01*
X19166Y8090D01*
X19154Y8102D01*
X19160Y8109D01*
X19154Y8115D01*
X19160Y8121D01*
X19154Y8127D01*
X19160Y8133D01*
X19147Y8146D01*
X19154Y8152D01*
X19147Y8158D01*
X19154Y8164D01*
X19141Y8177D01*
X19147Y8183D01*
X19141Y8189D01*
X19147Y8195D01*
X19135Y8208D01*
X19141Y8214D01*
X19135Y8220D01*
X19141Y8226D01*
X19129Y8239D01*
X19135Y8245D01*
X19129Y8251D01*
X19135Y8257D01*
X19123Y8269D01*
X19129Y8276D01*
X19116Y8288D01*
X19123Y8294D01*
X19116Y8300D01*
X19123Y8307D01*
X19110Y8319D01*
X19116Y8325D01*
X19104Y8337D01*
X19110Y8344D01*
X19098Y8356D01*
X19104Y8362D01*
X19092Y8375D01*
X19098Y8381D01*
X19079Y8399D01*
X19086Y8406D01*
X19073Y8418D01*
X19079Y8424D01*
X19067Y8436D01*
X19073Y8443D01*
X19061Y8455D01*
X19067Y8461D01*
X19048Y8480D01*
X19055Y8486D01*
X19042Y8498D01*
X19048Y8504D01*
X19030Y8523D01*
X19036Y8529D01*
X19024Y8542D01*
X19030Y8548D01*
X19018Y8560D01*
X19024Y8566D01*
X19005Y8585D01*
X19011Y8591D01*
X18999Y8603D01*
X19005Y8610D01*
X18987Y8628D01*
X18993Y8634D01*
X18974Y8653D01*
X18980Y8659D01*
X18968Y8671D01*
X18974Y8678D01*
X18956Y8696D01*
X18962Y8702D01*
X18943Y8721D01*
X18949Y8727D01*
X18925Y8752D01*
X18931Y8758D01*
X18906Y8783D01*
X18900Y8777D01*
X18888Y8789D01*
X18881Y8783D01*
X18869Y8795D01*
X18863Y8789D01*
X18857Y8795D01*
X18851Y8789D01*
X18838Y8801D01*
X18832Y8795D01*
X18826Y8801D01*
X18820Y8795D01*
X18807Y8807D01*
X18801Y8801D01*
X18795Y8807D01*
X18789Y8801D01*
X18782Y8807D01*
X18776Y8801D01*
X18770Y8807D01*
X18764Y8801D01*
X18752Y8814D01*
X18745Y8807D01*
X18739Y8814D01*
X18733Y8807D01*
X18727Y8814D01*
X18721Y8807D01*
X18714Y8814D01*
X18708Y8807D01*
X18702Y8814D01*
X18696Y8807D01*
X18690Y8814D01*
X18684Y8807D01*
X18677Y8814D01*
X18671Y8807D01*
X18665Y8814D01*
X18659Y8807D01*
X18653Y8814D01*
X18646Y8807D01*
X18634Y8820D01*
X18628Y8814D01*
X18622Y8820D01*
X18616Y8814D01*
X18609Y8820D01*
X18603Y8814D01*
X18597Y8820D01*
X18591Y8814D01*
X18585Y8820D01*
X18578Y8814D01*
X18572Y8820D01*
X18566Y8814D01*
X18560Y8820D01*
X18554Y8814D01*
X18548Y8820D01*
X18541Y8814D01*
X18535Y8820D01*
X18529Y8814D01*
X18523Y8820D01*
X18517Y8814D01*
X18510Y8820D01*
X18504Y8814D01*
X18498Y8820D01*
X18492Y8814D01*
X18486Y8820D01*
X18479Y8814D01*
X18473Y8820D01*
X18467Y8814D01*
X18461Y8820D01*
X18455Y8814D01*
X18449Y8820D01*
X18442Y8814D01*
X18436Y8820D01*
X18430Y8814D01*
X18418Y8826D01*
X18411Y8820D01*
X18405Y8826D01*
X18399Y8820D01*
X18393Y8826D01*
X18387Y8820D01*
X18381Y8826D01*
X18374Y8820D01*
X18368Y8826D01*
X18362Y8820D01*
X18356Y8826D01*
X18350Y8820D01*
X18337Y8832D01*
X18331Y8826D01*
X18325Y8832D01*
X18319Y8826D01*
X18312Y8832D01*
X18306Y8826D01*
X18300Y8832D01*
X18294Y8826D01*
X18282Y8838D01*
X18275Y8832D01*
X18269Y8838D01*
X18263Y8832D01*
X18257Y8838D01*
X18251Y8832D01*
X18244Y8838D01*
X18238Y8832D01*
X18226Y8845D01*
X18220Y8838D01*
X18214Y8845D01*
X18207Y8838D01*
X18201Y8845D01*
X18195Y8838D01*
X18189Y8845D01*
X18183Y8838D01*
X18170Y8851D01*
X18164Y8845D01*
X18158Y8851D01*
X18152Y8845D01*
X18146Y8851D01*
X18139Y8845D01*
X18127Y8857D01*
X18121Y8851D01*
X18115Y8857D01*
X18108Y8851D01*
X18102Y8857D01*
X18096Y8851D01*
X18084Y8863D01*
X18077Y8857D01*
X18071Y8863D01*
X18065Y8857D01*
X18059Y8863D01*
X18053Y8857D01*
X18040Y8869D01*
X18034Y8863D01*
X18028Y8869D01*
X18022Y8863D01*
X18016Y8869D01*
X18009Y8863D01*
X17997Y8876D01*
X17991Y8869D01*
X17985Y8876D01*
X17979Y8869D01*
X17972Y8876D01*
X17966Y8869D01*
X17954Y8882D01*
X17948Y8876D01*
X17941Y8882D01*
X17935Y8876D01*
X17923Y8888D01*
X17917Y8882D01*
X17911Y8888D01*
X17904Y8882D01*
X17898Y8888D01*
X17892Y8882D01*
X17880Y8894D01*
X17873Y8888D01*
X17867Y8894D01*
X17861Y8888D01*
X17849Y8900D01*
X17843Y8894D01*
X17836Y8900D01*
X17830Y8894D01*
X17818Y8906D01*
X17812Y8900D01*
X17805Y8906D01*
X17799Y8900D01*
X17787Y8913D01*
X17781Y8906D01*
X17774Y8913D01*
X17768Y8906D01*
X17756Y8919D01*
X17750Y8913D01*
X17744Y8919D01*
X17737Y8913D01*
X17725Y8925D01*
X17719Y8919D01*
X17713Y8925D01*
X17706Y8919D01*
X17694Y8931D01*
X17688Y8925D01*
X17682Y8931D01*
X17676Y8925D01*
X17663Y8937D01*
X17657Y8931D01*
X17651Y8937D01*
X17645Y8931D01*
X17632Y8944D01*
X17626Y8937D01*
X17620Y8944D01*
X17614Y8937D01*
X17601Y8950D01*
X17595Y8944D01*
X17583Y8956D01*
X17577Y8950D01*
X17570Y8956D01*
X17564Y8950D01*
X17552Y8962D01*
X17546Y8956D01*
X17533Y8968D01*
X17527Y8962D01*
X17521Y8968D01*
X17515Y8962D01*
X17502Y8974D01*
X17496Y8968D01*
X17484Y8981D01*
X17478Y8974D01*
X17465Y8987D01*
X17459Y8981D01*
X17447Y8993D01*
X17441Y8987D01*
X17428Y8999D01*
X17422Y8993D01*
X17410Y9005D01*
X17403Y8999D01*
X17391Y9012D01*
X17385Y9005D01*
X17372Y9018D01*
X17366Y9012D01*
X17342Y9036D01*
X17335Y9030D01*
X17280Y9086D01*
X17286Y9092D01*
X17267Y9111D01*
X17274Y9117D01*
X17261Y9129D01*
X17267Y9135D01*
X17261Y9141D01*
X17267Y9148D01*
X17261Y9154D01*
X17267Y9160D01*
X17261Y9166D01*
X17267Y9172D01*
X17255Y9185D01*
X17261Y9191D01*
X17255Y9197D01*
X17261Y9203D01*
X17255Y9209D01*
X17261Y9216D01*
X17255Y9222D01*
X17261Y9228D01*
X17255Y9234D01*
X17261Y9240D01*
X17243Y9259D01*
X17236Y9253D01*
X17230Y9259D01*
X17224Y9253D01*
X17212Y9265D01*
X17206Y9259D01*
X17199Y9265D01*
X17193Y9259D01*
X17181Y9271D01*
X17175Y9265D01*
X17168Y9271D01*
X17162Y9265D01*
X17150Y9278D01*
X17144Y9271D01*
X17138Y9278D01*
X17131Y9271D01*
X17119Y9284D01*
X17113Y9278D01*
X17100Y9290D01*
X17094Y9284D01*
X17082Y9296D01*
X17076Y9290D01*
X17063Y9302D01*
X17057Y9296D01*
X17045Y9308D01*
X17039Y9302D01*
X17026Y9315D01*
X17020Y9308D01*
X17008Y9321D01*
X17001Y9315D01*
X16983Y9333D01*
X16977Y9327D01*
X16964Y9339D01*
X16958Y9333D01*
X16946Y9346D01*
X16940Y9339D01*
X16921Y9358D01*
X16915Y9352D01*
X16896Y9370D01*
X16890Y9364D01*
X16878Y9376D01*
X16872Y9370D01*
X16847Y9395D01*
X16841Y9389D01*
X16816Y9414D01*
X16810Y9407D01*
X16791Y9426D01*
X16797Y9432D01*
X16779Y9451D01*
X16785Y9457D01*
X16779Y9463D01*
X16785Y9469D01*
X16779Y9475D01*
X16785Y9482D01*
X16779Y9488D01*
X16834Y9543D01*
X16841Y9537D01*
X16865Y9562D01*
X16872Y9556D01*
X16890Y9574D01*
X16896Y9568D01*
X16909Y9581D01*
X16915Y9574D01*
X16933Y9593D01*
X16940Y9587D01*
X16952Y9599D01*
X16958Y9593D01*
X16977Y9611D01*
X16983Y9605D01*
X16995Y9618D01*
X17001Y9611D01*
X17014Y9624D01*
X17020Y9618D01*
X17032Y9630D01*
X17039Y9624D01*
X17057Y9642D01*
X17063Y9636D01*
X17076Y9649D01*
X17082Y9642D01*
X17094Y9655D01*
X17100Y9649D01*
X17113Y9661D01*
X17119Y9655D01*
X17125Y9661D01*
X17131Y9655D01*
X17144Y9667D01*
X17150Y9661D01*
X17156Y9667D01*
X17162Y9661D01*
X17175Y9673D01*
X17181Y9667D01*
X17187Y9673D01*
X17193Y9667D01*
X17206Y9679D01*
X17212Y9673D01*
X17218Y9679D01*
X17224Y9673D01*
X17236Y9686D01*
X17243Y9679D01*
X17249Y9686D01*
X17255Y9679D01*
X17261Y9686D01*
X17255Y9692D01*
X17261Y9698D01*
X17255Y9704D01*
X17261Y9710D01*
X17255Y9717D01*
X17261Y9723D01*
X17255Y9729D01*
X17261Y9735D01*
X17255Y9741D01*
X17267Y9754D01*
X17261Y9760D01*
X17267Y9766D01*
X17261Y9772D01*
X17267Y9778D01*
X17261Y9785D01*
X17267Y9791D01*
X17261Y9797D01*
X17267Y9803D01*
X17261Y9809D01*
X17280Y9828D01*
X17274Y9834D01*
X17298Y9859D01*
X17292Y9865D01*
X17329Y9902D01*
X17335Y9896D01*
X17360Y9921D01*
X17366Y9914D01*
X17379Y9927D01*
X17385Y9921D01*
X17397Y9933D01*
X17403Y9927D01*
X17422Y9945D01*
X17428Y9939D01*
X17434Y9945D01*
X17441Y9939D01*
X17453Y9952D01*
X17459Y9945D01*
X17471Y9958D01*
X17478Y9952D01*
X17490Y9964D01*
X17496Y9958D01*
X17509Y9970D01*
X17515Y9964D01*
X17527Y9976D01*
X17533Y9970D01*
X17539Y9976D01*
X17546Y9970D01*
X17558Y9983D01*
X17564Y9976D01*
X17577Y9989D01*
X17583Y9983D01*
X17589Y9989D01*
X17595Y9983D01*
X17608Y9995D01*
X17614Y9989D01*
X17620Y9995D01*
X17626Y9989D01*
X17638Y10001D01*
X17645Y9995D01*
X17657Y10007D01*
X17663Y10001D01*
X17669Y10007D01*
X17676Y10001D01*
X17688Y10013D01*
X17694Y10007D01*
X17700Y10013D01*
X17706Y10007D01*
X17719Y10020D01*
X17725Y10013D01*
X17731Y10020D01*
X17737Y10013D01*
X17750Y10026D01*
X17756Y10020D01*
X17762Y10026D01*
X17768Y10020D01*
X17781Y10032D01*
X17787Y10026D01*
X17793Y10032D01*
X17799Y10026D01*
X17812Y10038D01*
X17818Y10032D01*
X17824Y10038D01*
X17830Y10032D01*
X17843Y10044D01*
X17849Y10038D01*
X17855Y10044D01*
X17861Y10038D01*
X17867Y10044D01*
X17873Y10038D01*
X17886Y10051D01*
X17892Y10044D01*
X17898Y10051D01*
X17904Y10044D01*
X17917Y10057D01*
X17923Y10051D01*
X17929Y10057D01*
X17935Y10051D01*
X17948Y10063D01*
X17954Y10057D01*
X17960Y10063D01*
X17966Y10057D01*
X17972Y10063D01*
X17979Y10057D01*
X17991Y10069D01*
X17997Y10063D01*
X18003Y10069D01*
X18009Y10063D01*
X18016Y10069D01*
X18022Y10063D01*
X18034Y10075D01*
X18040Y10069D01*
X18047Y10075D01*
X18053Y10069D01*
X18059Y10075D01*
X18065Y10069D01*
X18077Y10081D01*
X18084Y10075D01*
X18090Y10081D01*
X18096Y10075D01*
X18102Y10081D01*
X18108Y10075D01*
X18121Y10088D01*
X18127Y10081D01*
X18133Y10088D01*
X18139Y10081D01*
X18146Y10088D01*
X18152Y10081D01*
X18164Y10094D01*
X18170Y10088D01*
X18176Y10094D01*
X18183Y10088D01*
X18189Y10094D01*
X18195Y10088D01*
X18207Y10100D01*
X18214Y10094D01*
X18220Y10100D01*
X18226Y10094D01*
X18232Y10100D01*
X18238Y10094D01*
X18244Y10100D01*
X18251Y10094D01*
X18263Y10106D01*
X18269Y10100D01*
X18275Y10106D01*
X18282Y10100D01*
X18288Y10106D01*
X18294Y10100D01*
X18300Y10106D01*
X18306Y10100D01*
X18319Y10112D01*
X18325Y10106D01*
X18331Y10112D01*
X18337Y10106D01*
X18343Y10112D01*
X18350Y10106D01*
X18356Y10112D01*
X18362Y10106D01*
X18368Y10112D01*
X18374Y10106D01*
X18387Y10119D01*
X18393Y10112D01*
X18399Y10119D01*
X18405Y10112D01*
X18411Y10119D01*
X18418Y10112D01*
X18424Y10119D01*
X18430Y10112D01*
X18436Y10119D01*
X18442Y10112D01*
X18449Y10119D01*
X18455Y10112D01*
X18461Y10119D01*
X18467Y10112D01*
X18473Y10119D01*
X18479Y10112D01*
X18492Y10125D01*
X18498Y10119D01*
X18504Y10125D01*
X18510Y10119D01*
X18517Y10125D01*
X18523Y10119D01*
X18529Y10125D01*
X18535Y10119D01*
X18541Y10125D01*
X18548Y10119D01*
X18554Y10125D01*
X18560Y10119D01*
X18566Y10125D01*
X18572Y10119D01*
X18578Y10125D01*
X18585Y10119D01*
X18591Y10125D01*
X18597Y10119D01*
X18603Y10125D01*
X18609Y10119D01*
X18616Y10125D01*
X18622Y10119D01*
X18628Y10125D01*
X18634Y10119D01*
X18640Y10125D01*
X18646Y10119D01*
X18653Y10125D01*
X18659Y10119D01*
X18665Y10125D01*
X18671Y10119D01*
X18677Y10125D01*
X18684Y10119D01*
X18690Y10125D01*
X18696Y10119D01*
X18702Y10125D01*
X18708Y10119D01*
X18721Y10131D01*
X18727Y10125D01*
X18733Y10131D01*
X18739Y10125D01*
X18745Y10131D01*
X18752Y10125D01*
X18758Y10131D01*
X18764Y10125D01*
X18770Y10131D01*
X18776Y10125D01*
X18782Y10131D01*
X18789Y10125D01*
X18801Y10137D01*
X18807Y10131D01*
X18813Y10137D01*
X18820Y10131D01*
X18826Y10137D01*
X18832Y10131D01*
X18844Y10143D01*
X18851Y10137D01*
X18863Y10149D01*
X18869Y10143D01*
X18875Y10149D01*
X18881Y10143D01*
X18894Y10156D01*
X18900Y10149D01*
X18937Y10187D01*
X18931Y10193D01*
X18949Y10211D01*
X18943Y10218D01*
X18962Y10236D01*
X18956Y10242D01*
X18974Y10261D01*
X18968Y10267D01*
X18987Y10286D01*
X18980Y10292D01*
X18993Y10304D01*
X18987Y10310D01*
X19005Y10329D01*
X18999Y10335D01*
X19018Y10354D01*
X19011Y10360D01*
X19024Y10372D01*
X19018Y10378D01*
X19036Y10397D01*
X19030Y10403D01*
X19042Y10415D01*
X19036Y10422D01*
X19048Y10434D01*
X19042Y10440D01*
X19061Y10459D01*
X19055Y10465D01*
X19067Y10477D01*
X19061Y10483D01*
X19073Y10496D01*
X19067Y10502D01*
X19086Y10521D01*
X19079Y10527D01*
X19092Y10539D01*
X19086Y10545D01*
X19098Y10558D01*
X19092Y10564D01*
X19104Y10576D01*
X19098Y10582D01*
X19110Y10595D01*
X19104Y10601D01*
X19116Y10613D01*
X19110Y10619D01*
X19123Y10632D01*
X19116Y10638D01*
X19129Y10650D01*
X19123Y10657D01*
X19129Y10663D01*
X19123Y10669D01*
X19135Y10681D01*
X19129Y10688D01*
X19141Y10700D01*
X19135Y10706D01*
X19141Y10712D01*
X19135Y10718D01*
X19147Y10731D01*
X19141Y10737D01*
X19147Y10743D01*
X19141Y10749D01*
X19154Y10762D01*
X19147Y10768D01*
X19154Y10774D01*
X19147Y10780D01*
X19154Y10786D01*
X19147Y10793D01*
X19160Y10805D01*
X19154Y10811D01*
X19160Y10817D01*
X19154Y10824D01*
X19160Y10830D01*
X19154Y10836D01*
X19166Y10848D01*
X19160Y10854D01*
X19166Y10861D01*
X19160Y10867D01*
X19166Y10873D01*
X19160Y10879D01*
X19172Y10892D01*
X19166Y10898D01*
X19172Y10904D01*
X19166Y10910D01*
X19172Y10916D01*
X19166Y10923D01*
X19172Y10929D01*
X19166Y10935D01*
X19178Y10947D01*
X19172Y10953D01*
X19178Y10960D01*
X19172Y10966D01*
X19178Y10972D01*
X19172Y10978D01*
X19178Y10984D01*
X19172Y10991D01*
X19184Y11003D01*
X19178Y11009D01*
X19184Y11015D01*
X19178Y11021D01*
X19184Y11028D01*
X19178Y11034D01*
X19184Y11040D01*
X19178Y11046D01*
X19184Y11052D01*
X19178Y11059D01*
X19184Y11065D01*
X19178Y11071D01*
X19191Y11083D01*
X19184Y11089D01*
X19191Y11096D01*
X19184Y11102D01*
X19191Y11108D01*
X19184Y11114D01*
X19191Y11120D01*
X19184Y11127D01*
X19191Y11133D01*
X19184Y11139D01*
X19197Y11151D01*
X19191Y11158D01*
X19197Y11164D01*
X19191Y11170D01*
X19197Y11176D01*
X19191Y11182D01*
X19197Y11188D01*
X19191Y11195D01*
X19197Y11201D01*
X19191Y11207D01*
X19197Y11213D01*
X19191Y11219D01*
X19203Y11232D01*
X19197Y11238D01*
X19203Y11244D01*
X19197Y11250D01*
X19203Y11256D01*
X19197Y11263D01*
X19203Y11269D01*
X19197Y11275D01*
X19203Y11281D01*
X19197Y11287D01*
X19203Y11294D01*
X19197Y11300D01*
X19203Y11306D01*
X19197Y11312D01*
X19209Y11324D01*
X19203Y11331D01*
X19209Y11337D01*
X19203Y11343D01*
X19209Y11349D01*
X19203Y11355D01*
X19209Y11362D01*
X19203Y11368D01*
X19209Y11374D01*
X19203Y11380D01*
X19209Y11386D01*
X19203Y11393D01*
X19209Y11399D01*
X19203Y11405D01*
X19209Y11411D01*
X19203Y11417D01*
X19215Y11430D01*
X19209Y11436D01*
X19215Y11442D01*
X19209Y11448D01*
X19215Y11454D01*
X19209Y11461D01*
X19215Y11467D01*
X19209Y11473D01*
X19215Y11479D01*
X19209Y11485D01*
X19215Y11491D01*
X19209Y11498D01*
X19215Y11504D01*
X19209Y11510D01*
X19222Y11522D01*
X19215Y11529D01*
X19222Y11535D01*
X19215Y11541D01*
X19222Y11547D01*
X19215Y11553D01*
X19222Y11559D01*
X19215Y11566D01*
X19222Y11572D01*
X19215Y11578D01*
X19222Y11584D01*
X19215Y11590D01*
X19222Y11597D01*
X19215Y11603D01*
X19228Y11615D01*
X19222Y11621D01*
X19228Y11628D01*
X19222Y11634D01*
X19228Y11640D01*
X19222Y11646D01*
X19228Y11652D01*
X19222Y11658D01*
X19228Y11665D01*
X19222Y11671D01*
X19228Y11677D01*
X19222Y11683D01*
X19228Y11689D01*
X19222Y11696D01*
X19228Y11702D01*
X19222Y11708D01*
X19234Y11720D01*
X19228Y11726D01*
X19234Y11733D01*
X19228Y11739D01*
X19234Y11745D01*
X19228Y11751D01*
X19234Y11757D01*
X19228Y11764D01*
X19234Y11770D01*
X19228Y11776D01*
X19234Y11782D01*
X19228Y11788D01*
X19234Y11794D01*
X19228Y11801D01*
X19234Y11807D01*
X19228Y11813D01*
X19234Y11819D01*
X19228Y11825D01*
X19240Y11838D01*
X19234Y11844D01*
X19240Y11850D01*
X19234Y11856D01*
X19240Y11863D01*
X19234Y11869D01*
X19240Y11875D01*
X19234Y11881D01*
X19240Y11887D01*
X19234Y11893D01*
X19240Y11900D01*
X19234Y11906D01*
X19240Y11912D01*
X19234Y11918D01*
X19240Y11924D01*
X19234Y11931D01*
X19246Y11943D01*
X19240Y11949D01*
X19246Y11955D01*
X19240Y11961D01*
X19246Y11968D01*
X19240Y11974D01*
X19246Y11980D01*
X19240Y11986D01*
X19246Y11992D01*
X19240Y11999D01*
X19246Y12005D01*
X19240Y12011D01*
X19246Y12017D01*
X19240Y12023D01*
X19246Y12029D01*
X19240Y12036D01*
X19253Y12048D01*
X19246Y12054D01*
X19253Y12060D01*
X19246Y12067D01*
X19253Y12073D01*
X19246Y12079D01*
X19253Y12085D01*
X19246Y12091D01*
X19253Y12098D01*
X19246Y12104D01*
X19253Y12110D01*
X19246Y12116D01*
X19253Y12122D01*
X19246Y12128D01*
X19253Y12135D01*
X19246Y12141D01*
X19253Y12147D01*
X19246Y12153D01*
X19259Y12166D01*
X19253Y12172D01*
X19259Y12178D01*
X19253Y12184D01*
X19259Y12190D01*
X19253Y12196D01*
X19259Y12203D01*
X19253Y12209D01*
X19259Y12215D01*
X19253Y12221D01*
X19259Y12227D01*
X19253Y12234D01*
X19259Y12240D01*
X19253Y12246D01*
X19259Y12252D01*
X19253Y12258D01*
X19259Y12264D01*
X19253Y12271D01*
X19265Y12283D01*
X19259Y12289D01*
X19265Y12295D01*
X19259Y12302D01*
X19265Y12308D01*
X19259Y12314D01*
X19265Y12320D01*
X19259Y12326D01*
X19265Y12333D01*
X19259Y12339D01*
X19265Y12345D01*
X19259Y12351D01*
X19265Y12357D01*
X19259Y12363D01*
X19265Y12370D01*
X19259Y12376D01*
X19271Y12388D01*
X19265Y12394D01*
X19271Y12401D01*
X19265Y12407D01*
X19271Y12413D01*
X19265Y12419D01*
X19271Y12425D01*
X19265Y12431D01*
X19271Y12438D01*
X19265Y12444D01*
X19271Y12450D01*
X19265Y12456D01*
X19271Y12462D01*
X19265Y12469D01*
X19271Y12475D01*
X19265Y12481D01*
X19271Y12487D01*
X19265Y12493D01*
X19277Y12506D01*
X19271Y12512D01*
X19277Y12518D01*
X19271Y12524D01*
X19277Y12530D01*
X19271Y12537D01*
X19277Y12543D01*
X19271Y12549D01*
X19277Y12555D01*
X19271Y12561D01*
X19277Y12568D01*
X19271Y12574D01*
X19277Y12580D01*
X19271Y12586D01*
X19277Y12592D01*
X19271Y12598D01*
X19277Y12605D01*
X19271Y12611D01*
X19283Y12623D01*
X19277Y12629D01*
X19283Y12636D01*
X19277Y12642D01*
X19283Y12648D01*
X19277Y12654D01*
X19283Y12660D01*
X19277Y12666D01*
X19283Y12673D01*
X19277Y12679D01*
X19283Y12685D01*
X19277Y12691D01*
X19283Y12697D01*
X19277Y12704D01*
X19283Y12710D01*
X19277Y12716D01*
X19283Y12722D01*
X19277Y12728D01*
X19290Y12741D01*
X19283Y12747D01*
X19290Y12753D01*
X19283Y12759D01*
X19290Y12765D01*
X19283Y12772D01*
X19290Y12778D01*
X19283Y12784D01*
X19290Y12790D01*
X19283Y12796D01*
X19290Y12803D01*
X19283Y12809D01*
X19290Y12815D01*
X19283Y12821D01*
X19290Y12827D01*
X19283Y12833D01*
X19296Y12846D01*
X19290Y12852D01*
X19296Y12858D01*
X19290Y12864D01*
X19296Y12871D01*
X19290Y12877D01*
X19296Y12883D01*
X19290Y12889D01*
X19296Y12895D01*
X19290Y12901D01*
X19296Y12908D01*
X19290Y12914D01*
X19296Y12920D01*
X19290Y12926D01*
X19296Y12932D01*
X19290Y12939D01*
X19296Y12945D01*
X19290Y12951D01*
X19302Y12963D01*
X19296Y12969D01*
X19302Y12976D01*
X19296Y12982D01*
X19302Y12988D01*
X19296Y12994D01*
X19302Y13000D01*
X19296Y13007D01*
X19302Y13013D01*
X19296Y13019D01*
X19302Y13025D01*
X19296Y13031D01*
X19302Y13038D01*
X19296Y13044D01*
X19302Y13050D01*
X19296Y13056D01*
X19302Y13062D01*
X19296Y13068D01*
X19308Y13081D01*
X19302Y13087D01*
X19308Y13093D01*
X19302Y13099D01*
X19308Y13106D01*
X19302Y13112D01*
X19308Y13118D01*
X19302Y13124D01*
X19308Y13130D01*
X19302Y13136D01*
X19308Y13143D01*
X19302Y13149D01*
X19308Y13155D01*
X19302Y13161D01*
X19308Y13167D01*
X19302Y13174D01*
X19308Y13180D01*
X19314Y13186D01*
D02*
G37*
D49*
X6050Y7627D02*
G03*
X7550Y9127I0J1500D01*
G01*
X5750Y10882D02*
Y11764D01*
Y9402D02*
Y10180D01*
X5105Y9404D02*
X5750D01*
X3388Y9402D02*
X4394D01*
X7550D02*
X7904Y9048D01*
X7197D02*
X7550Y9402D01*
X7197Y9048D02*
X7904D01*
X4395Y9793D02*
X5102D01*
X6227Y10184D02*
Y10891D01*
X5305Y10538D02*
X6580D01*
X6227Y10891D02*
X6580Y10538D01*
X6227Y10184D02*
X6580Y10538D01*
X5750Y11764D02*
X6195Y11319D01*
X5305D02*
X5750Y11764D01*
X5305Y11319D02*
X6195D01*
X5528Y11542D02*
X5973D01*
X3388Y9402D02*
X3833Y8957D01*
X3388Y9402D02*
X3833Y9847D01*
X3610Y9179D02*
Y9624D01*
X3833Y8957D02*
Y9847D01*
X4748Y10147D02*
X5102Y9793D01*
X4395D02*
X4748Y10147D01*
Y8872D02*
Y10147D01*
X12351Y9295D02*
X15460D01*
Y9454D01*
X12351Y9613D02*
X15460D01*
Y9454D02*
Y9613D01*
X12115Y9228D02*
Y9781D01*
X12307Y8960D02*
Y9941D01*
X11965Y9726D02*
X12485Y10246D01*
Y8662D02*
Y10246D01*
X11693Y9454D02*
X12485Y8662D01*
X11693Y9454D02*
X12485Y10246D01*
X11693Y9454D02*
X15460D01*
X74420Y20750D02*
Y27125D01*
X55445Y20750D02*
Y27125D01*
X22430Y24644D02*
Y27184D01*
X37670D01*
Y24644D02*
Y27184D01*
X22430Y24644D02*
X37670D01*
X24970D02*
Y27184D01*
D50*
X24250Y18935D02*
G03*
X24250Y18935I-125J0D01*
G01*
X41366Y20116D02*
G03*
X41366Y20116I-125J0D01*
G01*
X27100Y16850D02*
G03*
X27100Y16850I-125J0D01*
G01*
X58045Y15495D02*
G03*
X58045Y15495I-125J0D01*
G01*
X110075Y14000D02*
G03*
X110075Y14000I-125J0D01*
G01*
D51*
X105475Y9775D02*
G03*
X105475Y9775I-100J0D01*
G01*
X30005Y19395D02*
G03*
X30005Y19395I-100J0D01*
G01*
X80520Y12460D02*
G03*
X80520Y12460I-100J0D01*
G01*
X3830Y12841D02*
G03*
X3830Y12841I-100J0D01*
G01*
X17007Y8157D02*
Y10792D01*
X20900Y19840D02*
Y22190D01*
X14600Y17885D02*
X20900D01*
X14600Y19840D02*
Y22190D01*
Y24185D02*
X20900D01*
X96777Y4450D02*
X97299D01*
X96777Y6568D02*
Y7350D01*
Y4450D02*
Y5232D01*
Y7350D02*
X97299D01*
X43716Y22191D02*
Y22941D01*
X41916Y23441D02*
X42466D01*
X40666Y22191D02*
Y22941D01*
X28750Y14850D02*
Y15050D01*
X26650Y14850D02*
Y15050D01*
X67500Y16480D02*
Y17695D01*
Y8305D02*
Y9520D01*
X60550Y8305D02*
X67500D01*
X60550Y16480D02*
Y17695D01*
Y8305D02*
Y9520D01*
Y17695D02*
X67500D01*
X82000Y18100D02*
X83000D01*
Y18400D01*
X82000Y18100D02*
Y18400D01*
X119500Y12800D02*
Y17200D01*
X111900Y18950D02*
X115900D01*
X111900Y18150D02*
Y18950D01*
Y18150D02*
X113500D01*
Y16900D02*
Y18150D01*
Y11850D02*
Y13100D01*
X111900Y11850D02*
X113500D01*
X111900Y11050D02*
Y11850D01*
Y11050D02*
X115900D01*
X7397Y7591D02*
X8063D01*
X7730Y7925D02*
Y7258D01*
X8396Y8091D02*
X9063D01*
Y7925D01*
X8396Y7258D01*
Y7091D01*
X9063D01*
X7035Y10574D02*
X7702D01*
X7369Y10907D02*
Y10241D01*
X8035Y11074D02*
X8701Y10074D01*
Y11074D02*
X8035Y10074D01*
X3525Y7591D02*
X4192D01*
X3858Y7925D02*
Y7258D01*
X4525Y8091D02*
Y7925D01*
X4858Y7591D01*
X5191Y7925D01*
Y8091D01*
X4858Y7591D02*
Y7091D01*
X56163Y24398D02*
Y25397D01*
X56663D01*
X56830Y25231D01*
Y24897D01*
X56663Y24731D01*
X56163D01*
X57163Y25064D02*
Y24398D01*
Y24731D01*
X57329Y24897D01*
X57496Y25064D01*
X57663D01*
X58329Y24398D02*
X58662D01*
X58829Y24564D01*
Y24897D01*
X58662Y25064D01*
X58329D01*
X58163Y24897D01*
Y24564D01*
X58329Y24398D01*
X59162Y24064D02*
X59329D01*
X59495Y24231D01*
Y25064D01*
X60662Y24398D02*
X60329D01*
X60162Y24564D01*
Y24897D01*
X60329Y25064D01*
X60662D01*
X60828Y24897D01*
Y24731D01*
X60162D01*
X61328Y25231D02*
Y25064D01*
X61162D01*
X61495D01*
X61328D01*
Y24564D01*
X61495Y24398D01*
X62994D02*
Y25064D01*
X63494D01*
X63661Y24897D01*
Y24398D01*
X63994Y25064D02*
Y24564D01*
X64161Y24398D01*
X64660D01*
Y25064D01*
X64994Y24398D02*
Y25064D01*
X65160D01*
X65327Y24897D01*
Y24398D01*
Y24897D01*
X65494Y25064D01*
X65660Y24897D01*
Y24398D01*
X66493D02*
X66160D01*
X65993Y24564D01*
Y24897D01*
X66160Y25064D01*
X66493D01*
X66660Y24897D01*
Y24731D01*
X65993D01*
X66993Y25064D02*
Y24398D01*
Y24731D01*
X67160Y24897D01*
X67326Y25064D01*
X67493D01*
X68159Y24398D02*
X68493D01*
X68659Y24564D01*
Y24897D01*
X68493Y25064D01*
X68159D01*
X67993Y24897D01*
Y24564D01*
X68159Y24398D01*
X70659D02*
X69992D01*
X70659Y25064D01*
Y25231D01*
X70492Y25397D01*
X70159D01*
X69992Y25231D01*
X71658Y24398D02*
X70992D01*
X71658Y25064D01*
Y25231D01*
X71492Y25397D01*
X71158D01*
X70992Y25231D01*
X71991D02*
X72158Y25397D01*
X72491D01*
X72658Y25231D01*
Y25064D01*
X72491Y24897D01*
X72325D01*
X72491D01*
X72658Y24731D01*
Y24564D01*
X72491Y24398D01*
X72158D01*
X71991Y24564D01*
X72991Y25231D02*
X73158Y25397D01*
X73491D01*
X73658Y25231D01*
Y24564D01*
X73491Y24398D01*
X73158D01*
X72991Y24564D01*
Y25231D01*
X56163Y27089D02*
X56830D01*
X56496D01*
Y26089D01*
X57163Y26756D02*
Y26256D01*
X57329Y26089D01*
X57829D01*
Y26756D01*
X58163Y27089D02*
Y26089D01*
X58662D01*
X58829Y26256D01*
Y26423D01*
Y26589D01*
X58662Y26756D01*
X58163D01*
X59662Y26089D02*
X59329D01*
X59162Y26256D01*
Y26589D01*
X59329Y26756D01*
X59662D01*
X59829Y26589D01*
Y26423D01*
X59162D01*
X61162Y26089D02*
Y27089D01*
X61661D01*
X61828Y26922D01*
Y26589D01*
X61661Y26423D01*
X61162D01*
X62161Y26089D02*
X62494D01*
X62328D01*
Y26756D01*
X62161D01*
X63161Y26922D02*
Y26756D01*
X62994D01*
X63328D01*
X63161D01*
Y26256D01*
X63328Y26089D01*
X63994D02*
X64327D01*
X64494Y26256D01*
Y26589D01*
X64327Y26756D01*
X63994D01*
X63827Y26589D01*
Y26256D01*
X63994Y26089D01*
X64994Y26922D02*
Y26756D01*
X64827D01*
X65160D01*
X64994D01*
Y26256D01*
X65160Y26089D01*
X67326Y27089D02*
Y26089D01*
X66826D01*
X66660Y26256D01*
Y26589D01*
X66826Y26756D01*
X67326D01*
X68159Y26089D02*
X67826D01*
X67659Y26256D01*
Y26589D01*
X67826Y26756D01*
X68159D01*
X68326Y26589D01*
Y26423D01*
X67659D01*
X68659Y25756D02*
Y26756D01*
X69159D01*
X69326Y26589D01*
Y26256D01*
X69159Y26089D01*
X68659D01*
X69825D02*
X70159D01*
X70325Y26256D01*
Y26589D01*
X70159Y26756D01*
X69825D01*
X69659Y26589D01*
Y26256D01*
X69825Y26089D01*
X70659Y26756D02*
Y26089D01*
Y26423D01*
X70825Y26589D01*
X70992Y26756D01*
X71158D01*
X71825Y26922D02*
Y26756D01*
X71658D01*
X71991D01*
X71825D01*
Y26256D01*
X71991Y26089D01*
X72991D02*
X72658D01*
X72491Y26256D01*
Y26589D01*
X72658Y26756D01*
X72991D01*
X73158Y26589D01*
Y26423D01*
X72491D01*
X56163Y20980D02*
Y21979D01*
X56496Y21646D01*
X56830Y21979D01*
Y20980D01*
X57663D02*
X57329D01*
X57163Y21146D01*
Y21479D01*
X57329Y21646D01*
X57663D01*
X57829Y21479D01*
Y21313D01*
X57163D01*
X58163Y21646D02*
X58496Y20980D01*
X58829Y21646D01*
X59662Y20980D02*
X59329D01*
X59162Y21146D01*
Y21479D01*
X59329Y21646D01*
X59662D01*
X59829Y21479D01*
Y21313D01*
X59162D01*
X60162Y20980D02*
Y21646D01*
X60662D01*
X60828Y21479D01*
Y20980D01*
X62161D02*
Y21979D01*
X62661D01*
X62828Y21813D01*
Y21479D01*
X62661Y21313D01*
X62161D01*
X62494D02*
X62828Y20980D01*
X63161D02*
X63494D01*
X63328D01*
Y21646D01*
X63161D01*
X64660D02*
X64161D01*
X63994Y21479D01*
Y21146D01*
X64161Y20980D01*
X64660D01*
X65660Y21646D02*
X65160D01*
X64994Y21479D01*
Y21146D01*
X65160Y20980D01*
X65660D01*
X65993Y21979D02*
Y20980D01*
Y21479D01*
X66160Y21646D01*
X66493D01*
X66660Y21479D01*
Y20980D01*
X66993D02*
X67326D01*
X67160D01*
Y21646D01*
X66993D01*
X68326Y20980D02*
X67993D01*
X67826Y21146D01*
Y21479D01*
X67993Y21646D01*
X68326D01*
X68493Y21479D01*
Y21313D01*
X67826D01*
X68826Y21646D02*
Y20980D01*
Y21313D01*
X68992Y21479D01*
X69159Y21646D01*
X69326D01*
X69825Y20980D02*
X70159D01*
X69992D01*
Y21646D01*
X69825D01*
X56163Y23296D02*
X56496Y22630D01*
X56830Y23296D01*
X57163Y22630D02*
X57496D01*
X57329D01*
Y23629D01*
X57163Y23463D01*
X57996Y22630D02*
Y22796D01*
X58163D01*
Y22630D01*
X57996D01*
X58829Y23463D02*
X58996Y23629D01*
X59329D01*
X59495Y23463D01*
Y22796D01*
X59329Y22630D01*
X58996D01*
X58829Y22796D01*
Y23463D01*
X59829Y22630D02*
Y22796D01*
X59995D01*
Y22630D01*
X59829D01*
X60662Y23463D02*
X60828Y23629D01*
X61162D01*
X61328Y23463D01*
Y22796D01*
X61162Y22630D01*
X60828D01*
X60662Y22796D01*
Y23463D01*
X69134Y2842D02*
Y3842D01*
X69633D01*
X69800Y3675D01*
Y3342D01*
X69633Y3175D01*
X69134D01*
X70133Y2842D02*
X70466D01*
X70300D01*
Y3842D01*
X70133Y3675D01*
X11008Y15783D02*
X10842Y15950D01*
X10509D01*
X10342Y15783D01*
Y15117D01*
X10509Y14950D01*
X10842D01*
X11008Y15117D01*
X11342Y15783D02*
X11508Y15950D01*
X11841D01*
X12008Y15783D01*
Y15617D01*
X11841Y15450D01*
X12008Y15283D01*
Y15117D01*
X11841Y14950D01*
X11508D01*
X11342Y15117D01*
Y15283D01*
X11508Y15450D01*
X11342Y15617D01*
Y15783D01*
X11508Y15450D02*
X11841D01*
X1351Y13962D02*
Y13129D01*
X1517Y12962D01*
X1851D01*
X2017Y13129D01*
Y13962D01*
X2850Y12962D02*
Y13962D01*
X2350Y13462D01*
X3017D01*
X20067Y25475D02*
Y26475D01*
X20567D01*
X20733Y26308D01*
Y25975D01*
X20567Y25809D01*
X20067D01*
X21733Y25475D02*
X21067D01*
X21733Y26142D01*
Y26308D01*
X21566Y26475D01*
X21233D01*
X21067Y26308D01*
X111967Y19475D02*
Y20475D01*
X112467D01*
X112633Y20308D01*
Y19975D01*
X112467Y19808D01*
X111967D01*
X112967Y20308D02*
X113133Y20475D01*
X113466D01*
X113633Y20308D01*
Y20142D01*
X113466Y19975D01*
X113300D01*
X113466D01*
X113633Y19808D01*
Y19642D01*
X113466Y19475D01*
X113133D01*
X112967Y19642D01*
X27034Y12890D02*
Y12723D01*
X27367Y12390D01*
X27700Y12723D01*
Y12890D01*
X27367Y12390D02*
Y11890D01*
X28034D02*
X28367D01*
X28200D01*
Y12890D01*
X28034Y12723D01*
X30442Y21775D02*
Y20942D01*
X30609Y20775D01*
X30942D01*
X31108Y20942D01*
Y21775D01*
X32108D02*
X31442D01*
Y21275D01*
X31775Y21442D01*
X31941D01*
X32108Y21275D01*
Y20942D01*
X31941Y20775D01*
X31608D01*
X31442Y20942D01*
X44542Y21775D02*
Y20942D01*
X44709Y20775D01*
X45042D01*
X45208Y20942D01*
Y21775D01*
X45542Y21608D02*
X45708Y21775D01*
X46041D01*
X46208Y21608D01*
Y21442D01*
X46041Y21275D01*
X45875D01*
X46041D01*
X46208Y21108D01*
Y20942D01*
X46041Y20775D01*
X45708D01*
X45542Y20942D01*
X79551Y27125D02*
X80217D01*
X79884D01*
Y26125D01*
X80550D02*
Y27125D01*
X81050D01*
X81217Y26958D01*
Y26625D01*
X81050Y26458D01*
X80550D01*
X81550Y26125D02*
X81883D01*
X81717D01*
Y27125D01*
X81550Y26958D01*
X82383D02*
X82550Y27125D01*
X82883D01*
X83049Y26958D01*
Y26292D01*
X82883Y26125D01*
X82550D01*
X82383Y26292D01*
Y26958D01*
X31192Y3800D02*
X31859D01*
X31525D01*
Y2800D01*
X32192D02*
Y3800D01*
X32692D01*
X32858Y3633D01*
Y3300D01*
X32692Y3133D01*
X32192D01*
X33191Y2967D02*
X33358Y2800D01*
X33691D01*
X33858Y2967D01*
Y3633D01*
X33691Y3800D01*
X33358D01*
X33191Y3633D01*
Y3467D01*
X33358Y3300D01*
X33858D01*
X43727Y3800D02*
X44394D01*
X44060D01*
Y2800D01*
X44727D02*
Y3800D01*
X45227D01*
X45393Y3633D01*
Y3300D01*
X45227Y3133D01*
X44727D01*
X45726Y3633D02*
X45893Y3800D01*
X46226D01*
X46393Y3633D01*
Y3467D01*
X46226Y3300D01*
X46393Y3133D01*
Y2967D01*
X46226Y2800D01*
X45893D01*
X45726Y2967D01*
Y3133D01*
X45893Y3300D01*
X45726Y3467D01*
Y3633D01*
X45893Y3300D02*
X46226D01*
X13142Y3850D02*
X13809D01*
X13475D01*
Y2850D01*
X14142D02*
Y3850D01*
X14642D01*
X14808Y3683D01*
Y3350D01*
X14642Y3183D01*
X14142D01*
X15141Y3850D02*
X15808D01*
Y3683D01*
X15141Y3017D01*
Y2850D01*
X5792Y3850D02*
X6459D01*
X6125D01*
Y2850D01*
X6792D02*
Y3850D01*
X7292D01*
X7458Y3683D01*
Y3350D01*
X7292Y3183D01*
X6792D01*
X8458Y3850D02*
X8125Y3683D01*
X7791Y3350D01*
Y3017D01*
X7958Y2850D01*
X8291D01*
X8458Y3017D01*
Y3183D01*
X8291Y3350D01*
X7791D01*
X100942Y27125D02*
X101609D01*
X101275D01*
Y26125D01*
X101942D02*
Y27125D01*
X102442D01*
X102608Y26958D01*
Y26625D01*
X102442Y26458D01*
X101942D01*
X103608Y27125D02*
X102941D01*
Y26625D01*
X103275Y26792D01*
X103441D01*
X103608Y26625D01*
Y26292D01*
X103441Y26125D01*
X103108D01*
X102941Y26292D01*
X111367Y27125D02*
X112034D01*
X111700D01*
Y26125D01*
X112367D02*
Y27125D01*
X112867D01*
X113033Y26958D01*
Y26625D01*
X112867Y26458D01*
X112367D01*
X113866Y26125D02*
Y27125D01*
X113366Y26625D01*
X114033D01*
X90652Y27125D02*
X91319D01*
X90985D01*
Y26125D01*
X91652D02*
Y27125D01*
X92152D01*
X92318Y26958D01*
Y26625D01*
X92152Y26458D01*
X91652D01*
X92651Y26958D02*
X92818Y27125D01*
X93151D01*
X93318Y26958D01*
Y26792D01*
X93151Y26625D01*
X92985D01*
X93151D01*
X93318Y26458D01*
Y26292D01*
X93151Y26125D01*
X92818D01*
X92651Y26292D01*
X5667Y27100D02*
X6334D01*
X6000D01*
Y26100D01*
X6667D02*
Y27100D01*
X7167D01*
X7333Y26933D01*
Y26600D01*
X7167Y26433D01*
X6667D01*
X8333Y26100D02*
X7666D01*
X8333Y26767D01*
Y26933D01*
X8166Y27100D01*
X7833D01*
X7666Y26933D01*
X82584Y3825D02*
X83250D01*
X82917D01*
Y2825D01*
X83583D02*
Y3825D01*
X84083D01*
X84250Y3658D01*
Y3325D01*
X84083Y3158D01*
X83583D01*
X84583Y2825D02*
X84916D01*
X84750D01*
Y3825D01*
X84583Y3658D01*
X12809Y25733D02*
X12642Y25900D01*
X12309D01*
X12142Y25733D01*
Y25567D01*
X12309Y25400D01*
X12642D01*
X12809Y25233D01*
Y25067D01*
X12642Y24900D01*
X12309D01*
X12142Y25067D01*
X13142Y25900D02*
Y24900D01*
X13475Y25233D01*
X13808Y24900D01*
Y25900D01*
X14808Y24900D02*
X14141D01*
X14808Y25567D01*
Y25733D01*
X14641Y25900D01*
X14308D01*
X14141Y25733D01*
X63500Y19128D02*
X63334Y19295D01*
X63000D01*
X62834Y19128D01*
Y18962D01*
X63000Y18795D01*
X63334D01*
X63500Y18628D01*
Y18462D01*
X63334Y18295D01*
X63000D01*
X62834Y18462D01*
X63833Y19295D02*
Y18295D01*
X64167Y18628D01*
X64500Y18295D01*
Y19295D01*
X64833Y18295D02*
X65166D01*
X65000D01*
Y19295D01*
X64833Y19128D01*
X104300Y7300D02*
Y8300D01*
X104800D01*
X104967Y8133D01*
Y7800D01*
X104800Y7633D01*
X104300D01*
X104634D02*
X104967Y7300D01*
X105300D02*
X105633D01*
X105467D01*
Y8300D01*
X105300Y8133D01*
X106800Y8300D02*
X106133D01*
Y7800D01*
X106466Y7967D01*
X106633D01*
X106800Y7800D01*
Y7467D01*
X106633Y7300D01*
X106300D01*
X106133Y7467D01*
X28100Y7700D02*
Y8700D01*
X28600D01*
X28767Y8533D01*
Y8200D01*
X28600Y8033D01*
X28100D01*
X28434D02*
X28767Y7700D01*
X29100D02*
X29433D01*
X29267D01*
Y8700D01*
X29100Y8533D01*
X30600Y7700D02*
X29933D01*
X30600Y8367D01*
Y8533D01*
X30433Y8700D01*
X30100D01*
X29933Y8533D01*
X39517Y7480D02*
Y8480D01*
X40017D01*
X40183Y8313D01*
Y7980D01*
X40017Y7813D01*
X39517D01*
X39850D02*
X40183Y7480D01*
X40517D02*
X40850D01*
X40683D01*
Y8480D01*
X40517Y8313D01*
X41350Y7480D02*
X41683D01*
X41516D01*
Y8480D01*
X41350Y8313D01*
X73170Y12850D02*
Y13850D01*
X73670D01*
X73837Y13683D01*
Y13350D01*
X73670Y13184D01*
X73170D01*
X73504D02*
X73837Y12850D01*
X74170D02*
X74503D01*
X74337D01*
Y13850D01*
X74170Y13683D01*
X75003D02*
X75170Y13850D01*
X75503D01*
X75670Y13683D01*
Y13017D01*
X75503Y12850D01*
X75170D01*
X75003Y13017D01*
Y13683D01*
X77117Y12700D02*
Y13700D01*
X77617D01*
X77783Y13533D01*
Y13200D01*
X77617Y13033D01*
X77117D01*
X77450D02*
X77783Y12700D01*
X78117Y12867D02*
X78283Y12700D01*
X78616D01*
X78783Y12867D01*
Y13533D01*
X78616Y13700D01*
X78283D01*
X78117Y13533D01*
Y13367D01*
X78283Y13200D01*
X78783D01*
X99482Y2925D02*
Y3925D01*
X99982D01*
X100148Y3758D01*
Y3425D01*
X99982Y3258D01*
X99482D01*
X99815D02*
X100148Y2925D01*
X101148Y3925D02*
X100482D01*
Y3425D01*
X100815Y3592D01*
X100981D01*
X101148Y3425D01*
Y3092D01*
X100981Y2925D01*
X100648D01*
X100482Y3092D01*
X89817Y2950D02*
Y3950D01*
X90317D01*
X90483Y3783D01*
Y3450D01*
X90317Y3283D01*
X89817D01*
X90150D02*
X90483Y2950D01*
X91316D02*
Y3950D01*
X90817Y3450D01*
X91483D01*
X79512Y20325D02*
Y21325D01*
X80012D01*
X80178Y21158D01*
Y20825D01*
X80012Y20658D01*
X79512D01*
X79845D02*
X80178Y20325D01*
X80512Y21158D02*
X80678Y21325D01*
X81011D01*
X81178Y21158D01*
Y20992D01*
X81011Y20825D01*
X80845D01*
X81011D01*
X81178Y20658D01*
Y20492D01*
X81011Y20325D01*
X80678D01*
X80512Y20492D01*
X108117Y7325D02*
Y8325D01*
X108617D01*
X108783Y8158D01*
Y7825D01*
X108617Y7658D01*
X108117D01*
X108450D02*
X108783Y7325D01*
X109783D02*
X109117D01*
X109783Y7992D01*
Y8158D01*
X109616Y8325D01*
X109283D01*
X109117Y8158D01*
X111884Y7300D02*
Y8300D01*
X112383D01*
X112550Y8133D01*
Y7800D01*
X112383Y7633D01*
X111884D01*
X112217D02*
X112550Y7300D01*
X112883D02*
X113216D01*
X113050D01*
Y8300D01*
X112883Y8133D01*
X96065Y8417D02*
Y9083D01*
X95898Y9250D01*
X95565D01*
X95399Y9083D01*
Y8417D01*
X95565Y8250D01*
X95898D01*
X95732Y8583D02*
X96065Y8250D01*
X95898D02*
X96065Y8417D01*
X96398Y8250D02*
X96731D01*
X96565D01*
Y9250D01*
X96398Y9083D01*
X81962Y21305D02*
Y20305D01*
X82629D01*
X83628Y21305D02*
X82962D01*
Y20305D01*
X83628D01*
X82962Y20805D02*
X83295D01*
X83962Y21305D02*
Y20305D01*
X84461D01*
X84628Y20472D01*
Y21138D01*
X84461Y21305D01*
X83962D01*
X84961Y20305D02*
X85295D01*
X85128D01*
Y21305D01*
X84961Y21138D01*
X106417Y20200D02*
Y19200D01*
X106917D01*
X107083Y19367D01*
Y20033D01*
X106917Y20200D01*
X106417D01*
X107916Y19200D02*
Y20200D01*
X107417Y19700D01*
X108083D01*
X82317Y11000D02*
Y10000D01*
X82817D01*
X82983Y10167D01*
Y10833D01*
X82817Y11000D01*
X82317D01*
X83983Y10000D02*
X83317D01*
X83983Y10667D01*
Y10833D01*
X83816Y11000D01*
X83483D01*
X83317Y10833D01*
X111134Y10225D02*
Y9225D01*
X111633D01*
X111800Y9392D01*
Y10058D01*
X111633Y10225D01*
X111134D01*
X112133Y9225D02*
X112466D01*
X112300D01*
Y10225D01*
X112133Y10058D01*
X78837Y15108D02*
X78670Y15275D01*
X78337D01*
X78171Y15108D01*
Y14442D01*
X78337Y14275D01*
X78670D01*
X78837Y14442D01*
X79170Y14275D02*
X79503D01*
X79337D01*
Y15275D01*
X79170Y15108D01*
X80003D02*
X80170Y15275D01*
X80503D01*
X80670Y15108D01*
Y14942D01*
X80503Y14775D01*
X80336D01*
X80503D01*
X80670Y14608D01*
Y14442D01*
X80503Y14275D01*
X80170D01*
X80003Y14442D01*
X2850Y20833D02*
X2684Y21000D01*
X2350D01*
X2184Y20833D01*
Y20167D01*
X2350Y20000D01*
X2684D01*
X2850Y20167D01*
X3184Y20000D02*
X3517D01*
X3350D01*
Y21000D01*
X3184Y20833D01*
X4017D02*
X4183Y21000D01*
X4516D01*
X4683Y20833D01*
Y20167D01*
X4516Y20000D01*
X4183D01*
X4017Y20167D01*
Y20833D01*
X3683Y18608D02*
X3517Y18775D01*
X3184D01*
X3017Y18608D01*
Y17942D01*
X3184Y17775D01*
X3517D01*
X3683Y17942D01*
X4017D02*
X4183Y17775D01*
X4516D01*
X4683Y17942D01*
Y18608D01*
X4516Y18775D01*
X4183D01*
X4017Y18608D01*
Y18442D01*
X4183Y18275D01*
X4683D01*
X36368Y22524D02*
X36202Y22691D01*
X35869D01*
X35702Y22524D01*
Y21858D01*
X35869Y21691D01*
X36202D01*
X36368Y21858D01*
X37368Y22691D02*
X37035Y22524D01*
X36702Y22191D01*
Y21858D01*
X36868Y21691D01*
X37201D01*
X37368Y21858D01*
Y22024D01*
X37201Y22191D01*
X36702D01*
X43183Y26183D02*
X43017Y26350D01*
X42684D01*
X42517Y26183D01*
Y25517D01*
X42684Y25350D01*
X43017D01*
X43183Y25517D01*
X44183Y26350D02*
X43517D01*
Y25850D01*
X43850Y26017D01*
X44016D01*
X44183Y25850D01*
Y25517D01*
X44016Y25350D01*
X43683D01*
X43517Y25517D01*
X86883Y16258D02*
X86717Y16425D01*
X86384D01*
X86217Y16258D01*
Y15592D01*
X86384Y15425D01*
X86717D01*
X86883Y15592D01*
X87217Y16258D02*
X87383Y16425D01*
X87716D01*
X87883Y16258D01*
Y16092D01*
X87716Y15925D01*
X87550D01*
X87716D01*
X87883Y15758D01*
Y15592D01*
X87716Y15425D01*
X87383D01*
X87217Y15592D01*
X91533Y14183D02*
X91367Y14350D01*
X91034D01*
X90867Y14183D01*
Y13517D01*
X91034Y13350D01*
X91367D01*
X91533Y13517D01*
X92533Y13350D02*
X91867D01*
X92533Y14017D01*
Y14183D01*
X92366Y14350D01*
X92033D01*
X91867Y14183D01*
X87500Y20083D02*
X87333Y20250D01*
X87000D01*
X86834Y20083D01*
Y19417D01*
X87000Y19250D01*
X87333D01*
X87500Y19417D01*
X87833Y19250D02*
X88166D01*
X88000D01*
Y20250D01*
X87833Y20083D01*
D52*
X5750Y9402D02*
D03*
D53*
X71555Y2092D02*
Y3342D01*
Y6042D02*
Y7142D01*
X80495Y2092D02*
Y3342D01*
Y6042D02*
Y7142D01*
X71555Y2092D02*
X80495D01*
X107920Y5015D02*
X109920D01*
X107920Y6795D02*
X109920D01*
X111430D02*
X113430D01*
X111430Y5015D02*
X113430D01*
X109525Y9000D02*
Y9095D01*
Y10455D02*
Y10550D01*
X106825Y9000D02*
Y9095D01*
Y10455D02*
Y10550D01*
Y9000D02*
X109525D01*
X106825Y10550D02*
X109525D01*
X104420Y5015D02*
X106420D01*
X104420Y6795D02*
X106420D01*
X92365Y4315D02*
X94365D01*
X92365Y2535D02*
X94365D01*
X102550Y2535D02*
X104550D01*
X102550Y4315D02*
X104550D01*
X39756Y21201D02*
Y23201D01*
X37976Y21201D02*
Y23201D01*
X81235Y17350D02*
Y19350D01*
X79455Y17350D02*
Y19350D01*
X89260Y20590D02*
X91260D01*
X89260Y18810D02*
X91260D01*
X86160Y12395D02*
Y14395D01*
X87940Y12395D02*
Y14395D01*
X81475Y15665D02*
X83475D01*
X81475Y13885D02*
X83475D01*
X37800Y9750D02*
Y10210D01*
X32200Y9750D02*
Y10210D01*
X37800Y19790D02*
Y20250D01*
X32200Y19790D02*
Y20250D01*
Y9750D02*
X37800D01*
X32200Y20250D02*
X37800D01*
X36535Y7085D02*
X38535D01*
X36535Y8865D02*
X38535D01*
X31665Y8865D02*
X33665D01*
X31665Y7085D02*
X33665D01*
X7985Y14435D02*
Y16435D01*
X9765Y14435D02*
Y16435D01*
X5685Y19240D02*
X7685D01*
X5685Y17460D02*
X7685D01*
X5697Y19660D02*
X7697D01*
X5697Y21440D02*
X7697D01*
X39306Y25026D02*
X41306D01*
X39306Y26806D02*
X41306D01*
X81870Y13235D02*
X84570D01*
X81870Y11685D02*
X84570D01*
X81870Y13140D02*
Y13235D01*
Y11685D02*
Y11780D01*
X84570Y13140D02*
Y13235D01*
Y11685D02*
Y11780D01*
X90885Y15615D02*
Y17615D01*
X92665Y15615D02*
Y17615D01*
X73205Y12135D02*
X75205D01*
X73205Y10355D02*
X75205D01*
X76835D02*
X78835D01*
X76835Y12135D02*
X78835D01*
X105125Y12300D02*
Y17700D01*
X109325Y12300D02*
Y17700D01*
X106025Y18700D02*
X108425D01*
X3750Y13500D02*
Y14055D01*
Y15945D02*
Y16500D01*
X6250Y13500D02*
Y14055D01*
Y15945D02*
Y16500D01*
X3750Y13500D02*
X3805D01*
X3750Y16500D02*
X3805D01*
X6195Y13500D02*
X6250D01*
X6195Y16500D02*
X6250D01*
D54*
X50458Y2875D02*
X49125D01*
X50458Y4208D01*
Y4541D01*
X50125Y4874D01*
X49458D01*
X49125Y4541D01*
X51124D02*
X51458Y4874D01*
X52124D01*
X52457Y4541D01*
Y3208D01*
X52124Y2875D01*
X51458D01*
X51124Y3208D01*
Y4541D01*
X54457Y2875D02*
X53124D01*
X54457Y4208D01*
Y4541D01*
X54123Y4874D01*
X53457D01*
X53124Y4541D01*
X55123D02*
X55456Y4874D01*
X56123D01*
X56456Y4541D01*
Y4208D01*
X56123Y3875D01*
X55790D01*
X56123D01*
X56456Y3541D01*
Y3208D01*
X56123Y2875D01*
X55456D01*
X55123Y3208D01*
%TF.MD5,ca5146967f723b9c7a9cd6c89fa057b6*%
M02*
