M48
;Layer_Color=9474304
;FILE_FORMAT=4:3
METRIC,LZ
;TYPE=PLATED
T1F00S00C0.300
T2F00S00C0.350
T4F00S00C0.762
T5F00S00C1.000
T6F00S00C10.000
%
T01
X0106025Y0003375
X011235Y001246
X0116325Y002465
X009305Y00197
X0089325Y0007597
X0090725Y0003425
X0076025Y001305
X00773Y0014775
X0073703Y0016475
X006775Y0014275
X00655Y0016475
X0064Y001305
X0062916Y0013025
X0061775Y001046
X00662Y0011025
Y0009025
X0067348Y0004827
X0060625Y0003925
X005815Y00035
X0056825Y0006899
X0054647Y000715
X00413Y00089
X00403Y0009675
X003847Y0009883
X0036775Y001455
Y00174
X0037025Y0019225
X00364Y002325
X0029975Y0017925
X0028887Y00174
X0025465Y0015875
X002545Y0014035
X002275Y0008875
X001925Y0010275
X001675Y0013225
X0018Y0023275
X003305Y0014675
Y0011425
X0032675Y000655
X0007625Y00059
X0008228Y0005125
X0007625Y000445
X0009838Y001835
X00132Y0017275
X0004103Y0018363
X000575Y002405
X001289Y0027335
T02
X00948Y000698
X00973Y002198
X01023
X01073
X01123
X01173
X01098Y002698
X00998
X01048Y001698
X00923Y002198
X00873
X00823
X00773Y002298
X00753
X00733
X00713
X00693
X00673
X00653
X00633
X00643Y002098
X00663
X00683
X00703
X00743
X00763
X00798Y002698
X00898
X00848Y001698
Y000698
X00798
X00748
X00673Y001898
X00653
X00633
X00613
X00593
X00573
X00553
X00563Y002098
X00573Y002298
X00553
X00623Y002098
X00923Y001198
X00543Y002098
X00523
X00533Y002298
X00513
X00473Y002198
X00498Y002698
X00448
Y001698
X00373Y002198
X00273
X00223
X00173
X00198Y001698
Y000698
X00298
X00273Y001198
X00123
X00148Y000698
X00098
X00123Y002198
T04
X010253Y0005905
X011523
X00364Y0026041
X003386Y0025787
X003132Y0026041
X002878Y0025787
X002624Y0026041
X00237Y0025787
T05
X0089325Y001246
Y0015
Y001754
T06
X0098565Y0015
X005
M30
