%TF.GenerationSoftware,Altium Limited,Altium Designer,22.5.1 (42)*%
G04 Layer_Color=32896*
%FSLAX43Y43*%
%MOMM*%
%TF.SameCoordinates,F834D1AD-2218-43A0-9239-15D80BA758C3*%
%TF.FilePolarity,Positive*%
%TF.FileFunction,Legend,Bot*%
%TF.Part,Single*%
G01*
G75*
%TA.AperFunction,NonConductor*%
%ADD49C,0.200*%
%ADD50C,0.250*%
%ADD51C,0.127*%
%ADD52C,0.254*%
%ADD56C,0.100*%
D49*
X71200Y27125D02*
G03*
X71200Y27125I-100J0D01*
G01*
X10400Y8350D02*
Y21650D01*
X400Y13753D02*
Y14169D01*
Y15831D02*
Y16247D01*
Y8350D02*
X800D01*
X400D02*
Y8600D01*
Y21650D02*
X800D01*
X400Y21600D02*
Y21650D01*
X10000D02*
X10400D01*
Y21400D02*
Y21650D01*
X10000Y8350D02*
X10400D01*
Y8600D01*
X400Y18325D02*
Y21650D01*
Y8350D02*
Y11675D01*
Y18325D01*
Y13753D02*
X1721D01*
X400Y16247D02*
X1721D01*
X115300Y16300D02*
Y17875D01*
Y12125D02*
Y13700D01*
Y12125D02*
X116525D01*
X119350Y13400D02*
Y16600D01*
X115300Y17875D02*
X116525D01*
X23434Y6978D02*
X23966D01*
X22250Y7955D02*
Y8278D01*
X24384D02*
X25150D01*
X22250D02*
X23016D01*
X25150Y7955D02*
Y8278D01*
X80775Y15750D02*
Y17125D01*
X75050Y12875D02*
X79500D01*
X73775Y15750D02*
Y17125D01*
X75350D01*
X79200D02*
X80775D01*
X91875Y8950D02*
Y21050D01*
X83375Y8950D02*
Y21050D01*
Y8950D02*
X91875D01*
X83375Y21050D02*
X91875D01*
X10433Y7600D02*
Y6767D01*
X10266Y6600D01*
X9933D01*
X9767Y6767D01*
Y7600D01*
X8767D02*
X9100Y7433D01*
X9433Y7100D01*
Y6767D01*
X9267Y6600D01*
X8934D01*
X8767Y6767D01*
Y6933D01*
X8934Y7100D01*
X9433D01*
X72891Y27325D02*
Y26492D01*
X72725Y26325D01*
X72392D01*
X72225Y26492D01*
Y27325D01*
X71892Y26325D02*
X71559D01*
X71725D01*
Y27325D01*
X71892Y27158D01*
X80442Y11475D02*
X80775D01*
X80608D01*
Y10642D01*
X80775Y10475D01*
X80941D01*
X81108Y10642D01*
X79442Y10475D02*
X80108D01*
X79442Y11142D01*
Y11308D01*
X79609Y11475D01*
X79942D01*
X80108Y11308D01*
X115525Y19900D02*
X115858D01*
X115692D01*
Y19067D01*
X115858Y18900D01*
X116025D01*
X116191Y19067D01*
X115192Y18900D02*
X114859D01*
X115025D01*
Y19900D01*
X115192Y19733D01*
X91808Y8275D02*
Y7442D01*
X91641Y7275D01*
X91308D01*
X91142Y7442D01*
Y8275D01*
X90142Y7275D02*
X90808D01*
X90142Y7942D01*
Y8108D01*
X90309Y8275D01*
X90642D01*
X90808Y8108D01*
X108825Y8500D02*
Y9500D01*
X108325D01*
X108158Y9333D01*
Y9000D01*
X108325Y8833D01*
X108825D01*
X108491D02*
X108158Y8500D01*
X107825D02*
X107492D01*
X107658D01*
Y9500D01*
X107825Y9333D01*
X106992D02*
X106825Y9500D01*
X106492D01*
X106325Y9333D01*
Y9167D01*
X106492Y9000D01*
X106325Y8833D01*
Y8667D01*
X106492Y8500D01*
X106825D01*
X106992Y8667D01*
Y8833D01*
X106825Y9000D01*
X106992Y9167D01*
Y9333D01*
X106825Y9000D02*
X106492D01*
X108775Y12175D02*
Y13175D01*
X108275D01*
X108108Y13008D01*
Y12675D01*
X108275Y12508D01*
X108775D01*
X108441D02*
X108108Y12175D01*
X107775D02*
X107442D01*
X107608D01*
Y13175D01*
X107775Y13008D01*
X106942Y13175D02*
X106275D01*
Y13008D01*
X106942Y12342D01*
Y12175D01*
X110074Y2750D02*
Y3750D01*
X109574D01*
X109408Y3583D01*
Y3250D01*
X109574Y3083D01*
X110074D01*
X109741D02*
X109408Y2750D01*
X109075D02*
X108741D01*
X108908D01*
Y3750D01*
X109075Y3583D01*
X107575Y3750D02*
X107908Y3583D01*
X108241Y3250D01*
Y2917D01*
X108075Y2750D01*
X107742D01*
X107575Y2917D01*
Y3083D01*
X107742Y3250D01*
X108241D01*
X18300Y25350D02*
Y26350D01*
X17800D01*
X17633Y26183D01*
Y25850D01*
X17800Y25683D01*
X18300D01*
X17966D02*
X17633Y25350D01*
X17300D02*
X16967D01*
X17133D01*
Y26350D01*
X17300Y26183D01*
X15967Y25350D02*
Y26350D01*
X16467Y25850D01*
X15800D01*
X11608Y25350D02*
Y26350D01*
X11108D01*
X10942Y26183D01*
Y25850D01*
X11108Y25683D01*
X11608D01*
X11275D02*
X10942Y25350D01*
X10609D02*
X10275D01*
X10442D01*
Y26350D01*
X10609Y26183D01*
X9776D02*
X9609Y26350D01*
X9276D01*
X9109Y26183D01*
Y26016D01*
X9276Y25850D01*
X9442D01*
X9276D01*
X9109Y25683D01*
Y25517D01*
X9276Y25350D01*
X9609D01*
X9776Y25517D01*
X21383Y3375D02*
Y4375D01*
X20883D01*
X20717Y4208D01*
Y3875D01*
X20883Y3708D01*
X21383D01*
X21050D02*
X20717Y3375D01*
X20383Y4208D02*
X20217Y4375D01*
X19884D01*
X19717Y4208D01*
Y4042D01*
X19884Y3875D01*
X19717Y3708D01*
Y3542D01*
X19884Y3375D01*
X20217D01*
X20383Y3542D01*
Y3708D01*
X20217Y3875D01*
X20383Y4042D01*
Y4208D01*
X20217Y3875D02*
X19884D01*
X21858Y12425D02*
Y13425D01*
X21358D01*
X21192Y13258D01*
Y12925D01*
X21358Y12758D01*
X21858D01*
X21525D02*
X21192Y12425D01*
X20858Y13425D02*
X20192D01*
Y13258D01*
X20858Y12592D01*
Y12425D01*
X24267Y17375D02*
Y18375D01*
X23767D01*
X23601Y18208D01*
Y17875D01*
X23767Y17708D01*
X24267D01*
X23934D02*
X23601Y17375D01*
X22601Y18375D02*
X22934Y18208D01*
X23267Y17875D01*
Y17542D01*
X23101Y17375D01*
X22768D01*
X22601Y17542D01*
Y17708D01*
X22768Y17875D01*
X23267D01*
X20592Y7167D02*
Y7833D01*
X20758Y8000D01*
X21091D01*
X21258Y7833D01*
Y7167D01*
X21091Y7000D01*
X20758D01*
X20925Y7333D02*
X20592Y7000D01*
X20758D02*
X20592Y7167D01*
X19592Y7000D02*
X20258D01*
X19592Y7667D01*
Y7833D01*
X19759Y8000D01*
X20092D01*
X20258Y7833D01*
X30333Y15323D02*
X30500Y15490D01*
X30833D01*
X31000Y15323D01*
Y14657D01*
X30833Y14490D01*
X30500D01*
X30333Y14657D01*
X30000Y14490D02*
X29667D01*
X29833D01*
Y15490D01*
X30000Y15323D01*
X29167Y14657D02*
X29000Y14490D01*
X28667D01*
X28500Y14657D01*
Y15323D01*
X28667Y15490D01*
X29000D01*
X29167Y15323D01*
Y15157D01*
X29000Y14990D01*
X28500D01*
X6558Y24383D02*
X6725Y24550D01*
X7058D01*
X7225Y24383D01*
Y23717D01*
X7058Y23550D01*
X6725D01*
X6558Y23717D01*
X6225Y23550D02*
X5892D01*
X6058D01*
Y24550D01*
X6225Y24383D01*
X5392D02*
X5225Y24550D01*
X4892D01*
X4725Y24383D01*
Y24217D01*
X4892Y24050D01*
X4725Y23883D01*
Y23717D01*
X4892Y23550D01*
X5225D01*
X5392Y23717D01*
Y23883D01*
X5225Y24050D01*
X5392Y24217D01*
Y24383D01*
X5225Y24050D02*
X4892D01*
X17664Y23694D02*
X17831Y23860D01*
X18164D01*
X18331Y23694D01*
Y23027D01*
X18164Y22861D01*
X17831D01*
X17664Y23027D01*
X17331Y22861D02*
X16998D01*
X17164D01*
Y23860D01*
X17331Y23694D01*
X16498Y23860D02*
X15831D01*
Y23694D01*
X16498Y23027D01*
Y22861D01*
X38733Y15833D02*
X38900Y16000D01*
X39233D01*
X39400Y15833D01*
Y15167D01*
X39233Y15000D01*
X38900D01*
X38733Y15167D01*
X38400Y15000D02*
X38067D01*
X38233D01*
Y16000D01*
X38400Y15833D01*
X36900Y16000D02*
X37234Y15833D01*
X37567Y15500D01*
Y15167D01*
X37400Y15000D01*
X37067D01*
X36900Y15167D01*
Y15333D01*
X37067Y15500D01*
X37567D01*
X35558Y21608D02*
X35725Y21775D01*
X36058D01*
X36225Y21608D01*
Y20942D01*
X36058Y20775D01*
X35725D01*
X35558Y20942D01*
X35225Y20775D02*
X34892D01*
X35058D01*
Y21775D01*
X35225Y21608D01*
X33725Y20775D02*
X34392D01*
X33725Y21442D01*
Y21608D01*
X33892Y21775D01*
X34225D01*
X34392Y21608D01*
X38567Y12223D02*
X38733Y12390D01*
X39066D01*
X39233Y12223D01*
Y11557D01*
X39066Y11390D01*
X38733D01*
X38567Y11557D01*
X38233Y11390D02*
X37900D01*
X38067D01*
Y12390D01*
X38233Y12223D01*
X37400Y11390D02*
X37067D01*
X37234D01*
Y12390D01*
X37400Y12223D01*
X72067Y22758D02*
X72233Y22925D01*
X72566D01*
X72733Y22758D01*
Y22092D01*
X72566Y21925D01*
X72233D01*
X72067Y22092D01*
X71733Y22925D02*
X71067D01*
Y22758D01*
X71733Y22092D01*
Y21925D01*
X72267Y12758D02*
X72433Y12925D01*
X72766D01*
X72933Y12758D01*
Y12092D01*
X72766Y11925D01*
X72433D01*
X72267Y12092D01*
X71434Y11925D02*
Y12925D01*
X71933Y12425D01*
X71267D01*
D50*
X113750Y15625D02*
G03*
X113750Y15625I-125J0D01*
G01*
X76150Y18725D02*
G03*
X76150Y18725I-125J0D01*
G01*
D51*
X109610Y11700D02*
Y13700D01*
X111390Y11700D02*
Y13700D01*
X109610Y8050D02*
Y10050D01*
X111390Y8050D02*
Y10050D01*
X26085Y13940D02*
Y15940D01*
X27865Y13940D02*
Y15940D01*
X33965Y20118D02*
X35965D01*
X33965Y18338D02*
X35965D01*
X36290Y14485D02*
Y16485D01*
X34510Y14485D02*
Y16485D01*
X36290Y10885D02*
Y12885D01*
X34510Y10885D02*
Y12885D01*
X24390Y11890D02*
Y13890D01*
X22610Y11890D02*
Y13890D01*
X22715Y3110D02*
X24715D01*
X22715Y4890D02*
X24715D01*
X12840Y24897D02*
X14840D01*
X12840Y26677D02*
X14840D01*
X19390D02*
X21390D01*
X19390Y24897D02*
X21390D01*
X19390Y22360D02*
X21390D01*
X19390Y24140D02*
X21390D01*
X22490Y14995D02*
X24490D01*
X22490Y16775D02*
X24490D01*
X58000Y18425D02*
Y25225D01*
X70000Y20625D02*
Y25225D01*
X58000Y27925D02*
X70000D01*
X58000Y5925D02*
Y6925D01*
Y5925D02*
X59900D01*
X68100D02*
X70000D01*
Y6925D01*
X71235Y14590D02*
Y16590D01*
X73015Y14590D02*
Y16590D01*
Y18660D02*
Y20660D01*
X71235Y18660D02*
Y20660D01*
X1535Y23160D02*
X3535D01*
X1535Y24940D02*
X3535D01*
D52*
X112690Y5905D02*
X113960D01*
X103800D02*
X105070D01*
Y7175D01*
X112690D01*
Y4635D02*
Y7175D01*
X105070Y4635D02*
X112690D01*
X105070D02*
Y5905D01*
D56*
X447Y22214D02*
G03*
X447Y22114I0J-50D01*
G01*
D02*
G03*
X447Y22214I0J50D01*
G01*
%TF.MD5,86a7c116a5f2680088cd02f8398f38c1*%
M02*
