%TF.GenerationSoftware,Altium Limited,Altium Designer,22.5.1 (42)*%
G04 Layer_Color=16711935*
%FSLAX43Y43*%
%MOMM*%
%TF.SameCoordinates,F834D1AD-2218-43A0-9239-15D80BA758C3*%
%TF.FilePolarity,Negative*%
%TF.FileFunction,Soldermask,Bot*%
%TF.Part,Single*%
G01*
G75*
%TA.AperFunction,SMDPad,CuDef*%
G04:AMPARAMS|DCode=10|XSize=1mm|YSize=1.42mm|CornerRadius=0.125mm|HoleSize=0mm|Usage=FLASHONLY|Rotation=180.000|XOffset=0mm|YOffset=0mm|HoleType=Round|Shape=RoundedRectangle|*
%AMROUNDEDRECTD10*
21,1,1.000,1.170,0,0,180.0*
21,1,0.750,1.420,0,0,180.0*
1,1,0.250,-0.375,0.585*
1,1,0.250,0.375,0.585*
1,1,0.250,0.375,-0.585*
1,1,0.250,-0.375,-0.585*
%
%ADD10ROUNDEDRECTD10*%
G04:AMPARAMS|DCode=17|XSize=1mm|YSize=1.42mm|CornerRadius=0.125mm|HoleSize=0mm|Usage=FLASHONLY|Rotation=270.000|XOffset=0mm|YOffset=0mm|HoleType=Round|Shape=RoundedRectangle|*
%AMROUNDEDRECTD17*
21,1,1.000,1.170,0,0,270.0*
21,1,0.750,1.420,0,0,270.0*
1,1,0.250,-0.585,-0.375*
1,1,0.250,-0.585,0.375*
1,1,0.250,0.585,0.375*
1,1,0.250,0.585,-0.375*
%
%ADD17ROUNDEDRECTD17*%
%ADD21R,0.600X1.700*%
%ADD22R,1.000X2.800*%
%TA.AperFunction,ComponentPad*%
%ADD34C,1.524*%
%ADD35O,1.000X2.000*%
%ADD36R,1.524X1.524*%
%ADD37C,1.500*%
G04:AMPARAMS|DCode=38|XSize=1.5mm|YSize=1.5mm|CornerRadius=0.375mm|HoleSize=0mm|Usage=FLASHONLY|Rotation=270.000|XOffset=0mm|YOffset=0mm|HoleType=Round|Shape=RoundedRectangle|*
%AMROUNDEDRECTD38*
21,1,1.500,0.750,0,0,270.0*
21,1,0.750,1.500,0,0,270.0*
1,1,0.750,-0.375,-0.375*
1,1,0.750,-0.375,0.375*
1,1,0.750,0.375,0.375*
1,1,0.750,0.375,-0.375*
%
%ADD38ROUNDEDRECTD38*%
%TA.AperFunction,ViaPad*%
%ADD39C,5.000*%
%ADD40C,0.700*%
%ADD41C,0.650*%
%TA.AperFunction,SMDPad,CuDef*%
%ADD42R,1.143X2.500*%
%ADD43R,2.700X1.000*%
%ADD44R,1.700X0.600*%
G04:AMPARAMS|DCode=45|XSize=1.824mm|YSize=0.618mm|CornerRadius=0.309mm|HoleSize=0mm|Usage=FLASHONLY|Rotation=90.000|XOffset=0mm|YOffset=0mm|HoleType=Round|Shape=RoundedRectangle|*
%AMROUNDEDRECTD45*
21,1,1.824,0.000,0,0,90.0*
21,1,1.206,0.618,0,0,90.0*
1,1,0.618,0.000,0.603*
1,1,0.618,0.000,-0.603*
1,1,0.618,0.000,-0.603*
1,1,0.618,0.000,0.603*
%
%ADD45ROUNDEDRECTD45*%
%ADD46R,0.618X1.824*%
%ADD47R,1.500X0.700*%
%ADD48R,0.700X1.500*%
D10*
X35900Y19228D02*
D03*
X34030D02*
D03*
X22780Y4000D02*
D03*
X24650D02*
D03*
X12905Y25787D02*
D03*
X14775D02*
D03*
X21325D02*
D03*
X19455D02*
D03*
Y23250D02*
D03*
X21325D02*
D03*
X22555Y15885D02*
D03*
X24425D02*
D03*
X1600Y24050D02*
D03*
X3470D02*
D03*
D17*
X110500Y13635D02*
D03*
Y11765D02*
D03*
Y9985D02*
D03*
Y8115D02*
D03*
X26975Y15875D02*
D03*
Y14005D02*
D03*
X35400Y14550D02*
D03*
Y16420D02*
D03*
Y10950D02*
D03*
Y12820D02*
D03*
X23500Y11955D02*
D03*
Y13825D02*
D03*
X72125Y16525D02*
D03*
Y14655D02*
D03*
Y18725D02*
D03*
Y20595D02*
D03*
D21*
X76025Y17325D02*
D03*
X77275D02*
D03*
X78525D02*
D03*
D22*
X74175Y13975D02*
D03*
X80375D02*
D03*
D34*
X102530Y5905D02*
D03*
X115230D02*
D03*
X28780Y25787D02*
D03*
X33860D02*
D03*
X26240Y26041D02*
D03*
X31320D02*
D03*
X36400D02*
D03*
D35*
X80345Y4692D02*
D03*
X71705D02*
D03*
X80345Y8492D02*
D03*
X71705D02*
D03*
D36*
X23700Y25787D02*
D03*
D37*
X89325Y12460D02*
D03*
Y15000D02*
D03*
D38*
Y17540D02*
D03*
D39*
X50000Y15000D02*
D03*
X98565D02*
D03*
D40*
X117300Y21980D02*
D03*
X112300D02*
D03*
X109800Y26980D02*
D03*
X107300Y21980D02*
D03*
X102300D02*
D03*
X104800Y16980D02*
D03*
X99800Y26980D02*
D03*
X97300Y21980D02*
D03*
X92300D02*
D03*
Y11980D02*
D03*
X94800Y6980D02*
D03*
X89800Y26980D02*
D03*
X87300Y21980D02*
D03*
X82300D02*
D03*
X84800Y16980D02*
D03*
Y6980D02*
D03*
X79800Y26980D02*
D03*
Y6980D02*
D03*
X74800D02*
D03*
X49800Y26980D02*
D03*
X47300Y21980D02*
D03*
X44800Y26980D02*
D03*
Y16980D02*
D03*
X37300Y21980D02*
D03*
X27300D02*
D03*
Y11980D02*
D03*
X29800Y6980D02*
D03*
X22300Y21980D02*
D03*
X17300D02*
D03*
X19800Y16980D02*
D03*
Y6980D02*
D03*
X12300Y21980D02*
D03*
Y11980D02*
D03*
X14800Y6980D02*
D03*
X9800D02*
D03*
X77300Y22980D02*
D03*
X75300D02*
D03*
X76300Y20980D02*
D03*
X73300Y22980D02*
D03*
X74300Y20980D02*
D03*
X71300Y22980D02*
D03*
X69300D02*
D03*
X70300Y20980D02*
D03*
X67300Y22980D02*
D03*
X68300Y20980D02*
D03*
X67300Y18980D02*
D03*
X65300Y22980D02*
D03*
X66300Y20980D02*
D03*
X65300Y18980D02*
D03*
X63300Y22980D02*
D03*
X64300Y20980D02*
D03*
X63300Y18980D02*
D03*
X62300Y20980D02*
D03*
X61300Y18980D02*
D03*
X59300D02*
D03*
X57300Y22980D02*
D03*
Y18980D02*
D03*
X55300Y22980D02*
D03*
X56300Y20980D02*
D03*
X55300Y18980D02*
D03*
X53300Y22980D02*
D03*
X54300Y20980D02*
D03*
X51300Y22980D02*
D03*
X52300Y20980D02*
D03*
D41*
X25465Y15875D02*
D03*
X60625Y3925D02*
D03*
X58150Y3500D02*
D03*
X54647Y7150D02*
D03*
X67348Y4827D02*
D03*
X36400Y23250D02*
D03*
X106025Y3375D02*
D03*
X89325Y7597D02*
D03*
X112350Y12460D02*
D03*
X93050Y19700D02*
D03*
X90725Y3425D02*
D03*
X116325Y24650D02*
D03*
X61775Y10460D02*
D03*
X66200Y9025D02*
D03*
Y11025D02*
D03*
X64000Y13050D02*
D03*
X56825Y6899D02*
D03*
X32675Y6550D02*
D03*
X33050Y14675D02*
D03*
X62916Y13025D02*
D03*
X25450Y14035D02*
D03*
X33050Y11425D02*
D03*
X29975Y17925D02*
D03*
X28887Y17400D02*
D03*
X73703Y16475D02*
D03*
X77300Y14775D02*
D03*
X67750Y14275D02*
D03*
X41300Y8900D02*
D03*
X40300Y9675D02*
D03*
X65500Y16475D02*
D03*
X13200Y17275D02*
D03*
X12890Y27335D02*
D03*
X5750Y24050D02*
D03*
X9838Y18350D02*
D03*
X7625Y4450D02*
D03*
X8228Y5125D02*
D03*
X16750Y13225D02*
D03*
X7625Y5900D02*
D03*
X38470Y9883D02*
D03*
X22750Y8875D02*
D03*
X19250Y10275D02*
D03*
X18000Y23275D02*
D03*
X36775Y14550D02*
D03*
Y17400D02*
D03*
X37025Y19225D02*
D03*
X76025Y13050D02*
D03*
X4103Y18363D02*
D03*
D42*
X1590Y20970D02*
D03*
X4130D02*
D03*
X6670D02*
D03*
X9210D02*
D03*
Y9030D02*
D03*
X6670D02*
D03*
X4130D02*
D03*
X1590D02*
D03*
D43*
X118250Y17475D02*
D03*
Y12525D02*
D03*
D44*
X115050Y15625D02*
D03*
Y14375D02*
D03*
D45*
X23700Y8589D02*
D03*
X22750Y6668D02*
D03*
D46*
X24650D02*
D03*
D47*
X58250Y27125D02*
D03*
Y26025D02*
D03*
Y17625D02*
D03*
Y16525D02*
D03*
Y15425D02*
D03*
Y14325D02*
D03*
Y13225D02*
D03*
Y12125D02*
D03*
Y11025D02*
D03*
Y9925D02*
D03*
Y8825D02*
D03*
Y7725D02*
D03*
X69750D02*
D03*
Y8825D02*
D03*
Y9925D02*
D03*
Y11025D02*
D03*
Y12125D02*
D03*
Y13225D02*
D03*
Y14325D02*
D03*
Y15425D02*
D03*
Y16525D02*
D03*
Y17625D02*
D03*
Y18725D02*
D03*
Y19825D02*
D03*
Y26025D02*
D03*
Y27125D02*
D03*
D48*
X60700Y6175D02*
D03*
X61800D02*
D03*
X62900D02*
D03*
X64000D02*
D03*
X65100D02*
D03*
X66200D02*
D03*
X67300D02*
D03*
%TF.MD5,99686bd7aea1463a2e520994ef1546ec*%
M02*
