%TF.GenerationSoftware,Altium Limited,Altium Designer,22.7.1 (60)*%
G04 Layer_Physical_Order=1*
G04 Layer_Color=255*
%FSLAX43Y43*%
%MOMM*%
%TF.SameCoordinates,440D4EDA-C43D-4E66-B479-6B8574177269*%
%TF.FilePolarity,Positive*%
%TF.FileFunction,Copper,L1,Top,Signal*%
%TF.Part,Single*%
G01*
G75*
%TA.AperFunction,SMDPad,CuDef*%
%ADD10R,0.900X1.150*%
%ADD11R,0.800X1.150*%
%ADD12R,0.700X1.150*%
%ADD13R,2.100X1.380*%
G04:AMPARAMS|DCode=14|XSize=1mm|YSize=1.42mm|CornerRadius=0.125mm|HoleSize=0mm|Usage=FLASHONLY|Rotation=180.000|XOffset=0mm|YOffset=0mm|HoleType=Round|Shape=RoundedRectangle|*
%AMROUNDEDRECTD14*
21,1,1.000,1.170,0,0,180.0*
21,1,0.750,1.420,0,0,180.0*
1,1,0.250,-0.375,0.585*
1,1,0.250,0.375,0.585*
1,1,0.250,0.375,-0.585*
1,1,0.250,-0.375,-0.585*
%
%ADD14ROUNDEDRECTD14*%
%ADD15R,1.400X1.000*%
%ADD16R,1.359X0.587*%
G04:AMPARAMS|DCode=17|XSize=1.359mm|YSize=0.587mm|CornerRadius=0.293mm|HoleSize=0mm|Usage=FLASHONLY|Rotation=180.000|XOffset=0mm|YOffset=0mm|HoleType=Round|Shape=RoundedRectangle|*
%AMROUNDEDRECTD17*
21,1,1.359,0.000,0,0,180.0*
21,1,0.772,0.587,0,0,180.0*
1,1,0.587,-0.386,0.000*
1,1,0.587,0.386,0.000*
1,1,0.587,0.386,0.000*
1,1,0.587,-0.386,0.000*
%
%ADD17ROUNDEDRECTD17*%
G04:AMPARAMS|DCode=18|XSize=1.1mm|YSize=0.6mm|CornerRadius=0.051mm|HoleSize=0mm|Usage=FLASHONLY|Rotation=90.000|XOffset=0mm|YOffset=0mm|HoleType=Round|Shape=RoundedRectangle|*
%AMROUNDEDRECTD18*
21,1,1.100,0.498,0,0,90.0*
21,1,0.998,0.600,0,0,90.0*
1,1,0.102,0.249,0.499*
1,1,0.102,0.249,-0.499*
1,1,0.102,-0.249,-0.499*
1,1,0.102,-0.249,0.499*
%
%ADD18ROUNDEDRECTD18*%
%ADD19R,0.800X0.900*%
%ADD20R,2.440X1.130*%
G04:AMPARAMS|DCode=21|XSize=1mm|YSize=1.42mm|CornerRadius=0.125mm|HoleSize=0mm|Usage=FLASHONLY|Rotation=270.000|XOffset=0mm|YOffset=0mm|HoleType=Round|Shape=RoundedRectangle|*
%AMROUNDEDRECTD21*
21,1,1.000,1.170,0,0,270.0*
21,1,0.750,1.420,0,0,270.0*
1,1,0.250,-0.585,-0.375*
1,1,0.250,-0.585,0.375*
1,1,0.250,0.585,0.375*
1,1,0.250,0.585,-0.375*
%
%ADD21ROUNDEDRECTD21*%
%ADD22R,3.800X2.030*%
%ADD23R,1.200X1.100*%
G04:AMPARAMS|DCode=24|XSize=1.9mm|YSize=0.48mm|CornerRadius=0.06mm|HoleSize=0mm|Usage=FLASHONLY|Rotation=180.000|XOffset=0mm|YOffset=0mm|HoleType=Round|Shape=RoundedRectangle|*
%AMROUNDEDRECTD24*
21,1,1.900,0.360,0,0,180.0*
21,1,1.780,0.480,0,0,180.0*
1,1,0.120,-0.890,0.180*
1,1,0.120,0.890,0.180*
1,1,0.120,0.890,-0.180*
1,1,0.120,-0.890,-0.180*
%
%ADD24ROUNDEDRECTD24*%
%ADD25R,3.400X1.500*%
%ADD26R,3.500X1.000*%
%ADD27R,2.300X2.500*%
%ADD28R,1.000X0.250*%
%ADD29R,0.250X1.000*%
%TA.AperFunction,Conductor*%
%ADD30C,0.300*%
%ADD31C,0.254*%
%TA.AperFunction,ComponentPad*%
%ADD32O,1.000X2.000*%
%ADD33C,1.524*%
%ADD34R,1.524X1.524*%
%ADD35C,1.500*%
G04:AMPARAMS|DCode=36|XSize=1.5mm|YSize=1.5mm|CornerRadius=0.375mm|HoleSize=0mm|Usage=FLASHONLY|Rotation=270.000|XOffset=0mm|YOffset=0mm|HoleType=Round|Shape=RoundedRectangle|*
%AMROUNDEDRECTD36*
21,1,1.500,0.750,0,0,270.0*
21,1,0.750,1.500,0,0,270.0*
1,1,0.750,-0.375,-0.375*
1,1,0.750,-0.375,0.375*
1,1,0.750,0.375,0.375*
1,1,0.750,0.375,-0.375*
%
%ADD36ROUNDEDRECTD36*%
%TA.AperFunction,ViaPad*%
%ADD37C,11.000*%
%ADD38C,0.650*%
%ADD39C,0.700*%
G36*
X114274Y27791D02*
X114274Y27710D01*
Y25459D01*
X116018D01*
Y25016D01*
X115921Y24920D01*
X115849Y24745D01*
Y24555D01*
X115921Y24380D01*
X116055Y24246D01*
X116230Y24174D01*
X116420D01*
X116595Y24246D01*
X116729Y24380D01*
X116801Y24555D01*
Y24745D01*
X116729Y24920D01*
X116632Y25016D01*
Y25459D01*
X118376D01*
Y27710D01*
X118376Y27791D01*
X118484Y27837D01*
X119717D01*
X119745Y27719D01*
Y27500D01*
X119745Y19251D01*
X116149D01*
Y17449D01*
X119745D01*
Y12551D01*
X116149D01*
Y10749D01*
X119745D01*
X119745Y2500D01*
X119745Y2279D01*
X119722Y2163D01*
X105697D01*
X105680Y2180D01*
X105598Y2235D01*
X105500Y2255D01*
X89351Y2255D01*
Y4541D01*
X87607D01*
Y5445D01*
X89283Y7121D01*
X89420D01*
X89595Y7193D01*
X89729Y7327D01*
X89801Y7502D01*
Y7692D01*
X89760Y7790D01*
X89845Y7917D01*
X105305D01*
X106072Y7150D01*
Y6771D01*
X105980D01*
X105872Y6750D01*
X105781Y6689D01*
X105720Y6598D01*
X105699Y6490D01*
Y5320D01*
X105720Y5212D01*
X105781Y5121D01*
X105872Y5060D01*
X105980Y5039D01*
X106730D01*
X106838Y5060D01*
X106929Y5121D01*
X106990Y5212D01*
X107011Y5320D01*
Y5622D01*
X107329D01*
Y5320D01*
X107350Y5212D01*
X107411Y5121D01*
X107502Y5060D01*
X107610Y5039D01*
X108360D01*
X108468Y5060D01*
X108559Y5121D01*
X108620Y5212D01*
X108641Y5320D01*
Y6490D01*
X108620Y6598D01*
X108559Y6689D01*
X108468Y6750D01*
X108360Y6771D01*
X107610D01*
X107502Y6750D01*
X107411Y6689D01*
X107350Y6598D01*
X107329Y6490D01*
Y6188D01*
X107011D01*
Y6490D01*
X106990Y6598D01*
X106929Y6689D01*
X106838Y6750D01*
X106730Y6771D01*
X106638D01*
Y7267D01*
X106617Y7375D01*
X106555Y7467D01*
X105622Y8400D01*
X105530Y8462D01*
X105422Y8483D01*
X103989D01*
X103940Y8601D01*
X104807Y9468D01*
X105644D01*
Y9124D01*
X107346D01*
Y10426D01*
X105644D01*
Y10082D01*
X104680D01*
X104563Y10059D01*
X104463Y9992D01*
X103431Y8960D01*
X91599D01*
X89632Y10927D01*
Y11609D01*
X89673Y11620D01*
X89878Y11739D01*
X90046Y11907D01*
X90165Y12112D01*
X90226Y12341D01*
Y12579D01*
X90165Y12808D01*
X90046Y13013D01*
X89878Y13181D01*
X89673Y13300D01*
X89444Y13361D01*
X89206D01*
X88977Y13300D01*
X88772Y13181D01*
X88604Y13013D01*
X88485Y12808D01*
X88474Y12767D01*
X87916D01*
Y12835D01*
X87895Y12943D01*
X87834Y13034D01*
X87743Y13095D01*
X87635Y13116D01*
X86465D01*
X86357Y13095D01*
X86266Y13034D01*
X86205Y12943D01*
X86184Y12835D01*
Y12767D01*
X85751D01*
Y13111D01*
X84049D01*
Y11809D01*
X85751D01*
Y12153D01*
X86184D01*
Y12085D01*
X86205Y11977D01*
X86266Y11886D01*
X86357Y11825D01*
X86465Y11804D01*
X87635D01*
X87743Y11825D01*
X87834Y11886D01*
X87895Y11977D01*
X87916Y12085D01*
Y12153D01*
X88474D01*
X88485Y12112D01*
X88604Y11907D01*
X88772Y11739D01*
X88977Y11620D01*
X89018Y11609D01*
Y10800D01*
X89041Y10683D01*
X89108Y10583D01*
X91090Y8601D01*
X91042Y8483D01*
X87585D01*
X87476Y8462D01*
X87384Y8400D01*
X82342Y3359D01*
X60833D01*
X60808Y3486D01*
X60895Y3521D01*
X61029Y3655D01*
X61101Y3830D01*
Y4020D01*
X61029Y4195D01*
X60895Y4329D01*
X60720Y4401D01*
X60642D01*
X60638Y4408D01*
X60705Y4535D01*
X66967D01*
X67079Y4424D01*
X67254Y4351D01*
X67443D01*
X67618Y4424D01*
X67752Y4558D01*
X67824Y4733D01*
Y4922D01*
X67752Y5097D01*
X67618Y5231D01*
X67443Y5303D01*
X67254D01*
X67079Y5231D01*
X66950Y5102D01*
X62844D01*
X62795Y5219D01*
X66125Y8549D01*
X66295D01*
X66470Y8621D01*
X66604Y8755D01*
X66676Y8930D01*
Y9120D01*
X66604Y9295D01*
X66470Y9429D01*
X66295Y9501D01*
X66105D01*
X65930Y9429D01*
X65796Y9295D01*
X65724Y9120D01*
Y8950D01*
X62281Y5507D01*
X61249D01*
X61200Y5624D01*
X66125Y10549D01*
X66295D01*
X66470Y10621D01*
X66604Y10755D01*
X66676Y10930D01*
Y11120D01*
X66604Y11295D01*
X66532Y11366D01*
X66585Y11493D01*
X71350D01*
X71467Y11516D01*
X71567Y11583D01*
X74452Y14468D01*
X76934D01*
X77031Y14371D01*
X77205Y14299D01*
X77395D01*
X77570Y14371D01*
X77666Y14468D01*
X80884D01*
Y14190D01*
X80905Y14082D01*
X80966Y13991D01*
X81057Y13930D01*
X81165Y13909D01*
X81233D01*
Y13111D01*
X80689D01*
Y11809D01*
X82391D01*
Y13111D01*
X81847D01*
Y13909D01*
X81915D01*
X82023Y13930D01*
X82114Y13991D01*
X82175Y14082D01*
X82196Y14190D01*
Y15360D01*
X82175Y15468D01*
X82114Y15559D01*
X82084Y15579D01*
X82108Y15713D01*
X82200Y15775D01*
X82700Y16275D01*
X82762Y16367D01*
X82783Y16475D01*
Y16499D01*
X83251D01*
Y17901D01*
X81749D01*
Y16499D01*
X81957D01*
X82006Y16382D01*
X81883Y16258D01*
X74242D01*
X74172Y16364D01*
X74179Y16380D01*
Y16550D01*
X74760Y17131D01*
X79479D01*
Y17040D01*
X79500Y16932D01*
X79561Y16841D01*
X79652Y16780D01*
X79760Y16758D01*
X80930D01*
X81038Y16780D01*
X81129Y16841D01*
X81190Y16932D01*
X81211Y17040D01*
Y17790D01*
X81190Y17897D01*
X81129Y17989D01*
X81038Y18050D01*
X80930Y18071D01*
X79760D01*
X79652Y18050D01*
X79561Y17989D01*
X79500Y17897D01*
X79479Y17790D01*
Y17698D01*
X74642D01*
X74534Y17677D01*
X74442Y17615D01*
X73778Y16951D01*
X73608D01*
X73433Y16879D01*
X73299Y16745D01*
X73227Y16570D01*
Y16380D01*
X73299Y16205D01*
X73433Y16071D01*
X73531Y16031D01*
X73561Y15882D01*
X72238Y14558D01*
X68140D01*
X68050Y14648D01*
X68093Y14775D01*
X68225D01*
Y15440D01*
X66905D01*
Y14775D01*
X67407D01*
X67450Y14648D01*
X67346Y14545D01*
X67274Y14370D01*
Y14180D01*
X67346Y14005D01*
X67460Y13892D01*
X67438Y13795D01*
X67421Y13765D01*
X66905D01*
Y13100D01*
X68225D01*
Y13765D01*
X68079D01*
X68062Y13795D01*
X68040Y13892D01*
X68140Y13992D01*
X72355D01*
X72464Y14013D01*
X72556Y14075D01*
X74173Y15692D01*
X80936D01*
X80974Y15565D01*
X80966Y15559D01*
X80905Y15468D01*
X80884Y15360D01*
Y15082D01*
X77666D01*
X77570Y15179D01*
X77395Y15251D01*
X77205D01*
X77031Y15179D01*
X76934Y15082D01*
X74325D01*
X74208Y15059D01*
X74108Y14992D01*
X71223Y12107D01*
X56728D01*
X56624Y12112D01*
X56607Y12230D01*
Y15198D01*
X57627Y16218D01*
X58354D01*
Y14824D01*
X61096D01*
Y15277D01*
X62685D01*
X63717Y14245D01*
Y13440D01*
X63596Y13320D01*
X63524Y13145D01*
Y12955D01*
X63596Y12780D01*
X63730Y12646D01*
X63905Y12574D01*
X64095D01*
X64270Y12646D01*
X64404Y12780D01*
X64476Y12955D01*
Y13145D01*
X64404Y13320D01*
X64283Y13440D01*
Y14363D01*
X64262Y14471D01*
X64200Y14563D01*
X63002Y15761D01*
X62910Y15822D01*
X62802Y15844D01*
X61096D01*
Y16218D01*
X65091D01*
X65096Y16205D01*
X65230Y16071D01*
X65405Y15999D01*
X65595D01*
X65770Y16071D01*
X65904Y16205D01*
X65976Y16380D01*
Y16570D01*
X65904Y16745D01*
X65770Y16879D01*
X65595Y16951D01*
X65405D01*
X65230Y16879D01*
X65184Y16832D01*
X57500D01*
X57383Y16809D01*
X57283Y16742D01*
X56083Y15542D01*
X56017Y15443D01*
X55993Y15325D01*
Y12240D01*
X52951Y9198D01*
X47664D01*
X46327Y10535D01*
X46411Y10631D01*
X46854Y10291D01*
X47495Y9921D01*
X48180Y9637D01*
X48895Y9446D01*
X49630Y9349D01*
X50370D01*
X51105Y9446D01*
X51820Y9637D01*
X52505Y9921D01*
X53146Y10291D01*
X53734Y10742D01*
X54258Y11266D01*
X54709Y11854D01*
X55079Y12495D01*
X55363Y13180D01*
X55554Y13895D01*
X55651Y14630D01*
Y15370D01*
X55554Y16105D01*
X55363Y16820D01*
X55174Y17275D01*
X55079Y17505D01*
X54709Y18146D01*
X54258Y18734D01*
X53734Y19258D01*
X53146Y19709D01*
X52505Y20079D01*
X51820Y20363D01*
X51105Y20554D01*
X50475Y20637D01*
X50370Y20651D01*
X49630D01*
X48895Y20554D01*
X48180Y20363D01*
X47495Y20079D01*
X46854Y19709D01*
X46266Y19258D01*
X45742Y18734D01*
X45291Y18146D01*
X44921Y17505D01*
X44637Y16820D01*
X44446Y16105D01*
X44349Y15370D01*
Y14630D01*
X44446Y13895D01*
X44637Y13180D01*
X44921Y12495D01*
X45291Y11854D01*
X45631Y11411D01*
X45535Y11327D01*
X43899Y12964D01*
Y19901D01*
X44217Y20219D01*
X44284Y20319D01*
X44307Y20436D01*
Y24925D01*
X44284Y25042D01*
X44217Y25142D01*
X43311Y26048D01*
X43211Y26115D01*
X43094Y26138D01*
X41897D01*
Y26501D01*
X41876Y26609D01*
X41815Y26700D01*
X41724Y26761D01*
X41616Y26782D01*
X41532D01*
Y27025D01*
X41509Y27142D01*
X41442Y27242D01*
X41117Y27567D01*
X41041Y27618D01*
X41056Y27731D01*
X41062Y27745D01*
X57337D01*
Y23925D01*
X57384Y23809D01*
X57500Y23762D01*
X57837D01*
Y20825D01*
X57884Y20709D01*
X58000Y20662D01*
X61100D01*
X61216Y20709D01*
X61263Y20825D01*
Y23762D01*
X70500D01*
X70616Y23809D01*
X70663Y23925D01*
Y27745D01*
X83374D01*
Y25459D01*
X85282D01*
Y24976D01*
X85305Y24859D01*
X85372Y24759D01*
X89018Y21113D01*
Y20566D01*
X88950D01*
X88842Y20545D01*
X88751Y20484D01*
X88690Y20393D01*
X88669Y20285D01*
Y19115D01*
X88690Y19007D01*
X88751Y18916D01*
X88842Y18855D01*
X88950Y18834D01*
X89018D01*
Y18451D01*
X88950D01*
X88745Y18410D01*
X88571Y18294D01*
X88455Y18120D01*
X88414Y17915D01*
Y17165D01*
X88455Y16960D01*
X88571Y16786D01*
X88745Y16670D01*
X88950Y16629D01*
X89700D01*
X89905Y16670D01*
X90079Y16786D01*
X90195Y16960D01*
X90236Y17165D01*
Y17238D01*
X90909D01*
Y17175D01*
X90930Y17067D01*
X90991Y16976D01*
X91082Y16915D01*
X91190Y16894D01*
X92360D01*
X92468Y16915D01*
X92559Y16976D01*
X92620Y17067D01*
X92641Y17175D01*
Y17772D01*
X95719Y20850D01*
X101541D01*
X105408Y16983D01*
X105508Y16916D01*
X105625Y16893D01*
X105924D01*
Y15799D01*
X108526D01*
Y16893D01*
X108873D01*
X109983Y15783D01*
X110083Y15716D01*
X110200Y15693D01*
X110349D01*
Y15349D01*
X114151D01*
Y15693D01*
X114423D01*
X114923Y15193D01*
Y6768D01*
X114878Y6756D01*
X114669Y6636D01*
X114499Y6466D01*
X114379Y6257D01*
X114367Y6212D01*
X114021D01*
Y6490D01*
X114000Y6598D01*
X113939Y6689D01*
X113848Y6750D01*
X113740Y6771D01*
X112990D01*
X112882Y6750D01*
X112791Y6689D01*
X112730Y6598D01*
X112709Y6490D01*
Y5320D01*
X112730Y5212D01*
X112791Y5121D01*
X112882Y5060D01*
X112990Y5039D01*
X113740D01*
X113848Y5060D01*
X113939Y5121D01*
X114000Y5212D01*
X114021Y5320D01*
Y5598D01*
X114367D01*
X114379Y5553D01*
X114499Y5344D01*
X114669Y5174D01*
X114878Y5054D01*
X115110Y4992D01*
X115350D01*
X115582Y5054D01*
X115791Y5174D01*
X115961Y5344D01*
X116081Y5553D01*
X116143Y5785D01*
Y6025D01*
X116081Y6257D01*
X115961Y6466D01*
X115791Y6636D01*
X115582Y6756D01*
X115537Y6768D01*
Y15320D01*
X115514Y15437D01*
X115447Y15537D01*
X114767Y16217D01*
X114667Y16284D01*
X114550Y16307D01*
X114151D01*
Y16651D01*
X110349D01*
Y16465D01*
X110222Y16412D01*
X109217Y17417D01*
X109117Y17484D01*
X109000Y17507D01*
X108526D01*
Y18601D01*
X105924D01*
Y17507D01*
X105752D01*
X101885Y21374D01*
X101786Y21440D01*
X101668Y21464D01*
X95592D01*
X95474Y21440D01*
X95375Y21374D01*
X92207Y18206D01*
X91190D01*
X91082Y18185D01*
X90991Y18124D01*
X90930Y18033D01*
X90909Y17925D01*
Y17852D01*
X90236D01*
Y17915D01*
X90195Y18120D01*
X90079Y18294D01*
X89905Y18410D01*
X89700Y18451D01*
X89632D01*
Y18834D01*
X89700D01*
X89808Y18855D01*
X89899Y18916D01*
X89960Y19007D01*
X89981Y19115D01*
Y20285D01*
X89960Y20393D01*
X89899Y20484D01*
X89808Y20545D01*
X89700Y20566D01*
X89632D01*
Y21240D01*
X89609Y21357D01*
X89542Y21457D01*
X85895Y25103D01*
Y25459D01*
X87476D01*
Y27745D01*
X93625Y27745D01*
Y26725D01*
X95725D01*
X97825D01*
Y27745D01*
X103925D01*
Y26725D01*
X106025D01*
Y26625D01*
D01*
Y26725D01*
X108125D01*
Y27837D01*
X114166D01*
X114274Y27791D01*
D02*
G37*
G36*
X34768Y26294D02*
X34641Y26260D01*
X34591Y26347D01*
X34421Y26517D01*
X34212Y26638D01*
X33980Y26700D01*
X33740D01*
X33508Y26638D01*
X33299Y26517D01*
X33129Y26347D01*
X33009Y26139D01*
X32947Y25907D01*
Y25667D01*
X33009Y25434D01*
X33129Y25226D01*
X33299Y25056D01*
X33508Y24936D01*
X33577Y24917D01*
Y20440D01*
X33459Y20392D01*
X31603Y22247D01*
Y25171D01*
X31672Y25190D01*
X31881Y25310D01*
X32051Y25480D01*
X32171Y25688D01*
X32233Y25921D01*
Y26161D01*
X32171Y26393D01*
X32051Y26601D01*
X31881Y26771D01*
X31672Y26892D01*
X31581Y26916D01*
X31597Y27043D01*
X34768D01*
Y26294D01*
D02*
G37*
G36*
X40907Y26909D02*
X40890Y26782D01*
X40866D01*
X40758Y26761D01*
X40667Y26700D01*
X40606Y26609D01*
X40585Y26501D01*
Y25331D01*
X40606Y25223D01*
X40667Y25132D01*
X40758Y25071D01*
X40866Y25050D01*
X40934D01*
Y24559D01*
X40913Y24555D01*
X40846Y24511D01*
X40802Y24444D01*
X40786Y24365D01*
Y23367D01*
X40802Y23288D01*
X40846Y23221D01*
X40913Y23177D01*
X40992Y23161D01*
X41490D01*
X41569Y23177D01*
X41636Y23221D01*
X41680Y23288D01*
X41696Y23367D01*
Y24365D01*
X41680Y24444D01*
X41636Y24511D01*
X41569Y24555D01*
X41548Y24559D01*
Y25050D01*
X41616D01*
X41724Y25071D01*
X41815Y25132D01*
X41876Y25223D01*
X41897Y25331D01*
Y25524D01*
X42967D01*
X43693Y24798D01*
Y24486D01*
X43663Y24475D01*
X43566Y24465D01*
X43536Y24511D01*
X43469Y24555D01*
X43390Y24571D01*
X42892D01*
X42813Y24555D01*
X42746Y24511D01*
X42702Y24444D01*
X42686Y24365D01*
Y23367D01*
X42702Y23288D01*
X42746Y23221D01*
X42813Y23177D01*
X42892Y23161D01*
X43390D01*
X43469Y23177D01*
X43536Y23221D01*
X43566Y23267D01*
X43663Y23257D01*
X43693Y23246D01*
Y21886D01*
X43663Y21875D01*
X43566Y21865D01*
X43536Y21911D01*
X43469Y21955D01*
X43390Y21971D01*
X42892D01*
X42813Y21955D01*
X42782Y21934D01*
X42645Y21939D01*
X42621Y21946D01*
X42538Y22001D01*
X42440Y22021D01*
X42291D01*
Y21266D01*
X42091D01*
Y22021D01*
X41942D01*
X41844Y22001D01*
X41761Y21946D01*
X41737Y21939D01*
X41600Y21934D01*
X41569Y21955D01*
X41490Y21971D01*
X40992D01*
X40913Y21955D01*
X40846Y21911D01*
X40802Y21844D01*
X40786Y21765D01*
Y21573D01*
X39732D01*
Y21641D01*
X39711Y21749D01*
X39650Y21840D01*
X39559Y21901D01*
X39451Y21922D01*
X38281D01*
X38173Y21901D01*
X38082Y21840D01*
X38021Y21749D01*
X38000Y21641D01*
Y20891D01*
X38021Y20783D01*
X38082Y20692D01*
X38173Y20631D01*
X38281Y20610D01*
X39451D01*
X39559Y20631D01*
X39650Y20692D01*
X39711Y20783D01*
X39732Y20891D01*
Y20959D01*
X40786D01*
Y20767D01*
X40802Y20688D01*
X40846Y20621D01*
X40913Y20577D01*
X40934Y20573D01*
Y20436D01*
X40957Y20319D01*
X41024Y20219D01*
X41519Y19724D01*
X41619Y19657D01*
X41736Y19634D01*
X42834D01*
Y16143D01*
X42717Y16095D01*
X40686Y18125D01*
X40594Y18187D01*
X40486Y18208D01*
X39724D01*
X39648Y18335D01*
X39660Y18395D01*
Y18475D01*
X38505D01*
X37350D01*
Y18395D01*
X37370Y18294D01*
X37428Y18208D01*
X37429Y18207D01*
X37416Y18187D01*
X37400Y18105D01*
Y17745D01*
X37416Y17663D01*
X37458Y17600D01*
X37416Y17537D01*
X37400Y17455D01*
Y17095D01*
X37416Y17013D01*
X37458Y16950D01*
X37416Y16887D01*
X37400Y16805D01*
Y16445D01*
X37416Y16363D01*
X37458Y16300D01*
X37416Y16237D01*
X37400Y16155D01*
Y15795D01*
X37416Y15713D01*
X37458Y15650D01*
X37416Y15587D01*
X37400Y15505D01*
Y15145D01*
X37416Y15063D01*
X37458Y15000D01*
X37416Y14937D01*
X37400Y14855D01*
Y14622D01*
X37273Y14556D01*
X37251Y14571D01*
Y14645D01*
X37179Y14820D01*
X37045Y14954D01*
X36870Y15026D01*
X36680D01*
X36505Y14954D01*
X36371Y14820D01*
X36299Y14645D01*
Y14455D01*
X36371Y14280D01*
X36505Y14146D01*
X36680Y14074D01*
X36850D01*
X37092Y13832D01*
X37184Y13771D01*
X37281Y13751D01*
X37306Y13724D01*
X37363Y13622D01*
X37350Y13555D01*
Y13475D01*
X38505D01*
X39660D01*
Y13555D01*
X39640Y13656D01*
X39582Y13742D01*
X39581Y13743D01*
X39594Y13763D01*
X39610Y13845D01*
Y14205D01*
X39598Y14265D01*
X39643Y14349D01*
X39677Y14392D01*
X40148D01*
X40405Y14135D01*
Y11634D01*
X40425Y11530D01*
X40420Y11522D01*
X40320Y11456D01*
X40150Y11625D01*
X40058Y11687D01*
X39950Y11708D01*
X39677D01*
X39643Y11751D01*
X39598Y11835D01*
X39610Y11895D01*
Y12255D01*
X39594Y12337D01*
X39552Y12400D01*
X39594Y12463D01*
X39610Y12545D01*
Y12905D01*
X39594Y12987D01*
X39581Y13007D01*
X39582Y13008D01*
X39640Y13094D01*
X39660Y13195D01*
Y13275D01*
X38505D01*
X37350D01*
Y13195D01*
X37362Y13135D01*
X37286Y13008D01*
X36973D01*
X36865Y12987D01*
X36773Y12925D01*
X34751Y10904D01*
X34633Y10952D01*
Y14871D01*
X34612Y14980D01*
X34550Y15072D01*
X34097Y15525D01*
X34005Y15587D01*
X33896Y15608D01*
X32667D01*
X32633Y15651D01*
X32588Y15735D01*
X32600Y15795D01*
Y16155D01*
X32588Y16215D01*
X32633Y16299D01*
X32667Y16342D01*
X33206D01*
X33315Y16363D01*
X33407Y16425D01*
X34060Y17078D01*
X34122Y17170D01*
X34143Y17279D01*
Y24917D01*
X34212Y24936D01*
X34421Y25056D01*
X34591Y25226D01*
X34641Y25314D01*
X34768Y25280D01*
Y19870D01*
X34791Y19753D01*
X34858Y19653D01*
X35503Y19008D01*
X35603Y18941D01*
X35720Y18918D01*
X36659D01*
X36755Y18821D01*
X36930Y18749D01*
X37120D01*
X37228Y18794D01*
X37261Y18784D01*
X37350Y18711D01*
Y18675D01*
X38505D01*
X39660D01*
Y18755D01*
X39640Y18856D01*
X39582Y18942D01*
X39581Y18943D01*
X39594Y18963D01*
X39610Y19045D01*
Y19405D01*
X39594Y19487D01*
X39547Y19557D01*
X39477Y19604D01*
X39395Y19620D01*
X37615D01*
X37533Y19604D01*
X37463Y19557D01*
X37337Y19586D01*
X37295Y19629D01*
X37120Y19701D01*
X36930D01*
X36755Y19629D01*
X36659Y19532D01*
X35847D01*
X35382Y19997D01*
Y25822D01*
X35509Y25839D01*
X35549Y25688D01*
X35669Y25480D01*
X35839Y25310D01*
X36048Y25190D01*
X36280Y25128D01*
X36520D01*
X36752Y25190D01*
X36961Y25310D01*
X37131Y25480D01*
X37251Y25688D01*
X37313Y25921D01*
Y26161D01*
X37251Y26393D01*
X37131Y26601D01*
X36961Y26771D01*
X36752Y26892D01*
X36661Y26916D01*
X36677Y27043D01*
X40773D01*
X40907Y26909D01*
D02*
G37*
G36*
X31059Y26916D02*
X30968Y26892D01*
X30759Y26771D01*
X30589Y26601D01*
X30469Y26393D01*
X30407Y26161D01*
Y25921D01*
X30469Y25688D01*
X30589Y25480D01*
X30759Y25310D01*
X30968Y25190D01*
X31037Y25171D01*
Y22130D01*
X31058Y22022D01*
X31120Y21930D01*
X33172Y19878D01*
Y17913D01*
X32816Y17557D01*
X32666D01*
X32631Y17602D01*
X32588Y17684D01*
X32600Y17745D01*
Y18105D01*
X32584Y18187D01*
X32542Y18250D01*
X32584Y18313D01*
X32600Y18395D01*
Y18755D01*
X32584Y18837D01*
X32542Y18900D01*
X32584Y18963D01*
X32600Y19045D01*
Y19405D01*
X32584Y19487D01*
X32537Y19557D01*
X32467Y19604D01*
X32385Y19620D01*
X30605D01*
X30523Y19604D01*
X30453Y19557D01*
X30420Y19508D01*
X29004D01*
X23991Y24522D01*
Y24874D01*
X24613D01*
Y26700D01*
X22787D01*
Y24874D01*
X23424D01*
Y24405D01*
X23446Y24296D01*
X23481Y24243D01*
X23478Y24235D01*
X23428Y24127D01*
X23417Y24116D01*
X23409Y24116D01*
X21099D01*
Y23558D01*
X18390D01*
X18270Y23679D01*
X18095Y23751D01*
X17905D01*
X17730Y23679D01*
X17610Y23558D01*
X14401D01*
Y24116D01*
X11999D01*
Y22434D01*
X14401D01*
Y22992D01*
X17610D01*
X17730Y22871D01*
X17905Y22799D01*
X18095D01*
X18270Y22871D01*
X18390Y22992D01*
X21099D01*
Y22434D01*
X23501D01*
X23501Y24023D01*
X23501Y24031D01*
X23628Y24083D01*
X28687Y19025D01*
X28779Y18963D01*
X28887Y18942D01*
X30323D01*
X30357Y18899D01*
X30402Y18815D01*
X30390Y18755D01*
Y18395D01*
X30398Y18355D01*
X30281Y18292D01*
X30245Y18329D01*
X30070Y18401D01*
X29880D01*
X29705Y18329D01*
X29571Y18195D01*
X29499Y18020D01*
Y17830D01*
X29571Y17655D01*
X29705Y17521D01*
X29880Y17449D01*
X30070D01*
X30245Y17521D01*
X30281Y17558D01*
X30398Y17495D01*
X30390Y17455D01*
Y17095D01*
X30406Y17013D01*
X30448Y16950D01*
X30406Y16887D01*
X30390Y16805D01*
Y16478D01*
X30310Y16430D01*
X30266Y16422D01*
X29714Y16974D01*
X29714Y16974D01*
X29363Y17325D01*
Y17495D01*
X29291Y17670D01*
X29157Y17804D01*
X28982Y17876D01*
X28792D01*
X28617Y17804D01*
X28483Y17670D01*
X28411Y17495D01*
Y17305D01*
X28483Y17130D01*
X28617Y16996D01*
X28792Y16924D01*
X28962D01*
X29313Y16573D01*
X29313Y16573D01*
X30112Y15775D01*
X30204Y15713D01*
X30312Y15692D01*
X30323D01*
X30357Y15649D01*
X30402Y15565D01*
X30390Y15505D01*
Y15145D01*
X30406Y15063D01*
X30419Y15043D01*
X30418Y15042D01*
X30360Y14956D01*
X30340Y14855D01*
Y14775D01*
X32650D01*
Y14855D01*
X32638Y14915D01*
X32714Y15042D01*
X33779D01*
X34067Y14754D01*
Y10483D01*
X32475Y8891D01*
X32421Y8812D01*
X32381Y8794D01*
X32279Y8776D01*
X32213Y8820D01*
X32105Y8841D01*
X32037D01*
Y9028D01*
X33267Y10258D01*
X33334Y10358D01*
X33357Y10475D01*
Y11059D01*
X33454Y11155D01*
X33526Y11330D01*
Y11520D01*
X33454Y11695D01*
X33320Y11829D01*
X33145Y11901D01*
X32955D01*
X32780Y11829D01*
X32768Y11816D01*
X32710Y11823D01*
X32600Y11895D01*
Y12255D01*
X32584Y12337D01*
X32542Y12400D01*
X32584Y12463D01*
X32600Y12545D01*
Y12905D01*
X32584Y12987D01*
X32542Y13050D01*
X32584Y13113D01*
X32600Y13195D01*
Y13555D01*
X32584Y13637D01*
X32542Y13700D01*
X32584Y13763D01*
X32600Y13845D01*
Y14205D01*
X32584Y14287D01*
X32571Y14307D01*
X32572Y14308D01*
X32630Y14394D01*
X32650Y14495D01*
Y14575D01*
X30340D01*
Y14495D01*
X30352Y14435D01*
X30276Y14308D01*
X28976D01*
Y14626D01*
X28007D01*
Y15274D01*
X28976D01*
Y16476D01*
X27874D01*
Y16182D01*
X27526D01*
Y16476D01*
X26424D01*
Y16182D01*
X25831D01*
X25735Y16279D01*
X25560Y16351D01*
X25370D01*
X25195Y16279D01*
X25061Y16145D01*
X24989Y15970D01*
Y15780D01*
X25061Y15605D01*
X25195Y15471D01*
X25370Y15399D01*
X25560D01*
X25735Y15471D01*
X25831Y15568D01*
X26424D01*
Y15274D01*
X27393D01*
Y14675D01*
X27075D01*
Y14025D01*
Y13375D01*
X27393D01*
Y13125D01*
X27416Y13008D01*
X27483Y12908D01*
X29183Y11208D01*
X29283Y11141D01*
X29400Y11118D01*
X30307D01*
X30331Y11099D01*
X30397Y10991D01*
X30390Y10955D01*
Y10595D01*
X30406Y10513D01*
X30453Y10443D01*
X30523Y10396D01*
X30605Y10380D01*
X32341D01*
X32398Y10264D01*
X32399Y10258D01*
X31513Y9372D01*
X31446Y9272D01*
X31423Y9155D01*
Y8841D01*
X31355D01*
X31247Y8820D01*
X31156Y8759D01*
X31095Y8668D01*
X31074Y8560D01*
Y7390D01*
X31095Y7282D01*
X31156Y7191D01*
X31247Y7130D01*
X31355Y7109D01*
X32105D01*
X32213Y7130D01*
X32265Y7165D01*
X32387Y7113D01*
X32392Y7108D01*
Y6940D01*
X32271Y6820D01*
X32199Y6645D01*
Y6455D01*
X32271Y6280D01*
X32273Y6279D01*
X32224Y6161D01*
X8032D01*
X8029Y6170D01*
X7895Y6304D01*
X7720Y6376D01*
X7530D01*
X7355Y6304D01*
X7235Y6183D01*
X6592D01*
X2363Y10412D01*
Y13738D01*
X2842Y14217D01*
X3859D01*
X3913Y14098D01*
Y13703D01*
X4238D01*
Y13603D01*
X4338D01*
Y12903D01*
X4563D01*
Y12952D01*
X6038D01*
Y14127D01*
X6141Y14217D01*
X8009D01*
Y14125D01*
X8030Y14017D01*
X8091Y13926D01*
X8182Y13865D01*
X8290Y13844D01*
X9460D01*
X9568Y13865D01*
X9659Y13926D01*
X9720Y14017D01*
X9741Y14125D01*
Y14193D01*
X10125D01*
X10242Y14216D01*
X10342Y14283D01*
X10792Y14733D01*
X10859Y14833D01*
X10882Y14950D01*
Y22350D01*
Y27043D01*
X12509D01*
X12620Y26931D01*
X12795Y26859D01*
X12985D01*
X13160Y26931D01*
X13271Y27043D01*
X25933D01*
Y26904D01*
X25888Y26892D01*
X25679Y26771D01*
X25509Y26601D01*
X25389Y26393D01*
X25327Y26161D01*
Y25921D01*
X25389Y25688D01*
X25509Y25480D01*
X25679Y25310D01*
X25888Y25190D01*
X26120Y25128D01*
X26360D01*
X26592Y25190D01*
X26801Y25310D01*
X26971Y25480D01*
X27091Y25688D01*
X27153Y25921D01*
Y26161D01*
X27091Y26393D01*
X26971Y26601D01*
X26801Y26771D01*
X26592Y26892D01*
X26547Y26904D01*
Y27043D01*
X31043D01*
X31059Y26916D01*
D02*
G37*
G36*
X1424Y27791D02*
Y25459D01*
X5526D01*
Y26318D01*
X8337D01*
X8454Y26341D01*
X8554Y26408D01*
X9189Y27043D01*
X10268D01*
Y22632D01*
X6069D01*
Y23696D01*
X6154Y23780D01*
X6226Y23955D01*
Y24145D01*
X6154Y24320D01*
X6020Y24454D01*
X5845Y24526D01*
X5655D01*
X5480Y24454D01*
X5346Y24320D01*
X5274Y24145D01*
Y23955D01*
X5346Y23780D01*
X5455Y23672D01*
Y22325D01*
Y21416D01*
X5387D01*
X5279Y21395D01*
X5188Y21334D01*
X5127Y21243D01*
X5106Y21135D01*
Y19965D01*
X5127Y19857D01*
X5188Y19766D01*
X5279Y19705D01*
X5387Y19684D01*
X5473D01*
Y19216D01*
X5375D01*
X5267Y19195D01*
X5176Y19134D01*
X5115Y19043D01*
X5094Y18935D01*
Y18633D01*
X4506D01*
X4373Y18766D01*
X4198Y18839D01*
X4008D01*
X3833Y18766D01*
X3713Y18646D01*
X3313D01*
X3204Y18625D01*
X3112Y18563D01*
X2625Y18075D01*
X2563Y17983D01*
X2542Y17875D01*
Y16000D01*
X2563Y15892D01*
X2625Y15800D01*
X3014Y15410D01*
X2961Y15283D01*
X2500D01*
X2392Y15262D01*
X2300Y15200D01*
X1475Y14375D01*
X1413Y14283D01*
X1392Y14175D01*
Y10075D01*
X1413Y9967D01*
X1475Y9875D01*
X6367Y4983D01*
Y4117D01*
X5908Y3658D01*
X5526D01*
Y4541D01*
X1424D01*
Y2209D01*
X1316Y2163D01*
X278D01*
X255Y2279D01*
Y2500D01*
X255Y27500D01*
X255Y27721D01*
X278Y27837D01*
X1316D01*
X1424Y27791D01*
D02*
G37*
G36*
X10268Y15077D02*
X9998Y14807D01*
X9741D01*
Y14875D01*
X9720Y14983D01*
X9659Y15074D01*
X9568Y15135D01*
X9460Y15156D01*
X8290D01*
X8182Y15135D01*
X8091Y15074D01*
X8030Y14983D01*
X8009Y14875D01*
Y14783D01*
X6841D01*
Y14900D01*
X6141D01*
Y15100D01*
X6841D01*
Y15175D01*
Y15400D01*
X6141D01*
Y15500D01*
X6041D01*
Y15825D01*
X6026D01*
Y16354D01*
X6033Y16391D01*
Y17484D01*
X6125D01*
X6233Y17505D01*
X6324Y17566D01*
X6385Y17657D01*
X6406Y17765D01*
Y18935D01*
X6385Y19043D01*
X6324Y19134D01*
X6233Y19195D01*
X6125Y19216D01*
X6039D01*
Y19684D01*
X6137D01*
X6245Y19705D01*
X6336Y19766D01*
X6397Y19857D01*
X6418Y19965D01*
Y21135D01*
X6397Y21243D01*
X6336Y21334D01*
X6245Y21395D01*
X6137Y21416D01*
X6069D01*
Y22018D01*
X10268D01*
Y15077D01*
D02*
G37*
G36*
X37367Y11749D02*
X37412Y11665D01*
X37400Y11605D01*
Y11245D01*
X37416Y11163D01*
X37458Y11100D01*
X37416Y11037D01*
X37400Y10955D01*
Y10595D01*
X37416Y10513D01*
X37463Y10443D01*
X37533Y10396D01*
X37615Y10380D01*
X38119D01*
X38167Y10253D01*
X38066Y10153D01*
X37994Y9978D01*
Y9788D01*
X38066Y9613D01*
X38163Y9517D01*
Y8841D01*
X38095D01*
X37987Y8820D01*
X37896Y8759D01*
X37835Y8668D01*
X37814Y8560D01*
Y7390D01*
X37835Y7282D01*
X37896Y7191D01*
X37987Y7130D01*
X38095Y7109D01*
X38845D01*
X38953Y7130D01*
X39044Y7191D01*
X39105Y7282D01*
X39126Y7390D01*
Y8560D01*
X39105Y8668D01*
X39044Y8759D01*
X38953Y8820D01*
X38845Y8841D01*
X38777D01*
Y9517D01*
X38874Y9613D01*
X38946Y9788D01*
Y9978D01*
X38874Y10153D01*
X38773Y10253D01*
X38821Y10380D01*
X39395D01*
X39477Y10396D01*
X39547Y10443D01*
X39572Y10481D01*
X39699Y10488D01*
X39960Y10226D01*
Y10005D01*
X39862Y9907D01*
X39790Y9732D01*
Y9543D01*
X39862Y9368D01*
X39984Y9246D01*
Y6909D01*
X39383Y6308D01*
X36922D01*
X36814Y6287D01*
X36722Y6225D01*
X36075Y5578D01*
X36013Y5486D01*
X35992Y5378D01*
Y4541D01*
X34224D01*
Y2255D01*
X14500Y2255D01*
X14402Y2235D01*
X14320Y2180D01*
X14303Y2163D01*
X13084D01*
X12976Y2209D01*
Y4541D01*
X8874D01*
Y3658D01*
X8217D01*
X7908Y3967D01*
Y4060D01*
X8029Y4180D01*
X8101Y4355D01*
Y4532D01*
X8106Y4550D01*
X8195Y4649D01*
X8323D01*
X8498Y4721D01*
X8593Y4817D01*
X33525D01*
X33633Y4838D01*
X33725Y4900D01*
X35580Y6755D01*
X35642Y6847D01*
X35663Y6955D01*
Y7692D01*
X35944D01*
Y7390D01*
X35965Y7282D01*
X36026Y7191D01*
X36117Y7130D01*
X36225Y7109D01*
X36975D01*
X37083Y7130D01*
X37174Y7191D01*
X37235Y7282D01*
X37256Y7390D01*
Y8560D01*
X37235Y8668D01*
X37174Y8759D01*
X37083Y8820D01*
X36975Y8841D01*
X36225D01*
X36117Y8820D01*
X36026Y8759D01*
X35965Y8668D01*
X35944Y8560D01*
Y8258D01*
X35663D01*
Y10320D01*
X37135Y11792D01*
X37333D01*
X37367Y11749D01*
D02*
G37*
G36*
X65868Y11366D02*
X65796Y11295D01*
X65724Y11120D01*
Y10950D01*
X60686Y5912D01*
X56405D01*
X56356Y6029D01*
X56750Y6423D01*
X56920D01*
X57095Y6495D01*
X57229Y6629D01*
X57301Y6804D01*
Y6994D01*
X57229Y7169D01*
X57095Y7303D01*
X56920Y7375D01*
X56730D01*
X56555Y7303D01*
X56421Y7169D01*
X56349Y6994D01*
Y6824D01*
X55842Y6317D01*
X54380D01*
X54332Y6434D01*
X54571Y6674D01*
X54741D01*
X54916Y6746D01*
X55050Y6880D01*
X55123Y7055D01*
Y7245D01*
X55050Y7420D01*
X54916Y7554D01*
X54741Y7626D01*
X54552D01*
X54377Y7554D01*
X54243Y7420D01*
X54171Y7245D01*
Y7075D01*
X53818Y6722D01*
X48864D01*
X47570Y8016D01*
X47619Y8133D01*
X53265D01*
X53383Y8157D01*
X53482Y8223D01*
X56752Y11493D01*
X65815D01*
X65868Y11366D01*
D02*
G37*
G36*
X47708Y4213D02*
X47800Y4152D01*
X47908Y4130D01*
X59998D01*
X60149Y3979D01*
Y3830D01*
X60221Y3655D01*
X60355Y3521D01*
X60442Y3486D01*
X60417Y3359D01*
X58692D01*
X58626Y3425D01*
Y3595D01*
X58554Y3770D01*
X58420Y3904D01*
X58245Y3976D01*
X58055D01*
X57880Y3904D01*
X57746Y3770D01*
X57674Y3595D01*
Y3405D01*
X57746Y3230D01*
X57880Y3096D01*
X58055Y3024D01*
X58225D01*
X58374Y2875D01*
X58466Y2813D01*
X58575Y2792D01*
X82460D01*
X82568Y2813D01*
X82660Y2875D01*
X87702Y7917D01*
X88805D01*
X88890Y7790D01*
X88849Y7692D01*
Y7555D01*
X87083Y5789D01*
X87016Y5689D01*
X86993Y5572D01*
Y4541D01*
X85249D01*
Y2255D01*
X43376Y2255D01*
Y4541D01*
X41583D01*
Y7810D01*
X41704Y7930D01*
X41776Y8105D01*
Y8295D01*
X41704Y8470D01*
X41608Y8565D01*
Y10050D01*
X41588Y10153D01*
X41593Y10161D01*
X41693Y10228D01*
X47708Y4213D01*
D02*
G37*
%LPC*%
G36*
X108125Y26525D02*
X106125D01*
Y25410D01*
X108125D01*
Y26525D01*
D02*
G37*
G36*
X105925D02*
X103925D01*
Y25410D01*
X105925D01*
Y26525D01*
D02*
G37*
G36*
X97825D02*
X95825D01*
Y25410D01*
X97825D01*
Y26525D01*
D02*
G37*
G36*
X95625D02*
X93625D01*
Y25410D01*
X95625D01*
Y26525D01*
D02*
G37*
G36*
X91570Y20616D02*
X91295D01*
Y19800D01*
X91901D01*
Y20285D01*
X91876Y20412D01*
X91804Y20519D01*
X91697Y20591D01*
X91570Y20616D01*
D02*
G37*
G36*
X91095D02*
X90820D01*
X90693Y20591D01*
X90586Y20519D01*
X90514Y20412D01*
X90489Y20285D01*
Y19800D01*
X91095D01*
Y20616D01*
D02*
G37*
G36*
X83251Y20001D02*
X81749D01*
Y19568D01*
X81211D01*
Y19660D01*
X81190Y19767D01*
X81129Y19859D01*
X81038Y19920D01*
X80930Y19941D01*
X79760D01*
X79652Y19920D01*
X79561Y19859D01*
X79500Y19767D01*
X79479Y19660D01*
Y18910D01*
X79500Y18802D01*
X79561Y18711D01*
X79652Y18650D01*
X79760Y18628D01*
X80930D01*
X81038Y18650D01*
X81129Y18711D01*
X81190Y18802D01*
X81211Y18910D01*
Y19001D01*
X81749D01*
Y18599D01*
X83251D01*
Y20001D01*
D02*
G37*
G36*
X91901Y19600D02*
X91295D01*
Y18784D01*
X91570D01*
X91697Y18809D01*
X91804Y18881D01*
X91876Y18988D01*
X91901Y19115D01*
Y19600D01*
D02*
G37*
G36*
X91095D02*
X90489D01*
Y19115D01*
X90514Y18988D01*
X90586Y18881D01*
X90693Y18809D01*
X90820Y18784D01*
X91095D01*
Y19600D01*
D02*
G37*
G36*
X92360Y16386D02*
X91875D01*
Y15780D01*
X92691D01*
Y16055D01*
X92666Y16182D01*
X92594Y16289D01*
X92487Y16361D01*
X92360Y16386D01*
D02*
G37*
G36*
X91675D02*
X91190D01*
X91063Y16361D01*
X90956Y16289D01*
X90884Y16182D01*
X90859Y16055D01*
Y15780D01*
X91675D01*
Y16386D01*
D02*
G37*
G36*
X69745Y16305D02*
X68425D01*
Y15640D01*
X69745D01*
Y16305D01*
D02*
G37*
G36*
X68225D02*
X66905D01*
Y15640D01*
X68225D01*
Y16305D01*
D02*
G37*
G36*
X89452Y15899D02*
Y15127D01*
X90224D01*
X90165Y15348D01*
X90046Y15553D01*
X89878Y15721D01*
X89673Y15840D01*
X89452Y15899D01*
D02*
G37*
G36*
X89198Y15899D02*
X88977Y15840D01*
X88772Y15721D01*
X88604Y15553D01*
X88485Y15348D01*
X88426Y15127D01*
X89198D01*
Y15899D01*
D02*
G37*
G36*
X92691Y15580D02*
X91875D01*
Y14974D01*
X92360D01*
X92487Y14999D01*
X92594Y15071D01*
X92666Y15178D01*
X92691Y15305D01*
Y15580D01*
D02*
G37*
G36*
X91675D02*
X90859D01*
Y15305D01*
X90884Y15178D01*
X90956Y15071D01*
X91063Y14999D01*
X91190Y14974D01*
X91675D01*
Y15580D01*
D02*
G37*
G36*
X83785Y15691D02*
X83510D01*
Y14875D01*
X84116D01*
Y15360D01*
X84091Y15487D01*
X84019Y15594D01*
X83912Y15666D01*
X83785Y15691D01*
D02*
G37*
G36*
X83310D02*
X83035D01*
X82908Y15666D01*
X82801Y15594D01*
X82729Y15487D01*
X82704Y15360D01*
Y14875D01*
X83310D01*
Y15691D01*
D02*
G37*
G36*
X69745Y15440D02*
X68425D01*
Y14775D01*
X69745D01*
Y15440D01*
D02*
G37*
G36*
X87635Y15036D02*
X87150D01*
Y14430D01*
X87966D01*
Y14705D01*
X87941Y14832D01*
X87869Y14939D01*
X87762Y15011D01*
X87635Y15036D01*
D02*
G37*
G36*
X86950D02*
X86465D01*
X86338Y15011D01*
X86231Y14939D01*
X86159Y14832D01*
X86134Y14705D01*
Y14430D01*
X86950D01*
Y15036D01*
D02*
G37*
G36*
X89198Y14873D02*
X88426D01*
X88485Y14652D01*
X88604Y14447D01*
X88772Y14279D01*
X88977Y14160D01*
X89198Y14101D01*
Y14873D01*
D02*
G37*
G36*
X90224D02*
X89452D01*
Y14101D01*
X89673Y14160D01*
X89878Y14279D01*
X90046Y14447D01*
X90165Y14652D01*
X90224Y14873D01*
D02*
G37*
G36*
X114200Y14700D02*
X112350D01*
Y14100D01*
X114200D01*
Y14700D01*
D02*
G37*
G36*
X112150D02*
X110300D01*
Y14100D01*
X112150D01*
Y14700D01*
D02*
G37*
G36*
X84116Y14675D02*
X83510D01*
Y13859D01*
X83785D01*
X83912Y13884D01*
X84019Y13956D01*
X84091Y14063D01*
X84116Y14190D01*
Y14675D01*
D02*
G37*
G36*
X83310D02*
X82704D01*
Y14190D01*
X82729Y14063D01*
X82801Y13956D01*
X82908Y13884D01*
X83035Y13859D01*
X83310D01*
Y14675D01*
D02*
G37*
G36*
X87966Y14230D02*
X87150D01*
Y13624D01*
X87635D01*
X87762Y13649D01*
X87869Y13721D01*
X87941Y13828D01*
X87966Y13955D01*
Y14230D01*
D02*
G37*
G36*
X86950D02*
X86134D01*
Y13955D01*
X86159Y13828D01*
X86231Y13721D01*
X86338Y13649D01*
X86465Y13624D01*
X86950D01*
Y14230D01*
D02*
G37*
G36*
X114200Y13900D02*
X112350D01*
Y13300D01*
X114200D01*
Y13900D01*
D02*
G37*
G36*
X112150D02*
X110300D01*
Y13300D01*
X112150D01*
Y13900D01*
D02*
G37*
G36*
X69745Y13765D02*
X68425D01*
Y13100D01*
X69745D01*
Y13765D01*
D02*
G37*
G36*
X108575Y14250D02*
X107325D01*
Y12900D01*
X108575D01*
Y14250D01*
D02*
G37*
G36*
X107125D02*
X105875D01*
Y12900D01*
X107125D01*
Y14250D01*
D02*
G37*
G36*
X61096Y13716D02*
X58354D01*
Y12284D01*
X61096D01*
Y12742D01*
X62526D01*
X62646Y12622D01*
X62821Y12549D01*
X63011D01*
X63186Y12622D01*
X63320Y12756D01*
X63392Y12931D01*
Y13120D01*
X63320Y13295D01*
X63186Y13429D01*
X63011Y13501D01*
X62821D01*
X62646Y13429D01*
X62526Y13309D01*
X61096D01*
Y13716D01*
D02*
G37*
G36*
X69745Y12900D02*
X68425D01*
Y12235D01*
X69745D01*
Y12900D01*
D02*
G37*
G36*
X68225D02*
X66905D01*
Y12235D01*
X68225D01*
Y12900D01*
D02*
G37*
G36*
X76120Y13526D02*
X75930D01*
X75755Y13454D01*
X75659Y13357D01*
X74925D01*
X74808Y13334D01*
X74708Y13267D01*
X73983Y12542D01*
X73916Y12442D01*
X73893Y12325D01*
Y12208D01*
X73773Y12137D01*
X73766Y12137D01*
X73645Y12161D01*
X73370D01*
Y11245D01*
Y10329D01*
X73645D01*
X73766Y10353D01*
X73773Y10353D01*
X73893Y10282D01*
Y10025D01*
X73916Y9908D01*
X73983Y9808D01*
X74198Y9593D01*
Y9313D01*
X74108Y9223D01*
X74032D01*
X73925Y9272D01*
X73847Y9272D01*
X73375D01*
Y8497D01*
Y7722D01*
X73925Y7722D01*
X74032Y7771D01*
X74052D01*
X78018D01*
X78125Y7722D01*
X78203Y7722D01*
X78675D01*
Y8497D01*
Y9272D01*
X78125Y9272D01*
X78018Y9223D01*
X77942D01*
X77852Y9313D01*
Y9597D01*
X78092Y9837D01*
X78159Y9937D01*
X78182Y10054D01*
Y10270D01*
X78309Y10346D01*
X78395Y10329D01*
X78670D01*
Y11245D01*
Y12161D01*
X78395D01*
X78309Y12144D01*
X78182Y12220D01*
Y12319D01*
X78159Y12437D01*
X78092Y12536D01*
X77361Y13267D01*
X77262Y13334D01*
X77144Y13357D01*
X76391D01*
X76295Y13454D01*
X76120Y13526D01*
D02*
G37*
G36*
X108575Y12700D02*
X107325D01*
Y11350D01*
X108575D01*
Y12700D01*
D02*
G37*
G36*
X107125D02*
X105875D01*
Y11350D01*
X107125D01*
Y12700D01*
D02*
G37*
G36*
X73170Y12161D02*
X72895D01*
X72768Y12136D01*
X72661Y12064D01*
X72589Y11957D01*
X72564Y11830D01*
Y11345D01*
X73170D01*
Y12161D01*
D02*
G37*
G36*
X79145D02*
X78870D01*
Y11345D01*
X79476D01*
Y11830D01*
X79451Y11957D01*
X79379Y12064D01*
X79272Y12136D01*
X79145Y12161D01*
D02*
G37*
G36*
X69745Y11225D02*
X68425D01*
Y10560D01*
X69745D01*
Y11225D01*
D02*
G37*
G36*
X68225D02*
X66905D01*
Y10560D01*
X68225D01*
Y11225D01*
D02*
G37*
G36*
X79476Y11145D02*
X78870D01*
Y10329D01*
X79145D01*
X79272Y10354D01*
X79379Y10426D01*
X79451Y10533D01*
X79476Y10660D01*
Y11145D01*
D02*
G37*
G36*
X73170Y11145D02*
X72564D01*
Y10660D01*
X72589Y10533D01*
X72661Y10426D01*
X72768Y10354D01*
X72895Y10329D01*
X73170D01*
Y11145D01*
D02*
G37*
G36*
X69745Y10360D02*
X68425D01*
Y9695D01*
X69745D01*
Y10360D01*
D02*
G37*
G36*
X68225D02*
X66905D01*
Y9695D01*
X68225D01*
Y10360D01*
D02*
G37*
G36*
X98935Y20651D02*
X98195D01*
X97460Y20554D01*
X96745Y20363D01*
X96060Y20079D01*
X95419Y19709D01*
X94831Y19258D01*
X94307Y18734D01*
X93856Y18146D01*
X93486Y17505D01*
X93202Y16820D01*
X93011Y16105D01*
X92914Y15370D01*
Y14630D01*
X93011Y13895D01*
X93202Y13180D01*
X93486Y12495D01*
X93856Y11854D01*
X94307Y11266D01*
X94831Y10742D01*
X95419Y10291D01*
X96060Y9921D01*
X96745Y9637D01*
X97460Y9446D01*
X98195Y9349D01*
X98935D01*
X99670Y9446D01*
X100385Y9637D01*
X101070Y9921D01*
X101711Y10291D01*
X102299Y10742D01*
X102823Y11266D01*
X103274Y11854D01*
X103644Y12495D01*
X103928Y13180D01*
X104119Y13895D01*
X104216Y14630D01*
Y15370D01*
X104119Y16105D01*
X103928Y16820D01*
X103644Y17505D01*
X103274Y18146D01*
X102823Y18734D01*
X102299Y19258D01*
X101711Y19709D01*
X101070Y20079D01*
X100385Y20363D01*
X99670Y20554D01*
X98935Y20651D01*
D02*
G37*
G36*
X71832Y9632D02*
Y8619D01*
X72362D01*
Y8992D01*
X72339Y9162D01*
X72274Y9320D01*
X72169Y9456D01*
X72033Y9561D01*
X71875Y9626D01*
X71832Y9632D01*
D02*
G37*
G36*
X71578D02*
X71535Y9626D01*
X71377Y9561D01*
X71241Y9456D01*
X71136Y9320D01*
X71071Y9162D01*
X71048Y8992D01*
Y8619D01*
X71578D01*
Y9632D01*
D02*
G37*
G36*
X80472D02*
Y8619D01*
X81002D01*
Y8992D01*
X80979Y9162D01*
X80914Y9320D01*
X80809Y9456D01*
X80673Y9561D01*
X80515Y9626D01*
X80472Y9632D01*
D02*
G37*
G36*
X80218D02*
X80175Y9626D01*
X80017Y9561D01*
X79881Y9456D01*
X79776Y9320D01*
X79711Y9162D01*
X79688Y8992D01*
Y8619D01*
X80218D01*
Y9632D01*
D02*
G37*
G36*
X78875Y9272D02*
Y8597D01*
X79425D01*
Y9272D01*
X78875D01*
D02*
G37*
G36*
X73175D02*
X72625D01*
Y8597D01*
X73175D01*
Y9272D01*
D02*
G37*
G36*
X79425Y8397D02*
X78875D01*
Y7722D01*
X79425D01*
Y8397D01*
D02*
G37*
G36*
X73175Y8397D02*
X72625D01*
Y7722D01*
X73175D01*
Y8397D01*
D02*
G37*
G36*
X81002Y8365D02*
X80472D01*
Y7352D01*
X80515Y7358D01*
X80673Y7423D01*
X80809Y7528D01*
X80914Y7664D01*
X80979Y7822D01*
X81002Y7992D01*
Y8365D01*
D02*
G37*
G36*
X72362Y8365D02*
X71832D01*
Y7352D01*
X71875Y7358D01*
X72033Y7423D01*
X72169Y7528D01*
X72274Y7664D01*
X72339Y7822D01*
X72362Y7992D01*
Y8365D01*
D02*
G37*
G36*
X71578D02*
X71048D01*
Y7992D01*
X71071Y7822D01*
X71136Y7664D01*
X71241Y7528D01*
X71377Y7423D01*
X71535Y7358D01*
X71578Y7352D01*
Y8365D01*
D02*
G37*
G36*
X80218Y8365D02*
X79688D01*
Y7992D01*
X79711Y7822D01*
X79776Y7664D01*
X79881Y7528D01*
X80017Y7423D01*
X80175Y7358D01*
X80218Y7352D01*
Y8365D01*
D02*
G37*
G36*
X98739Y7318D02*
X98453D01*
Y6915D01*
X99223D01*
X99204Y7008D01*
X99095Y7171D01*
X98932Y7280D01*
X98739Y7318D01*
D02*
G37*
G36*
X98253D02*
X97967D01*
X97775Y7280D01*
X97612Y7171D01*
X97503Y7008D01*
X97484Y6915D01*
X98253D01*
Y7318D01*
D02*
G37*
G36*
X102650Y6818D02*
X102410D01*
X102178Y6756D01*
X101969Y6636D01*
X101799Y6466D01*
X101679Y6257D01*
X101660Y6186D01*
X98742D01*
X98739Y6312D01*
X98932Y6350D01*
X99095Y6459D01*
X99204Y6622D01*
X99223Y6715D01*
X98353D01*
X97484D01*
X97503Y6622D01*
X97612Y6459D01*
X97775Y6350D01*
X97967Y6312D01*
X97965Y6186D01*
X97229D01*
X97206Y6220D01*
X97059Y6319D01*
X96886Y6353D01*
X96114D01*
X95941Y6319D01*
X95794Y6220D01*
X95695Y6073D01*
X95661Y5900D01*
X95695Y5727D01*
X95794Y5580D01*
X95941Y5481D01*
X96114Y5447D01*
X96886D01*
X97059Y5481D01*
X97206Y5580D01*
X97233Y5619D01*
X101661D01*
X101679Y5553D01*
X101799Y5344D01*
X101969Y5174D01*
X102178Y5054D01*
X102410Y4992D01*
X102650D01*
X102882Y5054D01*
X103091Y5174D01*
X103261Y5344D01*
X103381Y5553D01*
X103443Y5785D01*
Y6025D01*
X103381Y6257D01*
X103261Y6466D01*
X103091Y6636D01*
X102882Y6756D01*
X102650Y6818D01*
D02*
G37*
G36*
X104860Y6821D02*
X104585D01*
Y6005D01*
X105191D01*
Y6490D01*
X105166Y6617D01*
X105094Y6724D01*
X104987Y6796D01*
X104860Y6821D01*
D02*
G37*
G36*
X104385D02*
X104110D01*
X103983Y6796D01*
X103876Y6724D01*
X103804Y6617D01*
X103779Y6490D01*
Y6005D01*
X104385D01*
Y6821D01*
D02*
G37*
G36*
X110706Y10426D02*
X109004D01*
Y9124D01*
X109572D01*
Y6771D01*
X109480D01*
X109372Y6750D01*
X109281Y6689D01*
X109220Y6598D01*
X109199Y6490D01*
Y5320D01*
X109220Y5212D01*
X109281Y5121D01*
X109372Y5060D01*
X109480Y5039D01*
X110230D01*
X110338Y5060D01*
X110429Y5121D01*
X110490Y5212D01*
X110511Y5320D01*
Y5622D01*
X110839D01*
Y5320D01*
X110860Y5212D01*
X110921Y5121D01*
X111012Y5060D01*
X111120Y5039D01*
X111870D01*
X111978Y5060D01*
X112069Y5121D01*
X112130Y5212D01*
X112151Y5320D01*
Y6490D01*
X112130Y6598D01*
X112069Y6689D01*
X111978Y6750D01*
X111870Y6771D01*
X111120D01*
X111012Y6750D01*
X110921Y6689D01*
X110860Y6598D01*
X110839Y6490D01*
Y6188D01*
X110511D01*
Y6490D01*
X110490Y6598D01*
X110429Y6689D01*
X110338Y6750D01*
X110230Y6771D01*
X110138D01*
Y9124D01*
X110706D01*
Y10426D01*
D02*
G37*
G36*
X105191Y5805D02*
X104585D01*
Y4989D01*
X104860D01*
X104987Y5014D01*
X105094Y5086D01*
X105166Y5193D01*
X105191Y5320D01*
Y5805D01*
D02*
G37*
G36*
X104385D02*
X103779D01*
Y5320D01*
X103804Y5193D01*
X103876Y5086D01*
X103983Y5014D01*
X104110Y4989D01*
X104385D01*
Y5805D01*
D02*
G37*
G36*
X71832Y5832D02*
Y4819D01*
X72362D01*
Y5192D01*
X72339Y5362D01*
X72274Y5520D01*
X72169Y5656D01*
X72033Y5761D01*
X71875Y5826D01*
X71832Y5832D01*
D02*
G37*
G36*
X71578D02*
X71535Y5826D01*
X71377Y5761D01*
X71241Y5656D01*
X71136Y5520D01*
X71071Y5362D01*
X71048Y5192D01*
Y4819D01*
X71578D01*
Y5832D01*
D02*
G37*
G36*
X80472D02*
Y4819D01*
X81002D01*
Y5192D01*
X80979Y5362D01*
X80914Y5520D01*
X80809Y5656D01*
X80673Y5761D01*
X80515Y5826D01*
X80472Y5832D01*
D02*
G37*
G36*
X80218D02*
X80175Y5826D01*
X80017Y5761D01*
X79881Y5656D01*
X79776Y5520D01*
X79711Y5362D01*
X79688Y5192D01*
Y4819D01*
X80218D01*
Y5832D01*
D02*
G37*
G36*
X92805Y4291D02*
X92055D01*
X91947Y4270D01*
X91856Y4209D01*
X91795Y4118D01*
X91774Y4010D01*
Y3708D01*
X91115D01*
X90995Y3829D01*
X90820Y3901D01*
X90630D01*
X90455Y3829D01*
X90321Y3695D01*
X90249Y3520D01*
Y3330D01*
X90321Y3155D01*
X90455Y3021D01*
X90630Y2949D01*
X90820D01*
X90995Y3021D01*
X91115Y3142D01*
X91774D01*
Y2840D01*
X91795Y2732D01*
X91856Y2641D01*
X91947Y2580D01*
X92055Y2559D01*
X92805D01*
X92913Y2580D01*
X93004Y2641D01*
X93065Y2732D01*
X93086Y2840D01*
Y4010D01*
X93065Y4118D01*
X93004Y4209D01*
X92913Y4270D01*
X92805Y4291D01*
D02*
G37*
G36*
X81002Y4565D02*
X80472D01*
Y3552D01*
X80515Y3558D01*
X80673Y3623D01*
X80809Y3728D01*
X80914Y3864D01*
X80979Y4022D01*
X81002Y4192D01*
Y4565D01*
D02*
G37*
G36*
X71578Y4565D02*
X71048D01*
Y4192D01*
X71071Y4022D01*
X71136Y3864D01*
X71241Y3728D01*
X71377Y3623D01*
X71535Y3558D01*
X71578Y3552D01*
Y4565D01*
D02*
G37*
G36*
X72362D02*
X71832D01*
Y3552D01*
X71875Y3558D01*
X72033Y3623D01*
X72169Y3728D01*
X72274Y3864D01*
X72339Y4022D01*
X72362Y4192D01*
Y4565D01*
D02*
G37*
G36*
X80218Y4565D02*
X79688D01*
Y4192D01*
X79711Y4022D01*
X79776Y3864D01*
X79881Y3728D01*
X80017Y3623D01*
X80175Y3558D01*
X80218Y3552D01*
Y4565D01*
D02*
G37*
G36*
X104860Y4341D02*
X104585D01*
Y3525D01*
X105191D01*
Y4010D01*
X105166Y4137D01*
X105094Y4244D01*
X104987Y4316D01*
X104860Y4341D01*
D02*
G37*
G36*
X104385D02*
X104110D01*
X103983Y4316D01*
X103876Y4244D01*
X103804Y4137D01*
X103779Y4010D01*
Y3525D01*
X104385D01*
Y4341D01*
D02*
G37*
G36*
X99184Y5429D02*
X97523D01*
Y5268D01*
X97010D01*
X96902Y5247D01*
X96810Y5185D01*
X95333Y3708D01*
X94956D01*
Y4010D01*
X94935Y4118D01*
X94874Y4209D01*
X94783Y4270D01*
X94675Y4291D01*
X93925D01*
X93817Y4270D01*
X93726Y4209D01*
X93665Y4118D01*
X93644Y4010D01*
Y2840D01*
X93665Y2732D01*
X93726Y2641D01*
X93817Y2580D01*
X93925Y2559D01*
X94675D01*
X94783Y2580D01*
X94874Y2641D01*
X94935Y2732D01*
X94956Y2840D01*
Y3142D01*
X95450D01*
X95558Y3163D01*
X95650Y3225D01*
X97127Y4702D01*
X97523D01*
Y4541D01*
X99184D01*
Y4702D01*
X99523D01*
X101000Y3225D01*
X101092Y3163D01*
X101200Y3142D01*
X101959D01*
Y2840D01*
X101980Y2732D01*
X102041Y2641D01*
X102132Y2580D01*
X102240Y2559D01*
X102990D01*
X103098Y2580D01*
X103189Y2641D01*
X103250Y2732D01*
X103271Y2840D01*
Y4010D01*
X103250Y4118D01*
X103189Y4209D01*
X103098Y4270D01*
X102990Y4291D01*
X102240D01*
X102132Y4270D01*
X102041Y4209D01*
X101980Y4118D01*
X101959Y4010D01*
Y3708D01*
X101317D01*
X99840Y5185D01*
X99748Y5247D01*
X99640Y5268D01*
X99184D01*
Y5429D01*
D02*
G37*
G36*
X105191Y3325D02*
X104585D01*
Y2509D01*
X104860D01*
X104987Y2534D01*
X105094Y2606D01*
X105166Y2713D01*
X105191Y2840D01*
Y3325D01*
D02*
G37*
G36*
X104385D02*
X103779D01*
Y2840D01*
X103804Y2713D01*
X103876Y2606D01*
X103983Y2534D01*
X104110Y2509D01*
X104385D01*
Y3325D01*
D02*
G37*
G36*
X39746Y26832D02*
X39471D01*
Y26016D01*
X40077D01*
Y26501D01*
X40052Y26628D01*
X39980Y26735D01*
X39873Y26807D01*
X39746Y26832D01*
D02*
G37*
G36*
X39271D02*
X38996D01*
X38869Y26807D01*
X38762Y26735D01*
X38690Y26628D01*
X38665Y26501D01*
Y26016D01*
X39271D01*
Y26832D01*
D02*
G37*
G36*
X40077Y25816D02*
X39471D01*
Y25000D01*
X39746D01*
X39873Y25025D01*
X39980Y25097D01*
X40052Y25204D01*
X40077Y25331D01*
Y25816D01*
D02*
G37*
G36*
X39271D02*
X38665D01*
Y25331D01*
X38690Y25204D01*
X38762Y25097D01*
X38869Y25025D01*
X38996Y25000D01*
X39271D01*
Y25816D01*
D02*
G37*
G36*
X39451Y23842D02*
X38966D01*
Y23236D01*
X39782D01*
Y23511D01*
X39757Y23638D01*
X39685Y23745D01*
X39578Y23817D01*
X39451Y23842D01*
D02*
G37*
G36*
X38766D02*
X38281D01*
X38154Y23817D01*
X38047Y23745D01*
X37975Y23638D01*
X37950Y23511D01*
Y23236D01*
X38766D01*
Y23842D01*
D02*
G37*
G36*
X39782Y23036D02*
X38966D01*
Y22430D01*
X39451D01*
X39578Y22455D01*
X39685Y22527D01*
X39757Y22634D01*
X39782Y22761D01*
Y23036D01*
D02*
G37*
G36*
X38766D02*
X37950D01*
Y22761D01*
X37975Y22634D01*
X38047Y22527D01*
X38154Y22455D01*
X38281Y22430D01*
X38766D01*
Y23036D01*
D02*
G37*
G36*
X28907Y26698D02*
Y25914D01*
X29691D01*
X29631Y26139D01*
X29511Y26347D01*
X29341Y26517D01*
X29132Y26638D01*
X28907Y26698D01*
D02*
G37*
G36*
X28653D02*
X28428Y26638D01*
X28219Y26517D01*
X28049Y26347D01*
X27929Y26139D01*
X27869Y25914D01*
X28653D01*
Y26698D01*
D02*
G37*
G36*
X29691Y25660D02*
X28907D01*
Y24876D01*
X29132Y24936D01*
X29341Y25056D01*
X29511Y25226D01*
X29631Y25434D01*
X29691Y25660D01*
D02*
G37*
G36*
X28653D02*
X27869D01*
X27929Y25434D01*
X28049Y25226D01*
X28219Y25056D01*
X28428Y24936D01*
X28653Y24876D01*
Y25660D01*
D02*
G37*
G36*
X14450Y19685D02*
X13300D01*
Y18895D01*
X14450D01*
Y19685D01*
D02*
G37*
G36*
X13100D02*
X11950D01*
Y18895D01*
X13100D01*
Y19685D01*
D02*
G37*
G36*
X23550Y19675D02*
X22400D01*
Y18885D01*
X23550D01*
Y19675D01*
D02*
G37*
G36*
X22200D02*
X21050D01*
Y18885D01*
X22200D01*
Y19675D01*
D02*
G37*
G36*
X14450Y18695D02*
X13300D01*
Y17905D01*
X14450D01*
Y18695D01*
D02*
G37*
G36*
X13100D02*
X11950D01*
Y17905D01*
X13100D01*
Y18695D01*
D02*
G37*
G36*
X23550Y18685D02*
X22400D01*
Y17895D01*
X23550D01*
Y18685D01*
D02*
G37*
G36*
X22200D02*
X21050D01*
Y17895D01*
X22200D01*
Y18685D01*
D02*
G37*
G36*
X26875Y14675D02*
X26375D01*
Y14125D01*
X26875D01*
Y14675D01*
D02*
G37*
G36*
Y13925D02*
X26375D01*
Y13375D01*
X26875D01*
Y13925D01*
D02*
G37*
G36*
X4138Y13503D02*
X3913D01*
Y12903D01*
X4138D01*
Y13503D01*
D02*
G37*
G36*
X8007Y21466D02*
X7732D01*
Y20650D01*
X8338D01*
Y21135D01*
X8313Y21262D01*
X8241Y21369D01*
X8134Y21441D01*
X8007Y21466D01*
D02*
G37*
G36*
X7532D02*
X7257D01*
X7130Y21441D01*
X7023Y21369D01*
X6951Y21262D01*
X6926Y21135D01*
Y20650D01*
X7532D01*
Y21466D01*
D02*
G37*
G36*
X8338Y20450D02*
X7732D01*
Y19634D01*
X8007D01*
X8134Y19659D01*
X8241Y19731D01*
X8313Y19838D01*
X8338Y19965D01*
Y20450D01*
D02*
G37*
G36*
X7532D02*
X6926D01*
Y19965D01*
X6951Y19838D01*
X7023Y19731D01*
X7130Y19659D01*
X7257Y19634D01*
X7532D01*
Y20450D01*
D02*
G37*
G36*
X7995Y19266D02*
X7720D01*
Y18450D01*
X8326D01*
Y18935D01*
X8301Y19062D01*
X8229Y19169D01*
X8122Y19241D01*
X7995Y19266D01*
D02*
G37*
G36*
X7520D02*
X7245D01*
X7118Y19241D01*
X7011Y19169D01*
X6939Y19062D01*
X6914Y18935D01*
Y18450D01*
X7520D01*
Y19266D01*
D02*
G37*
G36*
X8326Y18250D02*
X7720D01*
Y17434D01*
X7995D01*
X8122Y17459D01*
X8229Y17531D01*
X8301Y17638D01*
X8326Y17765D01*
Y18250D01*
D02*
G37*
G36*
X7520D02*
X6914D01*
Y17765D01*
X6939Y17638D01*
X7011Y17531D01*
X7118Y17459D01*
X7245Y17434D01*
X7520D01*
Y18250D01*
D02*
G37*
G36*
X9460Y17076D02*
X8975D01*
Y16470D01*
X9791D01*
Y16745D01*
X9766Y16872D01*
X9694Y16979D01*
X9587Y17051D01*
X9460Y17076D01*
D02*
G37*
G36*
X8775D02*
X8290D01*
X8163Y17051D01*
X8056Y16979D01*
X7984Y16872D01*
X7959Y16745D01*
Y16470D01*
X8775D01*
Y17076D01*
D02*
G37*
G36*
X9791Y16270D02*
X8975D01*
Y15664D01*
X9460D01*
X9587Y15689D01*
X9694Y15761D01*
X9766Y15868D01*
X9791Y15995D01*
Y16270D01*
D02*
G37*
G36*
X8775D02*
X7959D01*
Y15995D01*
X7984Y15868D01*
X8056Y15761D01*
X8163Y15689D01*
X8290Y15664D01*
X8775D01*
Y16270D01*
D02*
G37*
G36*
X6841Y15825D02*
X6241D01*
Y15600D01*
X6841D01*
Y15825D01*
D02*
G37*
G36*
X61096Y11176D02*
X58354D01*
Y9744D01*
X61096D01*
Y10177D01*
X61385D01*
X61505Y10056D01*
X61680Y9984D01*
X61870D01*
X62045Y10056D01*
X62179Y10190D01*
X62251Y10365D01*
Y10555D01*
X62179Y10730D01*
X62045Y10864D01*
X61870Y10936D01*
X61680D01*
X61505Y10864D01*
X61385Y10743D01*
X61096D01*
Y11176D01*
D02*
G37*
%LPD*%
D10*
X78775Y8497D02*
D03*
X73275D02*
D03*
D11*
X77545D02*
D03*
X74505D02*
D03*
D12*
X75525D02*
D03*
X76525D02*
D03*
D13*
X22300Y18785D02*
D03*
X13200Y18795D02*
D03*
X22300Y23275D02*
D03*
X13200D02*
D03*
D14*
X109855Y5905D02*
D03*
X107985D02*
D03*
X111495D02*
D03*
X113365D02*
D03*
X106355D02*
D03*
X104485D02*
D03*
X92430Y3425D02*
D03*
X94300D02*
D03*
X104485Y3425D02*
D03*
X102615D02*
D03*
X89325Y19700D02*
D03*
X91195D02*
D03*
X81540Y14775D02*
D03*
X83410D02*
D03*
X38470Y7975D02*
D03*
X36600D02*
D03*
X31730Y7975D02*
D03*
X33600D02*
D03*
X5750Y18350D02*
D03*
X7620D02*
D03*
X7632Y20550D02*
D03*
X5762D02*
D03*
X41241Y25916D02*
D03*
X39371D02*
D03*
X73270Y11245D02*
D03*
X75140D02*
D03*
X78770D02*
D03*
X76900D02*
D03*
D15*
X106495Y9775D02*
D03*
X109855D02*
D03*
X84900Y12460D02*
D03*
X81540D02*
D03*
D16*
X98353Y4985D02*
D03*
D17*
Y6815D02*
D03*
X96500Y5900D02*
D03*
D18*
X41241Y23866D02*
D03*
X43141D02*
D03*
Y21266D02*
D03*
X42191D02*
D03*
X41241D02*
D03*
D19*
X26975Y15875D02*
D03*
Y14025D02*
D03*
X28425D02*
D03*
Y15875D02*
D03*
D20*
X59725Y15540D02*
D03*
Y13000D02*
D03*
Y10460D02*
D03*
X68325D02*
D03*
Y13000D02*
D03*
Y15540D02*
D03*
D21*
X38866Y23136D02*
D03*
Y21266D02*
D03*
X80345Y19285D02*
D03*
Y17415D02*
D03*
X87050Y12460D02*
D03*
Y14330D02*
D03*
X8875Y14500D02*
D03*
Y16370D02*
D03*
X91775Y15680D02*
D03*
Y17550D02*
D03*
D22*
X41325Y3375D02*
D03*
X3475D02*
D03*
X10925D02*
D03*
X36275D02*
D03*
X87300D02*
D03*
X106025Y26625D02*
D03*
X116325D02*
D03*
X85425D02*
D03*
X95725D02*
D03*
X3475D02*
D03*
D23*
X82500Y19300D02*
D03*
Y17200D02*
D03*
D24*
X38505Y19225D02*
D03*
Y18575D02*
D03*
Y17925D02*
D03*
Y17275D02*
D03*
Y16625D02*
D03*
Y15975D02*
D03*
Y15325D02*
D03*
Y14675D02*
D03*
Y14025D02*
D03*
Y13375D02*
D03*
Y12725D02*
D03*
Y12075D02*
D03*
Y11425D02*
D03*
Y10775D02*
D03*
X31495D02*
D03*
Y11425D02*
D03*
Y12075D02*
D03*
Y12725D02*
D03*
Y13375D02*
D03*
Y14025D02*
D03*
Y14675D02*
D03*
Y15325D02*
D03*
Y15975D02*
D03*
Y16625D02*
D03*
Y17275D02*
D03*
Y17925D02*
D03*
Y18575D02*
D03*
Y19225D02*
D03*
D25*
X118000Y18350D02*
D03*
Y11650D02*
D03*
D26*
X112250Y16000D02*
D03*
Y14000D02*
D03*
D27*
X107225Y17200D02*
D03*
Y12800D02*
D03*
D28*
X6141Y14500D02*
D03*
Y15000D02*
D03*
Y15500D02*
D03*
X3859D02*
D03*
Y15000D02*
D03*
Y14500D02*
D03*
D29*
X5750Y16391D02*
D03*
X5250D02*
D03*
X4750D02*
D03*
X4250D02*
D03*
X5762Y13603D02*
D03*
X5254D02*
D03*
X4746D02*
D03*
X4238D02*
D03*
D30*
X95725Y26625D02*
X106025D01*
X112350Y12460D02*
Y14000D01*
X78770Y8502D02*
X78780Y8492D01*
X73825Y6925D02*
X78125D01*
X112250Y14000D02*
X112350D01*
X110200D02*
X112250D01*
X95592Y21157D02*
X101668D01*
X91985Y17550D02*
X95592Y21157D01*
X101668D02*
X105625Y17200D01*
X53079Y8891D02*
X56300Y12113D01*
X47537Y8891D02*
X53079D01*
X47350Y8440D02*
X53265D01*
X43592Y12836D02*
X47537Y8891D01*
X53265Y8440D02*
X56625Y11800D01*
X43141Y12650D02*
X47350Y8440D01*
X104485Y5905D02*
Y6940D01*
Y3425D02*
Y5905D01*
X103558Y8653D02*
X104680Y9775D01*
X89325Y10800D02*
X91472Y8653D01*
X93786Y9104D02*
X101704D01*
X91775Y11115D02*
X93786Y9104D01*
X101704D02*
X105400Y12800D01*
X91472Y8653D02*
X103558D01*
X85589Y24976D02*
Y26461D01*
X89325Y19700D02*
Y21240D01*
X85589Y24976D02*
X89325Y21240D01*
X85425Y26625D02*
X85589Y26461D01*
X89325Y17540D02*
Y19700D01*
X25465Y15875D02*
X26975D01*
X100225Y7475D02*
X103950D01*
X99565Y6815D02*
X100225Y7475D01*
X43592Y12836D02*
Y20028D01*
X44000Y20436D01*
Y24925D01*
X43094Y25831D02*
X44000Y24925D01*
X56625Y11800D02*
X71350D01*
X56300Y12113D02*
Y15325D01*
X103950Y7475D02*
X104485Y6940D01*
X71350Y11800D02*
X74325Y14775D01*
X26965Y14035D02*
X26975Y14025D01*
X25450Y14035D02*
X26965D01*
X80345Y4692D02*
Y8492D01*
X71705Y4692D02*
Y8492D01*
X36400Y23250D02*
X36457Y23193D01*
X38809D02*
X38866Y23136D01*
X36457Y23193D02*
X38809D01*
X68325Y9025D02*
X68858Y8492D01*
X71705D01*
X68325Y9025D02*
Y10460D01*
X66725Y13050D02*
X68275D01*
X68325Y13000D01*
X66200Y13575D02*
Y15000D01*
Y13575D02*
X66725Y13050D01*
X66740Y15540D02*
X68325D01*
X66200Y15000D02*
X66740Y15540D01*
X104535Y3375D02*
X106025D01*
X104485Y3425D02*
X104535Y3375D01*
X87300Y5572D02*
X89325Y7597D01*
X87300Y3375D02*
Y5572D01*
X91775Y11115D02*
Y15680D01*
X105400Y12800D02*
X107225D01*
X104680Y9775D02*
X106495D01*
X91195Y19700D02*
X93050D01*
X93050Y19700D02*
X95725Y22375D01*
Y26625D01*
X35720Y19225D02*
X37025D01*
X35075Y19870D02*
Y27325D01*
Y19870D02*
X35720Y19225D01*
X35100Y27350D02*
X40900D01*
X35075Y27325D02*
X35100Y27350D01*
X26300D02*
X35100D01*
X42191Y21266D02*
Y22334D01*
X41900Y22625D02*
X42191Y22334D01*
X40511Y22625D02*
X41900D01*
X40000Y23136D02*
X40511Y22625D01*
X38866Y23136D02*
X40000D01*
X116325Y24650D02*
Y26625D01*
X98353Y6815D02*
X99565D01*
X89325Y10800D02*
Y12460D01*
X115230Y5905D02*
Y15320D01*
X114550Y16000D02*
X115230Y15320D01*
X112350Y16000D02*
X114550D01*
X110200D02*
X112350D01*
X113365Y5905D02*
X115230D01*
X105625Y17200D02*
X107225D01*
X109000D01*
X91775Y17550D02*
X91985D01*
X107225Y12800D02*
X109000D01*
X110200Y14000D01*
X109000Y17200D02*
X110200Y16000D01*
X27700Y13125D02*
Y15875D01*
Y13125D02*
X29400Y11425D01*
X27700Y15875D02*
X28425D01*
X26975D02*
X27700D01*
X29400Y11425D02*
X31495D01*
Y14675D02*
X33050D01*
X43141Y12650D02*
Y19941D01*
X41241Y25831D02*
X43094D01*
X41225Y25847D02*
X41241Y25831D01*
Y23866D02*
Y25831D01*
X41225Y25847D02*
Y27025D01*
X40900Y27350D02*
X41225Y27025D01*
X38866Y21266D02*
X41241D01*
X43141Y19941D02*
Y21266D01*
X56300Y15325D02*
X57500Y16525D01*
X38866Y23136D02*
Y24070D01*
X39371Y24575D01*
Y25916D01*
X41736Y19941D02*
X43141D01*
X41241Y20436D02*
X41736Y19941D01*
X41241Y20436D02*
Y21266D01*
X57500Y16525D02*
X65450D01*
X65500Y16475D01*
X74325Y14775D02*
X77300D01*
X37025Y19225D02*
X38505D01*
X25430Y14015D02*
X25450Y14035D01*
X22300Y14015D02*
X25430D01*
X31495Y11425D02*
X33050D01*
X77300Y14775D02*
X81540D01*
X5759Y20553D02*
X5762Y20550D01*
Y22325D02*
Y24050D01*
X10575Y22350D02*
Y27350D01*
Y14950D02*
Y22350D01*
X5762Y22325D02*
X10550D01*
X10575Y22350D01*
Y27350D02*
X12875D01*
X9062D02*
X10575D01*
X3475Y26625D02*
X8337D01*
X9062Y27350D01*
X87050Y12460D02*
X89325D01*
X84900D02*
X87050D01*
X22300Y9325D02*
Y14015D01*
X12875Y27350D02*
X12890Y27335D01*
X12905Y27350D01*
X8875Y14500D02*
X8875Y14500D01*
X10125D02*
X10575Y14950D01*
X22300Y14015D02*
Y18785D01*
Y9325D02*
X22750Y8875D01*
X13200Y18795D02*
X22290D01*
X22300Y18785D01*
X12905Y27350D02*
X26300D01*
X7620Y18350D02*
X9838D01*
X38470Y7975D02*
Y9883D01*
X31730Y9155D02*
X33050Y10475D01*
Y11425D01*
X31730Y7975D02*
Y9155D01*
X26240Y26041D02*
Y27290D01*
X26300Y27350D01*
X5762Y20550D02*
Y22325D01*
X8875Y14500D02*
X10125D01*
X89330Y17545D02*
X91770D01*
X89325Y17540D02*
X89330Y17545D01*
X91770D02*
X91775Y17550D01*
X90094Y15680D02*
X91775D01*
X35988Y13987D02*
Y15273D01*
X36775Y16060D01*
X35988Y13987D02*
X36600Y13375D01*
X36775Y16060D02*
Y17400D01*
Y18175D01*
X37175Y18575D01*
X38505D01*
X36600Y13375D02*
X38505D01*
X74200Y12325D02*
X74925Y13050D01*
X76025D01*
X74200Y10025D02*
Y12325D01*
X76025Y13050D02*
X77144D01*
X77875Y12319D01*
Y10054D02*
Y12319D01*
X74200Y10025D02*
X74505Y9720D01*
Y8497D02*
Y9720D01*
X77545Y8497D02*
Y9724D01*
X77875Y10054D01*
X71705Y8492D02*
X73270D01*
X73275Y7475D02*
Y8497D01*
Y7475D02*
X73825Y6925D01*
X73270Y8502D02*
Y11245D01*
Y8492D02*
X73275Y8497D01*
X73270Y8502D02*
X73275Y8497D01*
X7620Y18350D02*
X7626Y18356D01*
Y20544D01*
X7632Y20550D01*
X78125Y6925D02*
X78780Y7580D01*
Y8492D01*
X80345D01*
X78770Y8502D02*
Y11245D01*
X84900Y14330D02*
X87050D01*
X84455Y14775D02*
X84900Y14330D01*
X83410Y14775D02*
X84455D01*
X88549Y14330D02*
X89219Y15000D01*
X87050Y14330D02*
X88549D01*
X89219Y15000D02*
X89325D01*
X89414D02*
X90094Y15680D01*
X81540Y12460D02*
Y14775D01*
D31*
X48076Y4819D02*
X67340D01*
X40688Y11634D02*
X47908Y4414D01*
X42308Y12305D02*
X48579Y6034D01*
X41498Y11969D02*
X48243Y5224D01*
X55960Y6034D02*
X56825Y6899D01*
X60804Y5629D02*
X66200Y11025D01*
X62399Y5224D02*
X66200Y9025D01*
X67340Y4819D02*
X67348Y4827D01*
X47908Y4414D02*
X60115D01*
X48243Y5224D02*
X62399D01*
X41093Y11801D02*
X48076Y4819D01*
X60115Y4414D02*
X60604Y3925D01*
X41903Y12137D02*
X48411Y5629D01*
X42713Y12472D02*
X48747Y6439D01*
X53935D02*
X54647Y7150D01*
X48579Y6034D02*
X55960D01*
X48411Y5629D02*
X60804D01*
X60604Y3925D02*
X60625D01*
X48747Y6439D02*
X53935D01*
X40244Y9659D02*
X40267Y9636D01*
X40244Y9659D02*
Y10343D01*
X40267Y6792D02*
Y9636D01*
X39812Y10775D02*
X40244Y10343D01*
X39500Y6025D02*
X40267Y6792D01*
X38505Y10775D02*
X39812D01*
X41300Y3400D02*
X41325Y3375D01*
Y8225D02*
Y10050D01*
X41300Y3400D02*
Y8200D01*
X41325Y8225D01*
X39950Y11425D02*
X41325Y10050D01*
X58575Y3075D02*
X82460D01*
X58150Y3500D02*
X58150D01*
X58575Y3075D01*
X5756Y18350D02*
Y20550D01*
X5750Y16391D02*
Y18350D01*
X2825Y16000D02*
X3325Y15500D01*
X3313Y18363D02*
X4103D01*
X2825Y17875D02*
X3313Y18363D01*
X2825Y16000D02*
Y17875D01*
X3325Y15500D02*
X3859D01*
X87585Y8200D02*
X105422D01*
X106355Y7267D01*
X82460Y3075D02*
X87585Y8200D01*
X1675Y14175D02*
X2500Y15000D01*
X2080Y10295D02*
Y13855D01*
Y10295D02*
X6475Y5900D01*
X1675Y10075D02*
X6650Y5100D01*
X1675Y10075D02*
Y14175D01*
X2080Y13855D02*
X2725Y14500D01*
X2500Y15000D02*
X3859D01*
X2725Y14500D02*
X3859D01*
X33206Y16625D02*
X33860Y17279D01*
X31495Y16625D02*
X33206D01*
X33860Y17279D02*
Y25787D01*
X33455Y17796D02*
Y19995D01*
X31320Y22130D02*
X33455Y19995D01*
X32933Y17274D02*
X33455Y17796D01*
X31495Y17275D02*
X31496Y17274D01*
X32933D01*
X31495Y16625D02*
X31608Y16738D01*
X106355Y5905D02*
Y7267D01*
X90725Y3425D02*
X92430D01*
X92430Y3425D01*
X59725Y10460D02*
X61775D01*
X59746Y15561D02*
X62802D01*
X64000Y14363D01*
Y13050D02*
Y14363D01*
X98353Y4985D02*
X99640D01*
X101200Y3425D02*
X102615D01*
X99640Y4985D02*
X101200Y3425D01*
X109855Y5905D02*
Y9775D01*
X97010Y4985D02*
X98353D01*
X95450Y3425D02*
X97010Y4985D01*
X94300Y3425D02*
X95450D01*
X96503Y5903D02*
X102527D01*
X102530Y5905D01*
X96500Y5900D02*
X96503Y5903D01*
X106355Y5905D02*
X107985D01*
X109855D02*
X111495D01*
X28425Y14025D02*
X31495D01*
X32675Y8691D02*
X34350Y10366D01*
X32675Y6550D02*
Y8691D01*
X34350Y10366D02*
Y14871D01*
X31495Y15325D02*
X33896D01*
X34350Y14871D01*
X40266Y14675D02*
X40688Y14253D01*
X40394Y15975D02*
X41498Y14871D01*
X42713Y12472D02*
Y15698D01*
X40486Y17925D02*
X42713Y15698D01*
X40438Y16625D02*
X41903Y15160D01*
X40688Y11634D02*
Y14253D01*
X41903Y12137D02*
Y15160D01*
X41093Y11801D02*
Y14532D01*
X40300Y15325D02*
X41093Y14532D01*
X40512Y17275D02*
X42308Y15479D01*
X41498Y11969D02*
Y14871D01*
X42308Y12305D02*
Y15479D01*
X38505Y11425D02*
X39950D01*
X59750Y13025D02*
X62916D01*
X59725Y15540D02*
X59746Y15561D01*
X67750Y14275D02*
X72355D01*
X74055Y15975D01*
X82000D01*
X29514Y16773D02*
X30312Y15975D01*
X29514Y16773D02*
Y16773D01*
X30312Y15975D02*
X31495D01*
X29975Y17925D02*
X31495D01*
X28887Y17400D02*
X29514Y16773D01*
X38505Y17925D02*
X40486D01*
X80345Y19285D02*
X82485D01*
X82500Y19300D01*
X73703Y16475D02*
X74642Y17415D01*
X80345D01*
X82500Y16475D02*
Y17200D01*
X82000Y15975D02*
X82500Y16475D01*
X59725Y13000D02*
X59750Y13025D01*
X38505Y17275D02*
X40512D01*
X38505Y16625D02*
X40438D01*
X38505Y15975D02*
X40394D01*
X38505Y15325D02*
X40300D01*
X38505Y14675D02*
X40266D01*
X31320Y22130D02*
Y26041D01*
X36922Y6025D02*
X39500D01*
X36275Y5378D02*
X36922Y6025D01*
X36275Y3375D02*
Y5378D01*
X31495Y15325D02*
X31495Y15325D01*
X34800Y10552D02*
X36973Y12725D01*
X34800Y7975D02*
Y10552D01*
X36973Y12725D02*
X38505D01*
X37018Y12075D02*
X38505D01*
X35380Y10437D02*
X37018Y12075D01*
X35380Y7975D02*
Y10437D01*
X8253Y5100D02*
X33525D01*
X35380Y6955D02*
Y7975D01*
X33525Y5100D02*
X35380Y6955D01*
X33528Y5878D02*
X34800Y7150D01*
X7647Y5878D02*
X33528D01*
X34800Y7150D02*
Y7975D01*
X23707Y24405D02*
X28887Y19225D01*
X23707Y24405D02*
Y25779D01*
X28887Y19225D02*
X31495D01*
X23700Y25787D02*
X23707Y25779D01*
X6475Y5900D02*
X7625D01*
X6650Y4000D02*
Y5100D01*
X6025Y3375D02*
X6650Y4000D01*
Y5100D02*
X8203D01*
X3475Y3375D02*
X6025D01*
X4238Y12612D02*
X4875Y11975D01*
X4238Y12612D02*
Y13603D01*
X4875Y11975D02*
X8820D01*
X13200Y16355D02*
Y17275D01*
X8820Y11975D02*
X13200Y16355D01*
Y17275D02*
Y18795D01*
X7625Y3850D02*
X8100Y3375D01*
X7625Y3850D02*
Y4450D01*
X8203Y5100D02*
X8228Y5125D01*
X8253Y5100D01*
X8100Y3375D02*
X10925D01*
X35380Y7975D02*
X36600D01*
X34800Y7975D02*
X34800Y7975D01*
X33600Y7975D02*
X34800D01*
X18000Y23275D02*
X22300D01*
X13200D02*
X18000D01*
X7632Y16391D02*
Y18338D01*
Y15897D02*
Y16391D01*
X8854D01*
X8875Y16370D01*
X7620Y18350D02*
X7632Y18338D01*
X7235Y15500D02*
X7632Y15897D01*
X6141Y15500D02*
X7235D01*
X36775Y14550D02*
X37292Y14033D01*
X38498D01*
X38505Y14025D01*
X76525Y8497D02*
Y9504D01*
X76900Y9879D01*
Y11245D01*
X75140D02*
X75169Y11216D01*
Y9879D02*
Y11216D01*
Y9879D02*
X75525Y9523D01*
Y8497D02*
Y9523D01*
X6141Y15000D02*
Y15500D01*
X4116Y18350D02*
X5750D01*
X6141Y14500D02*
X8875D01*
D32*
X80345Y4692D02*
D03*
X71705D02*
D03*
X80345Y8492D02*
D03*
X71705D02*
D03*
D33*
X102530Y5905D02*
D03*
X115230D02*
D03*
X28780Y25787D02*
D03*
X33860D02*
D03*
X26240Y26041D02*
D03*
X31320D02*
D03*
X36400D02*
D03*
D34*
X23700Y25787D02*
D03*
D35*
X89325Y12460D02*
D03*
Y15000D02*
D03*
D36*
Y17540D02*
D03*
D37*
X50000Y15000D02*
D03*
X98565D02*
D03*
D38*
X86121Y5236D02*
D03*
X32524Y23049D02*
D03*
X56287Y9850D02*
D03*
X43456Y6468D02*
D03*
X28037Y4013D02*
D03*
X17584Y4013D02*
D03*
X1600Y18583D02*
D03*
X40266Y9637D02*
D03*
X41300Y8200D02*
D03*
X54647Y7150D02*
D03*
X58150Y3500D02*
D03*
X25465Y15875D02*
D03*
X60625Y3925D02*
D03*
X67348Y4827D02*
D03*
X36400Y23250D02*
D03*
X106025Y3375D02*
D03*
X89325Y7597D02*
D03*
X112350Y12460D02*
D03*
X93050Y19700D02*
D03*
X90725Y3425D02*
D03*
X116325Y24650D02*
D03*
X61775Y10460D02*
D03*
X66200Y9025D02*
D03*
Y11025D02*
D03*
X64000Y13050D02*
D03*
X56825Y6899D02*
D03*
X32675Y6550D02*
D03*
X33050Y14675D02*
D03*
X62916Y13025D02*
D03*
X25450Y14035D02*
D03*
X33050Y11425D02*
D03*
X29975Y17925D02*
D03*
X28887Y17400D02*
D03*
X73703Y16475D02*
D03*
X77300Y14775D02*
D03*
X67750Y14275D02*
D03*
X65500Y16475D02*
D03*
X12890Y27335D02*
D03*
X5750Y24050D02*
D03*
X9838Y18350D02*
D03*
X7625Y4450D02*
D03*
X8228Y5125D02*
D03*
X7625Y5900D02*
D03*
X38470Y9883D02*
D03*
X22750Y8875D02*
D03*
X18000Y23275D02*
D03*
X36775Y14550D02*
D03*
Y17400D02*
D03*
X37025Y19225D02*
D03*
X76025Y13050D02*
D03*
X4103Y18363D02*
D03*
D39*
X117300Y21980D02*
D03*
X112300D02*
D03*
X109800Y26980D02*
D03*
X107300Y21980D02*
D03*
X102300D02*
D03*
X104800Y16980D02*
D03*
X99800Y26980D02*
D03*
X97300Y21980D02*
D03*
X92300D02*
D03*
Y11980D02*
D03*
X94800Y6980D02*
D03*
X89800Y26980D02*
D03*
X87300Y21980D02*
D03*
X82300D02*
D03*
X84800Y16980D02*
D03*
Y6980D02*
D03*
X79800Y26980D02*
D03*
Y6980D02*
D03*
X74800D02*
D03*
X49800Y26980D02*
D03*
X47300Y21980D02*
D03*
X44800Y26980D02*
D03*
X37300Y21980D02*
D03*
X27300D02*
D03*
Y11980D02*
D03*
X29800Y6980D02*
D03*
X22300Y21980D02*
D03*
X17300D02*
D03*
X19800Y16980D02*
D03*
X17300Y11980D02*
D03*
X19800Y6980D02*
D03*
X12300Y21980D02*
D03*
Y11980D02*
D03*
X14800Y6980D02*
D03*
X9800D02*
D03*
X77300Y22980D02*
D03*
X75300D02*
D03*
X76300Y20980D02*
D03*
X73300Y22980D02*
D03*
X74300Y20980D02*
D03*
X71300Y22980D02*
D03*
X69300D02*
D03*
X70300Y20980D02*
D03*
X67300Y22980D02*
D03*
X68300Y20980D02*
D03*
X67300Y18980D02*
D03*
X65300Y22980D02*
D03*
X66300Y20980D02*
D03*
X65300Y18980D02*
D03*
X63300Y22980D02*
D03*
X64300Y20980D02*
D03*
X63300Y18980D02*
D03*
X62300Y20980D02*
D03*
X61300Y18980D02*
D03*
X59300D02*
D03*
X57300Y22980D02*
D03*
Y18980D02*
D03*
X55300Y22980D02*
D03*
X56300Y20980D02*
D03*
X55300Y18980D02*
D03*
X53300Y22980D02*
D03*
X54300Y20980D02*
D03*
X51300Y22980D02*
D03*
X52300Y20980D02*
D03*
%TF.MD5,2044a1a158c719a475cdf8e1cff173b1*%
M02*
