%TF.GenerationSoftware,Altium Limited,Altium Designer,22.5.1 (42)*%
G04 Layer_Color=255*
%FSLAX43Y43*%
%MOMM*%
%TF.SameCoordinates,F834D1AD-2218-43A0-9239-15D80BA758C3*%
%TF.FilePolarity,Positive*%
%TF.FileFunction,Pads,Top*%
%TF.Part,Single*%
G01*
G75*
%TA.AperFunction,SMDPad,CuDef*%
G04:AMPARAMS|DCode=10|XSize=1mm|YSize=1.42mm|CornerRadius=0.125mm|HoleSize=0mm|Usage=FLASHONLY|Rotation=180.000|XOffset=0mm|YOffset=0mm|HoleType=Round|Shape=RoundedRectangle|*
%AMROUNDEDRECTD10*
21,1,1.000,1.170,0,0,180.0*
21,1,0.750,1.420,0,0,180.0*
1,1,0.250,-0.375,0.585*
1,1,0.250,0.375,0.585*
1,1,0.250,0.375,-0.585*
1,1,0.250,-0.375,-0.585*
%
%ADD10ROUNDEDRECTD10*%
%ADD11R,1.400X1.000*%
%ADD12R,1.359X0.587*%
G04:AMPARAMS|DCode=13|XSize=1.359mm|YSize=0.587mm|CornerRadius=0.293mm|HoleSize=0mm|Usage=FLASHONLY|Rotation=180.000|XOffset=0mm|YOffset=0mm|HoleType=Round|Shape=RoundedRectangle|*
%AMROUNDEDRECTD13*
21,1,1.359,0.000,0,0,180.0*
21,1,0.772,0.587,0,0,180.0*
1,1,0.587,-0.386,0.000*
1,1,0.587,0.386,0.000*
1,1,0.587,0.386,0.000*
1,1,0.587,-0.386,0.000*
%
%ADD13ROUNDEDRECTD13*%
G04:AMPARAMS|DCode=14|XSize=1.1mm|YSize=0.6mm|CornerRadius=0.051mm|HoleSize=0mm|Usage=FLASHONLY|Rotation=90.000|XOffset=0mm|YOffset=0mm|HoleType=Round|Shape=RoundedRectangle|*
%AMROUNDEDRECTD14*
21,1,1.100,0.498,0,0,90.0*
21,1,0.998,0.600,0,0,90.0*
1,1,0.102,0.249,0.499*
1,1,0.102,0.249,-0.499*
1,1,0.102,-0.249,-0.499*
1,1,0.102,-0.249,0.499*
%
%ADD14ROUNDEDRECTD14*%
%ADD15R,0.800X0.900*%
%ADD16R,2.440X1.130*%
G04:AMPARAMS|DCode=17|XSize=1mm|YSize=1.42mm|CornerRadius=0.125mm|HoleSize=0mm|Usage=FLASHONLY|Rotation=270.000|XOffset=0mm|YOffset=0mm|HoleType=Round|Shape=RoundedRectangle|*
%AMROUNDEDRECTD17*
21,1,1.000,1.170,0,0,270.0*
21,1,0.750,1.420,0,0,270.0*
1,1,0.250,-0.585,-0.375*
1,1,0.250,-0.585,0.375*
1,1,0.250,0.585,0.375*
1,1,0.250,0.585,-0.375*
%
%ADD17ROUNDEDRECTD17*%
%ADD18R,0.900X1.150*%
%ADD19R,0.800X1.150*%
%ADD20R,0.700X1.150*%
%ADD21R,0.600X1.700*%
%ADD22R,1.000X2.800*%
%ADD23R,2.100X1.380*%
%ADD24R,3.800X2.030*%
%ADD25R,1.200X1.100*%
G04:AMPARAMS|DCode=26|XSize=1.9mm|YSize=0.48mm|CornerRadius=0.06mm|HoleSize=0mm|Usage=FLASHONLY|Rotation=180.000|XOffset=0mm|YOffset=0mm|HoleType=Round|Shape=RoundedRectangle|*
%AMROUNDEDRECTD26*
21,1,1.900,0.360,0,0,180.0*
21,1,1.780,0.480,0,0,180.0*
1,1,0.120,-0.890,0.180*
1,1,0.120,0.890,0.180*
1,1,0.120,0.890,-0.180*
1,1,0.120,-0.890,-0.180*
%
%ADD26ROUNDEDRECTD26*%
%ADD27R,3.400X1.500*%
%ADD28R,3.500X1.000*%
%ADD29R,2.300X2.500*%
%ADD30R,1.000X0.250*%
%ADD31R,0.250X1.000*%
%TA.AperFunction,ComponentPad*%
%ADD34C,1.524*%
%ADD35O,1.000X2.000*%
%ADD36R,1.524X1.524*%
%ADD37C,1.500*%
G04:AMPARAMS|DCode=38|XSize=1.5mm|YSize=1.5mm|CornerRadius=0.375mm|HoleSize=0mm|Usage=FLASHONLY|Rotation=270.000|XOffset=0mm|YOffset=0mm|HoleType=Round|Shape=RoundedRectangle|*
%AMROUNDEDRECTD38*
21,1,1.500,0.750,0,0,270.0*
21,1,0.750,1.500,0,0,270.0*
1,1,0.750,-0.375,-0.375*
1,1,0.750,-0.375,0.375*
1,1,0.750,0.375,0.375*
1,1,0.750,0.375,-0.375*
%
%ADD38ROUNDEDRECTD38*%
%TA.AperFunction,ViaPad*%
%ADD39C,5.000*%
D10*
X109855Y5905D02*
D03*
X107985D02*
D03*
X111495D02*
D03*
X113365D02*
D03*
X106355D02*
D03*
X104485D02*
D03*
X92430Y3425D02*
D03*
X94300D02*
D03*
X104485Y3425D02*
D03*
X102615D02*
D03*
X89325Y19700D02*
D03*
X91195D02*
D03*
X81540Y14775D02*
D03*
X83410D02*
D03*
X38470Y7975D02*
D03*
X36600D02*
D03*
X31730Y7975D02*
D03*
X33600D02*
D03*
X5750Y18350D02*
D03*
X7620D02*
D03*
X7632Y20550D02*
D03*
X5762D02*
D03*
X41241Y25916D02*
D03*
X39371D02*
D03*
X73270Y11245D02*
D03*
X75140D02*
D03*
X78770D02*
D03*
X76900D02*
D03*
D11*
X106495Y9775D02*
D03*
X109855D02*
D03*
X84900Y12460D02*
D03*
X81540D02*
D03*
D12*
X98353Y4985D02*
D03*
D13*
Y6815D02*
D03*
X96500Y5900D02*
D03*
D14*
X41241Y23866D02*
D03*
X43141D02*
D03*
Y21266D02*
D03*
X42191D02*
D03*
X41241D02*
D03*
D15*
X26975Y15875D02*
D03*
Y14025D02*
D03*
X28425D02*
D03*
Y15875D02*
D03*
D16*
X59725Y15540D02*
D03*
Y13000D02*
D03*
Y10460D02*
D03*
X68325D02*
D03*
Y13000D02*
D03*
Y15540D02*
D03*
D17*
X38866Y23136D02*
D03*
Y21266D02*
D03*
X80345Y19285D02*
D03*
Y17415D02*
D03*
X87050Y12460D02*
D03*
Y14330D02*
D03*
X8875Y14500D02*
D03*
Y16370D02*
D03*
X91775Y15680D02*
D03*
Y17550D02*
D03*
D18*
X78775Y8497D02*
D03*
X73275D02*
D03*
D19*
X77545D02*
D03*
X74505D02*
D03*
D20*
X75525D02*
D03*
X76525D02*
D03*
D21*
X19250Y11740D02*
D03*
X18000D02*
D03*
X16750D02*
D03*
D22*
X21100Y15090D02*
D03*
X14900D02*
D03*
D23*
X13200Y23275D02*
D03*
X22300D02*
D03*
X13200Y18795D02*
D03*
X22300Y18785D02*
D03*
D24*
X41325Y3375D02*
D03*
X3475D02*
D03*
X10925D02*
D03*
X36275D02*
D03*
X87300D02*
D03*
X106025Y26625D02*
D03*
X116325D02*
D03*
X85425D02*
D03*
X95725D02*
D03*
X3475D02*
D03*
D25*
X82500Y19300D02*
D03*
Y17200D02*
D03*
D26*
X38505Y19225D02*
D03*
Y18575D02*
D03*
Y17925D02*
D03*
Y17275D02*
D03*
Y16625D02*
D03*
Y15975D02*
D03*
Y15325D02*
D03*
Y14675D02*
D03*
Y14025D02*
D03*
Y13375D02*
D03*
Y12725D02*
D03*
Y12075D02*
D03*
Y11425D02*
D03*
Y10775D02*
D03*
X31495D02*
D03*
Y11425D02*
D03*
Y12075D02*
D03*
Y12725D02*
D03*
Y13375D02*
D03*
Y14025D02*
D03*
Y14675D02*
D03*
Y15325D02*
D03*
Y15975D02*
D03*
Y16625D02*
D03*
Y17275D02*
D03*
Y17925D02*
D03*
Y18575D02*
D03*
Y19225D02*
D03*
D27*
X118000Y18350D02*
D03*
Y11650D02*
D03*
D28*
X112250Y16000D02*
D03*
Y14000D02*
D03*
D29*
X107225Y17200D02*
D03*
Y12800D02*
D03*
D30*
X6141Y14500D02*
D03*
Y15000D02*
D03*
Y15500D02*
D03*
X3859D02*
D03*
Y15000D02*
D03*
Y14500D02*
D03*
D31*
X5750Y16391D02*
D03*
X5250D02*
D03*
X4750D02*
D03*
X4250D02*
D03*
X5762Y13603D02*
D03*
X5254D02*
D03*
X4746D02*
D03*
X4238D02*
D03*
D34*
X102530Y5905D02*
D03*
X115230D02*
D03*
X28780Y25787D02*
D03*
X33860D02*
D03*
X26240Y26041D02*
D03*
X31320D02*
D03*
X36400D02*
D03*
D35*
X80345Y4692D02*
D03*
X71705D02*
D03*
X80345Y8492D02*
D03*
X71705D02*
D03*
D36*
X23700Y25787D02*
D03*
D37*
X89325Y12460D02*
D03*
Y15000D02*
D03*
D38*
Y17540D02*
D03*
D39*
X50000Y15000D02*
D03*
X98565D02*
D03*
%TF.MD5,5ec4997a0a3ce2da3b3b3186efb4871c*%
M02*
